<?xml version="1.0" encoding="UTF-8" standalone="no"?>
<!-- Created with Inkscape (http://www.inkscape.org/) -->

<svg
   xmlns:dc="http://purl.org/dc/elements/1.1/"
   xmlns:cc="http://creativecommons.org/ns#"
   xmlns:rdf="http://www.w3.org/1999/02/22-rdf-syntax-ns#"
   xmlns:svg="http://www.w3.org/2000/svg"
   xmlns="http://www.w3.org/2000/svg"
   xmlns:sodipodi="http://sodipodi.sourceforge.net/DTD/sodipodi-0.dtd"
   xmlns:inkscape="http://www.inkscape.org/namespaces/inkscape"
   width="600"
   height="200"
   id="svg2"
   version="1.1"
   inkscape:version="0.48.4 r9939"
   sodipodi:docname="pool.svg"
   inkscape:export-filename="/home/shark/dp/graphics/pool.png"
   inkscape:export-xdpi="61.73"
   inkscape:export-ydpi="61.73">
  <defs
     id="defs4" />
  <sodipodi:namedview
     id="base"
     pagecolor="#ffffff"
     bordercolor="#666666"
     borderopacity="1.0"
     inkscape:pageopacity="0.0"
     inkscape:pageshadow="2"
     inkscape:zoom="0.98994949"
     inkscape:cx="291.76809"
     inkscape:cy="53.769227"
     inkscape:document-units="px"
     inkscape:current-layer="layer1"
     showgrid="false"
     inkscape:window-width="1366"
     inkscape:window-height="723"
     inkscape:window-x="0"
     inkscape:window-y="22"
     inkscape:window-maximized="0" />
  <metadata
     id="metadata7">
    <rdf:RDF>
      <cc:Work
         rdf:about="">
        <dc:format>image/svg+xml</dc:format>
        <dc:type
           rdf:resource="http://purl.org/dc/dcmitype/StillImage" />
        <dc:title></dc:title>
      </cc:Work>
    </rdf:RDF>
  </metadata>
  <g
     inkscape:label="Ebene 1"
     inkscape:groupmode="layer"
     id="layer1"
     transform="translate(0,-852.36218)">
    <path
       style="color:#000000;fill:#3e454c;fill-opacity:1;fill-rule:nonzero;stroke:#000000;stroke-width:5.34278727;stroke-linecap:square;stroke-linejoin:miter;stroke-miterlimit:4;stroke-opacity:1;stroke-dashoffset:0;marker:none;visibility:visible;display:inline;overflow:visible;enable-background:accumulate"
       d="m -8.6032192,873.29836 19.4389542,0 19.438954,-6.9082 19.438953,6.9082 22.029528,6.04467 16.848379,-6.04467 19.438951,2.59058 19.43895,-8.63525 19.43896,6.04467 21.16601,5.18116 17.71191,-5.18116 19.43894,-4.88484 19.43896,4.88484 20.66016,-6.10605 18.21774,6.10605 19.43896,9.76967 19.43896,-9.76967 19.43895,-4.27423 19.43895,4.27423 19.43895,4.88484 19.43895,-4.88484 20.04957,-8.54846 18.82834,8.54846 21.88138,7.32726 16.99653,-7.32726 19.43895,-3.66362 19.43896,3.66362 20.04957,4.27423 18.82833,-4.27423 19.43896,1.2212 19.43894,-10.38027 19.43897,9.15907 19.43896,0 0,190.50854 -622.0465292,0 z"
       id="rect2985"
       inkscape:connector-curvature="0"
       sodipodi:nodetypes="cccccccccccccccccccccccccccccccccccc" />
  </g>
</svg>
