<?xml version="1.0" encoding="UTF-8" standalone="no"?>
<!-- Created with Inkscape (http://www.inkscape.org/) -->

<svg
   xmlns:dc="http://purl.org/dc/elements/1.1/"
   xmlns:cc="http://creativecommons.org/ns#"
   xmlns:rdf="http://www.w3.org/1999/02/22-rdf-syntax-ns#"
   xmlns:svg="http://www.w3.org/2000/svg"
   xmlns="http://www.w3.org/2000/svg"
   xmlns:sodipodi="http://sodipodi.sourceforge.net/DTD/sodipodi-0.dtd"
   xmlns:inkscape="http://www.inkscape.org/namespaces/inkscape"
   id="svg3039"
   version="1.1"
   inkscape:version="0.48.4 r9939"
   width="874.79529"
   height="344.03372"
   sodipodi:docname="sharks.svg"
   inkscape:export-filename="/home/shark/dp/graphics/sharks.png"
   inkscape:export-xdpi="61.73"
   inkscape:export-ydpi="61.73">
  <metadata
     id="metadata3045">
    <rdf:RDF>
      <cc:Work
         rdf:about="">
        <dc:format>image/svg+xml</dc:format>
        <dc:type
           rdf:resource="http://purl.org/dc/dcmitype/StillImage" />
        <dc:title></dc:title>
      </cc:Work>
    </rdf:RDF>
  </metadata>
  <defs
     id="defs3043" />
  <sodipodi:namedview
     pagecolor="#3e454c"
     bordercolor="#666666"
     borderopacity="1"
     objecttolerance="10"
     gridtolerance="10"
     guidetolerance="10"
     inkscape:pageopacity="0"
     inkscape:pageshadow="2"
     inkscape:window-width="1366"
     inkscape:window-height="723"
     id="namedview3041"
     showgrid="false"
     showborder="true"
     inkscape:zoom="0.89716402"
     inkscape:cx="439.21209"
     inkscape:cy="171.17096"
     inkscape:window-x="0"
     inkscape:window-y="22"
     inkscape:window-maximized="0"
     inkscape:current-layer="svg3039"
     fit-margin-top="2"
     fit-margin-left="2"
     fit-margin-right="2"
     fit-margin-bottom="2"
     borderlayer="false" />
  <g
     transform="matrix(0.49525322,0,0,0.49525322,104.49114,-27.35455)"
     id="g3930"
     style="fill:#2185c5;fill-opacity:1">
    <path
       style="fill:#2185c5;fill-opacity:1;stroke:#000000;stroke-width:6.25;stroke-linecap:butt;stroke-linejoin:miter;stroke-miterlimit:4;stroke-opacity:1;stroke-dasharray:none"
       d="m 12.801724,29.482759 c 0,0 48.595321,38.192237 56.896552,50.397429 21.018906,30.903822 12.413793,59.257742 12.413793,59.257742 17.921501,-8.41213 45.517241,-30.27586 45.517241,-30.27586 l 17.58621,6.48276 c 0,0 20.4333,-8.39125 21.7931,-7.37931 6.77355,5.04077 7.53623,9.30988 16.48276,11.7931 7.87688,2.18633 10.38605,-0.8191 21.72414,-3.37931 0,0 62.03482,-5.53815 118.72527,0.67951 -28.89384,23.77342 -66.64616,52.50761 -66.64616,52.50761 l 114.90111,-47.47147 c 37.64178,2.74488 120.60598,-0.54323 120.60598,-0.54323 0.25862,-2.58621 3.73972,-6.64879 36.0673,-10.01086 0,0 59.39409,-26.381245 55.93892,-29.184753 -10.99833,-8.923995 -74.409,-21.751942 -90.44349,-28.47608 C 478.84721,50.776589 377.70883,44.774986 341.94473,52.607125 L 279.56201,2.3244329 c -5.7784,33.5230271 -7.29338,53.7518851 -7.29338,53.7518851 -46.89936,1.412899 -83.16987,5.653302 -103.65158,14.065434 0,0 -19.4937,-3.346919 -43.97645,5.767228 C 98.672707,56.890246 34.380672,30.579994 12.801724,29.482759 z"
       id="path3932"
       inkscape:connector-curvature="0"
       sodipodi:nodetypes="cscccssccccccsccccccc" />
    <path
       style="fill:#2185c5;fill-opacity:1;stroke:#000000;stroke-width:6.25;stroke-linecap:butt;stroke-linejoin:miter;stroke-miterlimit:4;stroke-opacity:1;stroke-dasharray:none"
       d="m 416.50862,98.275866 c 0.25862,3.879314 -4.91379,12.931044 -4.91379,12.931044"
       id="path3934"
       inkscape:connector-curvature="0"
       sodipodi:nodetypes="cc" />
    <path
       style="fill:#2185c5;fill-opacity:1;stroke:#000000;stroke-width:6.25;stroke-linecap:butt;stroke-linejoin:miter;stroke-miterlimit:4;stroke-opacity:1;stroke-dasharray:none"
       d="m 498.43721,94.198648 -0.67054,6.870882 7.13784,0.50712"
       id="path3936"
       inkscape:connector-curvature="0"
       sodipodi:nodetypes="ccc" />
    <path
       sodipodi:nodetypes="cc"
       inkscape:connector-curvature="0"
       id="path3938"
       d="m 336.28449,107.25862 -11.89656,9.43965"
       style="fill:#2185c5;fill-opacity:1;stroke:#000000;stroke-width:6.25;stroke-linecap:butt;stroke-linejoin:miter;stroke-miterlimit:4;stroke-opacity:1;stroke-dasharray:none" />
    <path
       sodipodi:nodetypes="cc"
       inkscape:connector-curvature="0"
       id="path3940"
       d="m 404.87436,95.715652 c 0.25862,3.879314 -5.27953,15.491258 -5.27953,15.491258"
       style="fill:#2185c5;fill-opacity:1;stroke:#000000;stroke-width:6.25;stroke-linecap:butt;stroke-linejoin:miter;stroke-miterlimit:4;stroke-opacity:1;stroke-dasharray:none" />
    <path
       style="fill:#2185c5;fill-opacity:1;stroke:#000000;stroke-width:6.25;stroke-linecap:butt;stroke-linejoin:miter;stroke-miterlimit:4;stroke-opacity:1;stroke-dasharray:none"
       d="m 392.50862,92.275866 c 0.25862,3.879314 -4.91379,12.931044 -4.91379,12.931044"
       id="path3942"
       inkscape:connector-curvature="0"
       sodipodi:nodetypes="cc" />
  </g>
  <g
     style="fill:#7ecefd;fill-opacity:1"
     id="g3944"
     transform="matrix(0.32138371,0,0,0.32138371,472.90301,-3.6681604)">
    <path
       sodipodi:nodetypes="cscccssccccccsccccccc"
       inkscape:connector-curvature="0"
       id="path3946"
       d="m 12.801724,29.482759 c 0,0 48.595321,38.192237 56.896552,50.397429 21.018906,30.903822 12.413793,59.257742 12.413793,59.257742 17.921501,-8.41213 45.517241,-30.27586 45.517241,-30.27586 l 17.58621,6.48276 c 0,0 20.4333,-8.39125 21.7931,-7.37931 6.77355,5.04077 7.53623,9.30988 16.48276,11.7931 7.87688,2.18633 10.38605,-0.8191 21.72414,-3.37931 0,0 62.03482,-5.53815 118.72527,0.67951 -28.89384,23.77342 -66.64616,52.50761 -66.64616,52.50761 l 114.90111,-47.47147 c 37.64178,2.74488 120.60598,-0.54323 120.60598,-0.54323 0.25862,-2.58621 3.73972,-6.64879 36.0673,-10.01086 0,0 59.39409,-26.381245 55.93892,-29.184753 -10.99833,-8.923995 -74.409,-21.751942 -90.44349,-28.47608 C 478.84721,50.776589 377.70883,44.774986 341.94473,52.607125 L 279.56201,2.3244329 c -5.7784,33.5230271 -7.29338,53.7518851 -7.29338,53.7518851 -46.89936,1.412899 -83.16987,5.653302 -103.65158,14.065434 0,0 -19.4937,-3.346919 -43.97645,5.767228 C 98.672707,56.890246 34.380672,30.579994 12.801724,29.482759 z"
       style="fill:#7ecefd;fill-opacity:1;stroke:#000000;stroke-width:6.25;stroke-linecap:butt;stroke-linejoin:miter;stroke-miterlimit:4;stroke-opacity:1;stroke-dasharray:none" />
    <path
       sodipodi:nodetypes="cc"
       inkscape:connector-curvature="0"
       id="path3948"
       d="m 416.50862,98.275866 c 0.25862,3.879314 -4.91379,12.931044 -4.91379,12.931044"
       style="fill:#7ecefd;fill-opacity:1;stroke:#000000;stroke-width:6.25;stroke-linecap:butt;stroke-linejoin:miter;stroke-miterlimit:4;stroke-opacity:1;stroke-dasharray:none" />
    <path
       sodipodi:nodetypes="ccc"
       inkscape:connector-curvature="0"
       id="path3950"
       d="m 498.43721,94.198648 -0.67054,6.870882 7.13784,0.50712"
       style="fill:#7ecefd;fill-opacity:1;stroke:#000000;stroke-width:6.25;stroke-linecap:butt;stroke-linejoin:miter;stroke-miterlimit:4;stroke-opacity:1;stroke-dasharray:none" />
    <path
       style="fill:#7ecefd;fill-opacity:1;stroke:#000000;stroke-width:6.25;stroke-linecap:butt;stroke-linejoin:miter;stroke-miterlimit:4;stroke-opacity:1;stroke-dasharray:none"
       d="m 336.28449,107.25862 -11.89656,9.43965"
       id="path3952"
       inkscape:connector-curvature="0"
       sodipodi:nodetypes="cc" />
    <path
       style="fill:#7ecefd;fill-opacity:1;stroke:#000000;stroke-width:6.25;stroke-linecap:butt;stroke-linejoin:miter;stroke-miterlimit:4;stroke-opacity:1;stroke-dasharray:none"
       d="m 404.87436,95.715652 c 0.25862,3.879314 -5.27953,15.491258 -5.27953,15.491258"
       id="path3954"
       inkscape:connector-curvature="0"
       sodipodi:nodetypes="cc" />
    <path
       sodipodi:nodetypes="cc"
       inkscape:connector-curvature="0"
       id="path3956"
       d="m 392.50862,92.275866 c 0.25862,3.879314 -4.91379,12.931044 -4.91379,12.931044"
       style="fill:#7ecefd;fill-opacity:1;stroke:#000000;stroke-width:6.25;stroke-linecap:butt;stroke-linejoin:miter;stroke-miterlimit:4;stroke-opacity:1;stroke-dasharray:none" />
  </g>
  <g
     transform="matrix(0.60198126,0,0,0.60198126,107.75491,88.668273)"
     id="g3958"
     style="fill:#fff6e5;fill-opacity:1">
    <path
       style="fill:#fff6e5;fill-opacity:1;stroke:#000000;stroke-width:6.25;stroke-linecap:butt;stroke-linejoin:miter;stroke-miterlimit:4;stroke-opacity:1;stroke-dasharray:none"
       d="m 12.801724,29.482759 c 0,0 48.595321,38.192237 56.896552,50.397429 21.018906,30.903822 12.413793,59.257742 12.413793,59.257742 17.921501,-8.41213 45.517241,-30.27586 45.517241,-30.27586 l 17.58621,6.48276 c 0,0 20.4333,-8.39125 21.7931,-7.37931 6.77355,5.04077 7.53623,9.30988 16.48276,11.7931 7.87688,2.18633 10.38605,-0.8191 21.72414,-3.37931 0,0 62.03482,-5.53815 118.72527,0.67951 -28.89384,23.77342 -66.64616,52.50761 -66.64616,52.50761 l 114.90111,-47.47147 c 37.64178,2.74488 120.60598,-0.54323 120.60598,-0.54323 0.25862,-2.58621 3.73972,-6.64879 36.0673,-10.01086 0,0 59.39409,-26.381245 55.93892,-29.184753 -10.99833,-8.923995 -74.409,-21.751942 -90.44349,-28.47608 C 478.84721,50.776589 377.70883,44.774986 341.94473,52.607125 L 279.56201,2.3244329 c -5.7784,33.5230271 -7.29338,53.7518851 -7.29338,53.7518851 -46.89936,1.412899 -83.16987,5.653302 -103.65158,14.065434 0,0 -19.4937,-3.346919 -43.97645,5.767228 C 98.672707,56.890246 34.380672,30.579994 12.801724,29.482759 z"
       id="path3960"
       inkscape:connector-curvature="0"
       sodipodi:nodetypes="cscccssccccccsccccccc" />
    <path
       style="fill:#fff6e5;fill-opacity:1;stroke:#000000;stroke-width:6.25;stroke-linecap:butt;stroke-linejoin:miter;stroke-miterlimit:4;stroke-opacity:1;stroke-dasharray:none"
       d="m 416.50862,98.275866 c 0.25862,3.879314 -4.91379,12.931044 -4.91379,12.931044"
       id="path3962"
       inkscape:connector-curvature="0"
       sodipodi:nodetypes="cc" />
    <path
       style="fill:#fff6e5;fill-opacity:1;stroke:#000000;stroke-width:6.25;stroke-linecap:butt;stroke-linejoin:miter;stroke-miterlimit:4;stroke-opacity:1;stroke-dasharray:none"
       d="m 498.43721,94.198648 -0.67054,6.870882 7.13784,0.50712"
       id="path3964"
       inkscape:connector-curvature="0"
       sodipodi:nodetypes="ccc" />
    <path
       sodipodi:nodetypes="cc"
       inkscape:connector-curvature="0"
       id="path3966"
       d="m 336.28449,107.25862 -11.89656,9.43965"
       style="fill:#fff6e5;fill-opacity:1;stroke:#000000;stroke-width:6.25;stroke-linecap:butt;stroke-linejoin:miter;stroke-miterlimit:4;stroke-opacity:1;stroke-dasharray:none" />
    <path
       sodipodi:nodetypes="cc"
       inkscape:connector-curvature="0"
       id="path3968"
       d="m 404.87436,95.715652 c 0.25862,3.879314 -5.27953,15.491258 -5.27953,15.491258"
       style="fill:#fff6e5;fill-opacity:1;stroke:#000000;stroke-width:6.25;stroke-linecap:butt;stroke-linejoin:miter;stroke-miterlimit:4;stroke-opacity:1;stroke-dasharray:none" />
    <path
       style="fill:#fff6e5;fill-opacity:1;stroke:#000000;stroke-width:6.25;stroke-linecap:butt;stroke-linejoin:miter;stroke-miterlimit:4;stroke-opacity:1;stroke-dasharray:none"
       d="m 392.50862,92.275866 c 0.25862,3.879314 -4.91379,12.931044 -4.91379,12.931044"
       id="path3970"
       inkscape:connector-curvature="0"
       sodipodi:nodetypes="cc" />
  </g>
  <g
     style="fill:#ff7f66;fill-opacity:1"
     id="g3972"
     transform="matrix(0.76374983,0,0,0.76374983,527.31605,98.725418)">
    <path
       sodipodi:nodetypes="cscccssccccccsccccccc"
       inkscape:connector-curvature="0"
       id="path3974"
       d="m 12.801724,29.482759 c 0,0 48.595321,38.192237 56.896552,50.397429 21.018906,30.903822 12.413793,59.257742 12.413793,59.257742 17.921501,-8.41213 45.517241,-30.27586 45.517241,-30.27586 l 17.58621,6.48276 c 0,0 20.4333,-8.39125 21.7931,-7.37931 6.77355,5.04077 7.53623,9.30988 16.48276,11.7931 7.87688,2.18633 10.38605,-0.8191 21.72414,-3.37931 0,0 62.03482,-5.53815 118.72527,0.67951 -28.89384,23.77342 -66.64616,52.50761 -66.64616,52.50761 l 114.90111,-47.47147 c 37.64178,2.74488 120.60598,-0.54323 120.60598,-0.54323 0.25862,-2.58621 3.73972,-6.64879 36.0673,-10.01086 0,0 59.39409,-26.381245 55.93892,-29.184753 -10.99833,-8.923995 -74.409,-21.751942 -90.44349,-28.47608 C 478.84721,50.776589 377.70883,44.774986 341.94473,52.607125 L 279.56201,2.3244329 c -5.7784,33.5230271 -7.29338,53.7518851 -7.29338,53.7518851 -46.89936,1.412899 -83.16987,5.653302 -103.65158,14.065434 0,0 -19.4937,-3.346919 -43.97645,5.767228 C 98.672707,56.890246 34.380672,30.579994 12.801724,29.482759 z"
       style="fill:#ff7f66;fill-opacity:1;stroke:#000000;stroke-width:6.25;stroke-linecap:butt;stroke-linejoin:miter;stroke-miterlimit:4;stroke-opacity:1;stroke-dasharray:none" />
    <path
       sodipodi:nodetypes="cc"
       inkscape:connector-curvature="0"
       id="path3976"
       d="m 416.50862,98.275866 c 0.25862,3.879314 -4.91379,12.931044 -4.91379,12.931044"
       style="fill:#ff7f66;fill-opacity:1;stroke:#000000;stroke-width:6.25;stroke-linecap:butt;stroke-linejoin:miter;stroke-miterlimit:4;stroke-opacity:1;stroke-dasharray:none" />
    <path
       sodipodi:nodetypes="ccc"
       inkscape:connector-curvature="0"
       id="path3978"
       d="m 498.43721,94.198648 -0.67054,6.870882 7.13784,0.50712"
       style="fill:#ff7f66;fill-opacity:1;stroke:#000000;stroke-width:6.25;stroke-linecap:butt;stroke-linejoin:miter;stroke-miterlimit:4;stroke-opacity:1;stroke-dasharray:none" />
    <path
       style="fill:#ff7f66;fill-opacity:1;stroke:#000000;stroke-width:6.25;stroke-linecap:butt;stroke-linejoin:miter;stroke-miterlimit:4;stroke-opacity:1;stroke-dasharray:none"
       d="m 336.28449,107.25862 -11.89656,9.43965"
       id="path3980"
       inkscape:connector-curvature="0"
       sodipodi:nodetypes="cc" />
    <path
       style="fill:#ff7f66;fill-opacity:1;stroke:#000000;stroke-width:6.25;stroke-linecap:butt;stroke-linejoin:miter;stroke-miterlimit:4;stroke-opacity:1;stroke-dasharray:none"
       d="m 404.87436,95.715652 c 0.25862,3.879314 -5.27953,15.491258 -5.27953,15.491258"
       id="path3982"
       inkscape:connector-curvature="0"
       sodipodi:nodetypes="cc" />
    <path
       sodipodi:nodetypes="cc"
       inkscape:connector-curvature="0"
       id="path3984"
       d="m 392.50862,92.275866 c 0.25862,3.879314 -4.91379,12.931044 -4.91379,12.931044"
       style="fill:#ff7f66;fill-opacity:1;stroke:#000000;stroke-width:6.25;stroke-linecap:butt;stroke-linejoin:miter;stroke-miterlimit:4;stroke-opacity:1;stroke-dasharray:none" />
  </g>
  <g
     id="g3908"
     transform="matrix(1.0480577,0,0,1.0480577,73.995258,222.5808)">
    <path
       sodipodi:nodetypes="cscccssccccccsccccccc"
       inkscape:connector-curvature="0"
       id="path3049"
       d="m 12.801724,29.482759 c 0,0 48.595321,38.192237 56.896552,50.397429 21.018906,30.903822 12.413793,59.257742 12.413793,59.257742 17.921501,-8.41213 45.517241,-30.27586 45.517241,-30.27586 l 17.58621,6.48276 c 0,0 20.4333,-8.39125 21.7931,-7.37931 6.77355,5.04077 7.53623,9.30988 16.48276,11.7931 7.87688,2.18633 10.38605,-0.8191 21.72414,-3.37931 0,0 62.03482,-5.53815 118.72527,0.67951 -28.89384,23.77342 -66.64616,52.50761 -66.64616,52.50761 l 114.90111,-47.47147 c 37.64178,2.74488 120.60598,-0.54323 120.60598,-0.54323 0.25862,-2.58621 3.73972,-6.64879 36.0673,-10.01086 0,0 59.39409,-26.381245 55.93892,-29.184753 -10.99833,-8.923995 -74.409,-21.751942 -90.44349,-28.47608 C 478.84721,50.776589 377.70883,44.774986 341.94473,52.607125 L 279.56201,2.3244329 c -5.7784,33.5230271 -7.29338,53.7518851 -7.29338,53.7518851 -46.89936,1.412899 -83.16987,5.653302 -103.65158,14.065434 0,0 -19.4937,-3.346919 -43.97645,5.767228 C 98.672707,56.890246 34.380672,30.579994 12.801724,29.482759 z"
       style="fill:#999999;fill-opacity:1;stroke:#000000;stroke-width:6.25;stroke-linecap:butt;stroke-linejoin:miter;stroke-miterlimit:4;stroke-opacity:1;stroke-dasharray:none" />
    <path
       sodipodi:nodetypes="cc"
       inkscape:connector-curvature="0"
       id="path3825"
       d="m 416.50862,98.275866 c 0.25862,3.879314 -4.91379,12.931044 -4.91379,12.931044"
       style="fill:#999999;fill-opacity:1;stroke:#000000;stroke-width:6.25;stroke-linecap:butt;stroke-linejoin:miter;stroke-miterlimit:4;stroke-opacity:1;stroke-dasharray:none" />
    <path
       sodipodi:nodetypes="ccc"
       inkscape:connector-curvature="0"
       id="path3827"
       d="m 498.43721,94.198648 -0.67054,6.870882 7.13784,0.50712"
       style="fill:#999999;fill-opacity:1;stroke:#000000;stroke-width:6.25;stroke-linecap:butt;stroke-linejoin:miter;stroke-miterlimit:4;stroke-opacity:1;stroke-dasharray:none" />
    <path
       style="fill:#999999;fill-opacity:1;stroke:#000000;stroke-width:6.25;stroke-linecap:butt;stroke-linejoin:miter;stroke-miterlimit:4;stroke-opacity:1;stroke-dasharray:none"
       d="m 336.28449,107.25862 -11.89656,9.43965"
       id="path3902"
       inkscape:connector-curvature="0"
       sodipodi:nodetypes="cc" />
    <path
       style="fill:#999999;fill-opacity:1;stroke:#000000;stroke-width:6.25;stroke-linecap:butt;stroke-linejoin:miter;stroke-miterlimit:4;stroke-opacity:1;stroke-dasharray:none"
       d="m 404.87436,95.715652 c 0.25862,3.879314 -5.27953,15.491258 -5.27953,15.491258"
       id="path3904"
       inkscape:connector-curvature="0"
       sodipodi:nodetypes="cc" />
    <path
       sodipodi:nodetypes="cc"
       inkscape:connector-curvature="0"
       id="path3906"
       d="m 392.50862,92.275866 c 0.25862,3.879314 -4.91379,12.931044 -4.91379,12.931044"
       style="fill:#999999;fill-opacity:1;stroke:#000000;stroke-width:6.25;stroke-linecap:butt;stroke-linejoin:miter;stroke-miterlimit:4;stroke-opacity:1;stroke-dasharray:none" />
  </g>
</svg>
