<svg xmlns="http://www.w3.org/2000/svg" width="217" height="115" viewBox="0 0 217 115"><path d="M41.398 114.323c-.218-.08-.433-.2-.48-.268-.723-.576-1.392-1.38-1.956-1.88-1.976-3-4.453-5.404-5.563-8.622-.66-1.22-1.14-1.832.02-2.532.6.15 1.36.52 1.36.66 0 .08.09.23.21.34.33.31.79.98 1.1 1.63.99 1.42 1.9 4.12 3.44 4.84.21 0 .4-1.33.29-1.51-.05-.07-.04-.72.01-1.43s.09-1.52.09-1.8c.31-1.56 1.02-3.09 2.24-4.04.4-.42 1.81-1.32 2.34-1.49.25-.08.76-.15 1.14-.14 1.74-.11 3.41 1.45 4.56 1.22.12-.06.31-.4.42-.75.26-1.15.85-1.7 1.41-2.32.75-.68 1.66-1.11 2.59-1.36 1.25-.4 2.68.1 3.61.76 1.09.64 1.64 1.56 2.33 2.65.47.59.75 1.29 1 1.9.33.84.63 1.68 1.09 2.32.42.46.48.59.47 1.09-.23 1.3-.7.99-1.46.96-.93-.34-.89-.59-1.21-1.36-.34-.81-.61-1.23-.92-1.99-.63-1.36-1.61-2.41-2.31-3.45-.07 0-.24-.11-.38-.24-1.66-1.01-2.34-.61-3.73.88-.17.4-.58.72-.57 1.75-.09 1.89.64 3.62 1.3 5.19.1.2.35.58.33 1.01-.16.94-.56 1.14-1.11 1.18-.58.04-.87-.54-1.23-.93-.44-.23-.34-.64-.54-.99-.08-.05-.32-.72-.61-1.3-.39-.78-1.21-1.02-1.66-1.71-.97-1.13-1.7-1.72-2.95-2.29-1.87-.02-2.79 1.1-3.52 3.17-.43 2.15-.26 4.15-.17 6.03.06 1.52.41 2.48.48 3.18.15 1.52-.27 1.75-1.56 1.71zm51.45-8.547c-.117-.03-.385-.213-.595-.406-.21-.192-.42-.35-.462-.35-2.76-2.69-4.63-7.456-6.22-11.02-.08-.23-.22-.5-.3-.6-.08-.098-.21-.38-.3-.628-.08-.247-.19-.45-.24-.45-.97-1.656-1.93-3.33-2.86-5.065 0-.08-.1-.296-.22-.48-.3-.46-.18-1.058.25-1.208.25-.09.45-.04.99.23.72.36 1.05.33 1.14-.14.06-.29 1.13-1.84 1.69-2.45.64-.56 1.22-.87 1.98-1.21.64-.31 1.8-.6 2.37-.6.58 0 2.11.23 2.43.36.13.05.38.14.54.18.17.05.33.12.36.17.04.05.32.21.63.37 1.15.58 2.5 1.94 2.81 2.83.29.76.31 1.41.11 2 0 .5-.83 1.88-1.4 2.33-.16.12-.66.34-1.11.49-.7.23-.97.25-1.97.19-.63-.04-1.58-.17-2.1-.28-.52-.11-1.09-.21-1.25-.22-1.2-.11-2.26-.41-2.34-.67-.62-.45-.19 1.11-.14 1.37.11.26.2.48.2.51 0 .02.14.33.3.69.37 1.09.85 1.97 1.31 2.85.18.41.43.96.57 1.23 1.43 2.41 2.62 5.08 4.42 7.18 0 .06.15.24.34.41.63.58.8 1.41.42 2.06-.17.28-.28.34-.63.33-.23-.01-.52-.04-.63-.07zm-4.332-17.39c.72.405.765.41 3.167.322 1.66-.06 2.234-.262 2.684-.94.686-1.424.556-1.857-.23-2.842-.126-.214-.285-.39-.354-.39-.068-.002-.244-.13-.39-.285-.993-1.04-3.27-1.31-5.004-.58-.73.36-1.2.9-1.69 1.52l-.26.49c-.55 1.02-.66 1.47-.58 2.21.01.67.19.62.55.62.41.01 1.25-.4 2.09-.12zM68.984 98.652c-1.07-.19-1.503-.317-1.822-.53-.184-.123-.388-.225-.454-.227-.066 0-.12-.058-.12-.126s-.202-.32-.45-.56c-.603-.59-.948-1.42-.96-2.32-.01-.72.324-1.98.526-1.98.058 0 .106-.06.106-.12s.094-.22.21-.34c.115-.12.398-.45.628-.73.57-.7 1.27-1.38 1.438-1.39.033-.01.184-.08.336-.16.52-.29 1.402-.5 2.13-.5.4 0 .762.03.805.07.137.13 1.095.16 1.704.05.46-.09.64-.07.78.05 1.07.61 1.37 1.74 1.86 2.46.65.93 1.5 1.87 2.27 2.78.58.56 1.25.92 1.74.92.2 0 .37.04.37.09 0 .05.12.14.27.21.22.09.27.21.26.62-.01.74-.3 1-1.29 1.16-1.29-.08-2.43-.83-3.49-1.7-.91-.9-1.36-.92-2.08-.11-1.13 1.27-1.84 1.88-2.19 1.88-.1 0-.34.08-.55.18-.5.25-1.41.37-2 .27zm1.318-2.137c.04-.066.17-.12.286-.12.323 0 1.175-.878 1.225-1.21.18-1.168-.07-2.738-.723-3.7-.312-.462-1-.07-1.417-.008-1.073.24-1.343.442-1.602 1.204-.07.23-.23.58-.34.78-.11.2-.23.5-.28.68-.1.43.08 1.36.32 1.6.11.11.2.24.2.3s.23.21.51.35c.54.26 1.7.35 1.83.14zM27.54 92.538c-1.057.008-1.76-.335-2.593-.766-1.483-.735-3.25-1.91-4.146-3.067-.21-.165-.46-.504-.58-.814-.03-.09-.11-.28-.17-.41-.39-.91-.48-1.26-.46-1.83.05-.64.3-1.17.51-1.67.41-1.29 1.29-2.23 2.39-2.96.35-.17.71-.35.81-.41.31-.18 1.05-.48 1.19-.48.26 0 .61-.48.61-.83 0-.2-.05-.36-.12-.36s-.19-.17-.28-.39c-.09-.21-.28-.49-.42-.62-1.43-2.18-1.88-1.68-2.96-1.48-.52.43-.97.69-1.17.69-.29 0-.45-.41-.28-.77.12-.26.22-.3.64-.3.64 0 .83-.21 1.02-1.12.18-.87.08-1.41-.37-2.07-.19-.27-.35-.53-.35-.57 0-.03-.08-.16-.18-.27-.31-.34-.74-1.01-1-1.54-.13-.27-.45-.75-.72-1.08-.69-1.02-.93-2.25-1-3.49.04-.51.08-1.13.09-1.38.01-.35.15-.61.61-1.17.33-.39.65-.71.73-.71.08 0 .24-.1.37-.22.21-.19.34-.21 1.04-.12.72.08.96.16 1.53.48.1.06.3.15.44.21.79.35 1.71 1.39 2.11 2.37.87 2.35.99 4.34.03 6.71-.42.89-.31 1.54-.02 2.43.46.88 1.4 2.28 1.53 2.28.06 0 .12.08.12.18 0 .1.07.22.16.27.34.22 1.76 2.61 1.76 2.98 0 .04.06.13.13.21.54.6 2.02 3.53 2.46 4.85.17.51.47 1.25.66 1.64.19.4.43.94.52 1.21.25.7.51 2.32.46 2.81-.05.5-.27.98-.42.89-.05-.03-.07.01-.04.1.04.09-.13.29-.38.46-.41.28-.54.3-1.94.31-.83 0-1.83-.04-2.22-.09zm2.234-2.066c.393-.163.388-1.287-.008-1.85-.12-.172-.286-.527-.37-.79-.082-.264-.19-.565-.242-.668-.05-.103-.177-.516-.28-.916-.504-1.575-1.332-3.087-2.11-4.406-.213-.395-.45-.758-.525-.807-.27-.166-.69-.09-1.16.208-.26.165-.52.3-.58.3-1.01.524-1.35 1.27-1.82 2.225 0 .116-.08.3-.18.408-.1.11-.23.544-.29.968-.1.72-.09.82.25 1.545.19.42.37.84.38.92 1.48 1.95 2.19 1.89 4.22 2.55.51.2 1.04.36 1.18.36.13 0 .31.05.4.1.15.09.67.02 1.11-.16zm-6.506-19.606c.198-.316.25-.708.28-2.08.07-2.56-.5-3.086-1.663-4.492-.585-.5-.858-.613-1.28-.534-.404.076-.445.136-.912 1.346-.355.92.21 2.678 1.222 3.8.83 1.148 1.31 2.455 2.353 1.96zm106.23 5.808c-.022-.022-.387-.166-.81-.32-.797-.29-1.172-.603-2.35-1.972-.316-.37-.954-1.07-1.415-1.56-.46-.488-.92-1.01-1.018-1.157-.247-.372-1.567-1.85-2.563-2.87-.454-.467-1.017-1.144-1.25-1.507-.522-.807-1.092-1.437-1.3-1.437-.444 0 .165-.82.99-1.34.882-.55 2.146-1.2 3.404-1.73.692-.29 1.314-.58 1.38-.63.07-.05.258-.12.42-.15.163-.03.485-.14.716-.25.23-.11 1.174-.4 2.096-.66.922-.25 2-.58 2.396-.73.395-.14 1.08-.29 1.523-.33.73-.05.793-.08.688-.27-.387-.72.167-.99.86-.41.242.2.718.46 1.06.58.646.23 1.292.81 2.816 2.54.4.45 1.1 1.12 1.56 1.49.89.71 1.74 1.53 1.74 1.67 0 .05.19.24.41.41.23.18.85.75 1.39 1.26.54.51 1.18 1.05 1.41 1.2.24.15.55.41.7.58.23.26.25.38.17.69-.12.41-.55.93-.77.93-.08 0-.21.08-.29.18-.08.1-.24.18-.35.18-.11 0-.41.11-.66.24-.26.13-.66.29-.89.37-.43.13-.66.22-1.21.45-.16.07-.62.24-1.01.38-.7.25-1.38.59-1.51.74-.03.04-.19.12-.36.17-.16.05-.56.22-.89.38-.32.16-.63.28-.68.28-.05 0-.38.13-.73.29-.35.16-.99.44-1.43.62-.43.18-1.02.48-1.31.67-.28.19-.55.31-.61.28-.05-.03-.1.01-.1.1 0 .09-.24.27-.53.4-.29.13-.54.26-.54.3 0 .07-1.05.11-1.11.05zm1.02-2.392c.986-.558 2.06-1.052 2.97-1.367.794-.275 1.003-.365 4.132-1.792 1.826-.832 2.71-1.19 3.624-1.464.37-.12.51-.22.51-.39 0-.21-3.68-3.98-4.39-4.5-.142-.11-.998-.89-1.903-1.75-.9-.86-1.78-1.63-1.94-1.72-.26-.15-.43-.14-1.3.09-.55.14-1.1.25-1.23.25-.12 0-.24.04-.26.09-.05.1-1.42.5-2.01.58-1.05.14-1.9.35-2.39.59-.29.14-.67.33-.83.4-.44.2-1.45.76-1.8.99-.16.11-.45.24-.65.29-.37.09-.87.4-1.41.88-.35.3-.54.95-.37 1.24.38.65 6.31 6.67 6.57 6.67.1 0 .45.31.79.7.72.81.81.82 1.94.18zm-94.348 1.64c-.045-.07-.173-.13-.286-.13-.322 0-1.074-.686-1.285-1.174-.11-.243-.3-.673-.43-.954-.13-.282-.23-.58-.23-.66 0-.08-.08-.286-.17-.456-.09-.17-.2-.515-.25-.764-.05-.25-.13-.54-.18-.647-.43-.87-.59-1.822-.34-2.03.17-.145.58-.195.95-.114.5.11 1.24 1.165 1.59 2.248.11.37.25.77.29.9l.38 1.14.3.9.79-.03c.72-.03.81 0 .98.25.16.25.16.34.01.7-.1.23-.27.5-.39.61-.27.24-1.66.42-1.77.23zm8.14-3.324c-.78-.39-1.822-1.51-2.536-2.724-.313-.533-.626-1.026-.695-1.097-.07-.07-.24-.34-.37-.6-.13-.258-.28-.487-.33-.51-.05-.02-.09-.116-.09-.21 0-.095-.05-.266-.11-.38-.29-.56-.67-1.524-.65-1.613.02-.055-.03-.165-.09-.246-.36-.43-.73-1.113-1.07-1.98-.49-1.268-.98-2.76-.98-2.994 0-.103-.1-.406-.23-.674-.41-.878-.5-1.268-.36-1.53.1-.18.2-.22.44-.166.17.04.48.105.68.144.32.06.44.21.89 1.107.29.57.62 1.16.73 1.31.11.15.27.66.35 1.137.1.623.31 1.184.75 2.003.67 1.255 1.26 2.44 1.59 3.174.12.26.24.5.28.53.09.08.51.85.92 1.67.39.79.91 1.45 2 2.54.78.78.81.83.65 1.08-.26.39-1.06.39-1.83 0zm7.457-4.23c-.292-.09-.907-.645-1.23-1.115-1.376-2-1.445-2.06-2.32-2.06-.63 0-.676-.02-.71-.302-.026-.22.103-.43.518-.82.69-.65.68-.71-.43-2.43-.457-.7-.83-1.34-.83-1.4 0-.06-.043-.12-.096-.12-.11 0-.66-1.15-.91-1.88-.26-.75-.2-1.02.25-1.15.35-.1.43-.07.81.29.22.23.41.46.41.53s.21.43.47.81c.26.38.58.89.71 1.15s.32.54.43.63c.11.09.33.44.5.77.16.34.34.64.38.67.04.04.19.33.32.65s.32.64.42.71c.31.2 1.46-.24 4.58-1.79.91-.45 1.27-.51 1.27-.21 0 .28-1.92 1.96-2.23 1.96-.04 0-.21.1-.39.23-.18.13-.46.27-.62.32-.17.05-.52.19-.78.31-.27.11-.64.26-.84.32-.29.09-.37.18-.4.49-.03.21.01.38.07.38s.15.13.19.3c.04.16.13.3.19.3s.12.07.12.16.32.53.72.97l.72.79-.25.36c-.26.37-.5.42-1.11.23zm9.91-4.51c-.197-.024-.937-.1-1.643-.172-1.747-.177-2.485-.385-2.827-.796-.25-.3-.273-.42-.22-1.197.053-.763.212-1.243.586-1.768.414-.58.828-.994 1.28-1.28.47-.3.65-.34 1.474-.34.97 0 1.7.256 2.31.81.844.77.688 1.846-.406 2.788-.46.397-.52.498-.37.604.28.193 3.88.04 5.71-.246 1.75-.27 1.77-.27 2.62-.65.84-.38 1.06-.43 1.25-.31.24.15.08.34-.81.91-1.33.86-2.02 1.04-6.04 1.57-1.28.17-1.59.18-1.91.05-.29-.12-.39-.12-.42-.01-.02.08-.08.14-.13.13-.04-.01-.24-.03-.44-.06zM60.38 61.65c1.167-.602 1.47-1.563.664-2.105-.372-.25-.422-.255-.908-.09-.723.247-1.27.74-1.383 1.253-.287 1.287.3 1.627 1.627.942zm91.854 1.65c-.198-.063-.44-.178-.54-.255-.098-.076-.334-.217-.523-.312-.18-.095-.72-.5-1.19-.9-.96-.82-2.09-1.612-2.31-1.612-.07 0-.26-.2-.41-.44-.29-.48-.75-.92-2.47-2.35-.61-.51-1.11-.96-1.11-1.01 0-.04.17-.15.38-.22.35-.13.43-.1 1.01.28.45.3.75.41 1.01.39.34-.03.48.07 1.11.77.5.56.81.81 1 .81.5 0 3.26-1.22 6-2.67.4-.21.94-.47 1.2-.58.26-.11.83-.36 1.27-.57.44-.2.84-.36.89-.36.13 0 1.95-.94 2.5-1.29.27-.17 1.08-.61 1.8-.98s1.33-.73 1.35-.8c.03-.07-.13-.16-.35-.21-.99-.22-2.14-.44-2.91-.56-1.01-.15-1.73-.49-1.73-.81 0-.12.11-.26.23-.3.13-.04.27-.17.31-.29.12-.37.41-.38 1.54-.02 1.34.42 3.34.92 4.92 1.24 1.31.26 1.76.44 2.04.84.17.24.17.28 0 .47-.13.15-.16.36-.12.78.04.33.09.97.13 1.43.07 1.01.18 1.6.32 1.68.06.04.11.23.11.42 0 .7-.91.74-1.53.07-.25-.28-.6-1.78-.63-2.71-.04-1.23-.17-1.51-.54-1.14-.09.09-.48.26-.86.37-.84.24-2.51 1.09-2.86 1.46-.14.14-.3.37-.34.5-.08.25-1.6 1.09-1.98 1.09-.11 0-.53.18-.92.4-.39.22-.98.5-1.3.62-.32.12-.64.26-.7.32-.06.06-.19.1-.27.1-.09 0-.5.22-.92.48-.42.26-.81.48-.88.48-.06 0-.21.1-.32.22-.11.12-.42.29-.68.37-.27.08-.73.276-1.04.437-.3.16-.66.29-.8.29s-.43.168-.64.37c-.47.44-.41.61.46 1.27 1.02.77 2.52 2.12 2.48 2.23-.08.23-.74.403-1.11.285zM31.192 61.45c-.23-.026-.47-.098-.533-.16-.07-.06-.2-.11-.3-.11-.29 0-1.86-.81-2.21-1.137-.37-.34-.39-.44-.11-.692.18-.16.3-.16.83-.04.34.08.66.18.7.23.05.05.22.09.38.09s.56.16.88.36c.32.2.64.36.7.36.06 0 .11.05.11.11s.13.14.29.18c.15.04.32.16.36.27.09.24-.25.65-.52.63-.11-.01-.38-.04-.61-.07zm42.344-.71c-.527-.163-1.333-.403-1.79-.534-.457-.13-.97-.31-1.138-.4-.168-.088-.79-.388-1.384-.666-1.797-.844-2.255-1.09-2.755-1.477-.27-.204-.51-.403-.54-.442-.04-.04-.24-.17-.45-.29-.56-.32-.9-1.2-.8-2.07.04-.37.16-.74.28-.85.68-.65 1.09-.95 1.67-1.2 1.79-.76 3.74-1.3 5.09-1.4l1.07-.08-.27.29c-.15.16-.61.39-1.02.52-.66.21-1.54.55-2.32.91-.13.07-.47.19-.75.29-.28.1-.8.36-1.15.59-.53.34-.66.49-.72.82-.08.53.29 1.11.68 1.41.59.44.63.36 1.72 1.27.35.17.67.3.72.3.05 0 .34.21.64.46.39.32.8.52 1.37.67.45.12 1.04.31 1.3.42.26.12.85.34 1.3.49.83.29 1.1.54.96.89-.07.18-.54.44-.74.41-.05-.01-.51-.15-1.04-.31zm30.11-6.083c-.025-.024-.206-.07-.404-.102-.197-.033-.87-.15-1.497-.26-1.897-.332-4.465-1.327-5.375-2.082-.64-.532-1.687-1.273-1.9-1.345-.21-.072-1.12-.86-2.34-2.026-1.052-1.006-1.978-2.164-2.263-2.832-.08-.188-.21-.424-.288-.522-.08-.1-.21-.396-.3-.66-.09-.263-.2-.533-.25-.6-.22-.28-.38-1.83-.32-3.044.08-1.535.29-2.274.89-3.063.25-.32.52-.82.62-1.1.12-.38.25-.53.51-.62.31-.11.39-.08.71.24.26.27.34.44.29.63-.04.15-.07.34-.08.42-.01.09-.16.21-.35.28-.75.26-1.33 1.77-1.33 3.44 0 1.09.47 2.98.94 3.74.14.23.32.56.4.72.08.17.35.53.6.81s.45.56.45.62c0 .15 3.11 2.84 3.96 3.44.35.25.78.57.94.72.37.34 1.58.9 2.76 1.28.49.17 1.03.36 1.2.43.16.07.86.19 1.55.25 1.53.15 1.91.3 1.91.76 0 .19-.07.36-.15.38-.29.09-.9.18-.95.14zm83.91-2.818c-.14-.06-.362-.25-.496-.42-.134-.17-.316-.31-.406-.32-.09 0-.52-.21-.958-.45l-1.857-1.04c-1.07-.59-1.38-.79-2.77-1.73-.41-.28-.78-.5-.83-.5-.27 0-1.24-.8-1.55-1.27-.26-.39-.72-.79-1.58-1.38-.67-.45-1.52-1.07-1.89-1.37-.37-.3-.75-.54-.85-.54-.1 0-.25-.11-.33-.24-.1-.16-.23-.22-.41-.17-.35.09-.87-.18-.63-.33.09-.06.31-.11.49-.11s.33-.06.33-.12.19-.12.42-.12c.49 0 1.78-.42 2.21-.72.45-.31 2.12-1.01 3-1.25.43-.12 1.07-.31 1.44-.43.36-.12.84-.26 1.08-.3.4-.08 1.57-.5 2.33-.84 1.4-.62 1.68-.66 2.11-.31.24.2.26.26.13.48-.14.22-.12.26.12.36.15.05.51.32.8.59.29.27.55.49.59.49.03 0 .23.18.45.4.61.64 3.31 2.67 4.33 3.27.51.3 1.28.78 1.71 1.06.43.28 1.47.84 2.31 1.24 1.14.55 1.52.79 1.49.93-.02.11-.5.44-1.06.74s-1.24.69-1.5.88c-.27.19-.78.48-1.14.65-.37.17-1.02.49-1.45.71-.44.22-1.53.68-2.43 1.01-.91.33-1.86.74-2.12.91-.5.31-.73.35-1.15.18zm.243-1.13c.26-.16.89-.43 1.38-.61s1.07-.4 1.27-.5c.2-.1.46-.18.57-.18.23 0 .25-.28.03-.47-.09-.08-.29-.38-.44-.68-.16-.3-.32-.54-.37-.54-.18 0-.34.31-.38.71-.04.33-.11.44-.38.53-.28.09-.44.06-.88-.17-.3-.16-.68-.47-.85-.69-.17-.22-.39-.4-.48-.4-.12 0-.16-.08-.12-.24.04-.14-.18-.78-.52-1.56-.61-1.39-1.15-3.7-.95-4.08.14-.26.09-.63-.12-.79-.16-.13-.16-.17.02-.35.18-.18.27-.19.67-.07.65.19.82.42.62.8-.14.25-.12.51.11 1.76.29 1.59.46 2.21.67 2.48.07.1.22.39.32.66.32.79.86 1.76.99 1.76.06-.01.18-.21.27-.46.2-.61.22-.61.56-.29.28.26.3.27.3.04 0-.13-.05-.29-.11-.35-.07-.07-.23-.69-.37-1.38-.14-.69-.35-1.6-.48-2.02-.27-.88-.23-1.06.24-1.19.34-.09.34-.09-.58-.78-.51-.38-1.44-1.18-2.06-1.77l-1.13-1.08-.67.24c-.37.14-.74.27-.83.3-.12.04-.09.14.12.36.16.16.35.29.43.3.21 0 .31.23.17.4-.13.15.04.9.94 4.09l.28 1.02c.1.36.35 1.01.55 1.43.2.43.37.842.37.93 0 .08.12.15.27.15.37 0 .59.39.5.89-.05.24-.03.43.05.48.07.04.13.21.13.38 0 .26-.05.29-.39.26-.29-.03-.45-.148-.65-.46-.15-.23-.39-.58-.54-.77-.32-.4-.81-1.468-.82-1.767 0-.11-.04-.214-.09-.24-.16-.07-.48-.864-.68-1.713-.11-.46-.33-1.27-.48-1.795-.29-.98-.52-2.06-.54-2.55l-.04-.75c-.02-.26-.04-.48-.06-.48-.02 0-.36.09-.75.2-.65.18-.92.43-.59.54.09.03.09.14 0 .37-.08.22-.09.51-.01.89.06.31.19 1.35.28 2.31.13 1.44.21 1.84.47 2.36.17.35.32.7.32.78 0 .09.17.45.372.81.32.55.39.62.46.427.08-.22.1-.22.37.07.16.17.44.37.61.44.19.08.34.26.36.41.03.17.32.48.73.8.42.32.69.616.69.76 0 .3.18.29.77-.05zm5.57-2.39c.94-.47 1.68-1 1.68-1.22 0-.18.26-.3.64-.3.14 0 .36-.07.48-.16.19-.14.1-.22-.91-.71-.62-.31-1.33-.68-1.57-.83-.25-.15-.49-.23-.53-.19-.15.15.23 1.32.77 2.38.1.21-.8.07-1.1-.16-.59-.46-.81-1.09-.76-2.12l.05-.92-1.09-.74c-.6-.41-1.11-.72-1.14-.7-.03.02.11.46.31.98.2.51.53 1.58.73 2.37.52 2 .51 1.98.63 1.98.06 0 .1-.1.1-.23 0-.3.3-.54.55-.45.15.06.18.2.14.67-.06.54-.03.72.11.72.03 0 .41-.18.86-.4zm-10.89-.73c0-.22-.22-.47-.6-.68-.32-.18-.59-.51-.95-1.13-.28-.48-.5-.93-.5-1 0-.07-.15-.41-.33-.77-.28-.56-.33-.81-.36-1.89-.02-.69-.06-1.27-.09-1.3-.03-.03-.31.06-.62.19s-.64.25-.73.25c-.26 0-.19.21.13.43.33.22.29.41-.1.41-.26 0-.26 0 .02.15.16.08.33.31.39.51.72 2.53 1.16 3.34 1.91 3.49.17.03.38.19.47.36.22.4 1.3 1.19 1.3.95zm-4.49-3.46c-.23-.76-.45-1.63-.51-1.99-.04-.22-.1-.38-.14-.35-.04.02-.36.16-.7.31l-.62.27.32.51c.3.47 1.38 1.47 1.62 1.49.05 0 .07-.12.02-.27zm3.41-.83c-.08-.48-.15-1.3-.17-1.8-.02-.51-.07-.96-.12-1.01-.1-.1-.93.05-.93.16 0 .04.12.14.27.2.16.07.28.24.3.42.07.79.4 2.56.52 2.77.21.4.25.16.12-.76zM9.61 49.71c-.09-.115-.38-.52-.63-.902-.25-.38-.52-.73-.6-.78-.074-.046-.27-.3-.43-.564-.34-.564-.91-1.118-1.91-1.844-.4-.29-.82-.644-.935-.79-.113-.144-.336-.332-.496-.418-.16-.085-.43-.284-.6-.44-.17-.158-.52-.432-.79-.61-.27-.177-.74-.536-1.06-.797-.54-.44-.58-.505-.52-.894.03-.23.15-.5.25-.6.16-.16.22-.16.45-.01.15.1.41.25.59.34.18.09.4.26.48.38.08.12.62.52 1.2.9.57.38 1.05.75 1.05.8 0 .06.07.11.15.11.08 0 .36.19.61.42.25.23.48.42.51.42.03 0 .41.16.84.36.43.2.8.34.83.32.03-.03.08-.44.12-.93.06-.74.14-.98.5-1.51.23-.35.46-.63.52-.63.05 0 .09-.07.09-.15 0-.25.71-.57 1.42-.64.62-.06 1.73.06 2.58.26.38.09 1.94.94 2.2 1.2.09.09.2.16.25.16.05 0 .15.14.22.3.19.42.47.26.57-.33.09-.56.46-1.46.68-1.69.08-.08.31-.36.51-.61s.47-.58.6-.72c.24-.26 1.5-.68 1.77-.59.07.03.6.07 1.16.11 2.46.15 4.53 1.31 6.32 3.55.66.83 1.26 1.27 1.62 1.22.57-.09.77.68.26 1.02-.28.18-.4.19-1.15.05-.92-.16-1.09-.29-2.26-1.68-1.31-1.57-1.56-1.78-2.83-2.41-1.07-.53-1.35-.62-2.1-.66-.66-.03-.98.01-1.38.19-.29.13-.53.3-.53.38 0 .08-.13.26-.28.4-.74.69-1.2 3.34-.83 4.84.22.9.14 1.04-.65 1.14-.44.06-.56.02-.99-.35-.27-.23-.49-.46-.49-.52 0-.39-1.38-2.56-2-3.13-.44-.41-1.75-1.03-2.41-1.13-.44-.07-.58-.04-.98.24-.62.43-.82 1.03-.92 2.84-.078 1.28-.06 1.45.172 1.95.14.3.26.64.26.76s.11.45.24.74.21.63.17.76c-.14.45-1.2.62-1.503.25zm96.48-3.346c-.47-.08-1.024-.23-1.23-.334-.5-.258-1.94-1.564-2.16-1.96-.1-.176-.3-.49-.45-.7-.444-.62-.46-1.01-.072-1.784.4-.798 1.037-1.37 2.216-1.998 1.03-.547 1.42-.562 2.455-.092.9.408.94.624.15.738-.29.042-.83.185-1.19.317-.37.14-.89.31-1.16.39-.31.09-.52.24-.56.37-.04.13-.15.23-.25.23-.25 0-.25.12 0 .3.28.2.12.54-.26.54-.68 0-.14 1.05 1.16 2.24.94.87 1.16.94 2.72.92.96-.02 1.6-.09 2.15-.26 1.19-.36 1.8-.44 1.8-.22 0 .5-1.21 1.09-2.65 1.28-1.52.2-1.77.21-2.7.05zm-51.004-.277c-.266-.123-.617-.42-.78-.663-.166-.242-.404-.55-.53-.688-.446-.48-1.24-1.487-1.38-1.754-.23-.425-.61-.82-1.296-1.35-.926-.715-1.715-1.793-2.223-3.036-.243-.596-.44-1.146-.44-1.222 0-.077-.068-.183-.15-.235-.08-.06-.285-.37-.45-.7-.164-.33-.555-.86-.868-1.17-.32-.32-.57-.65-.57-.74 0-.38 1-.44 1.22-.07.2.31.29.3.47-.08.19-.4 1.41-1.16 2.26-1.41.79-.24 2.52-.24 4.15-.01 1.21.17 3.82.96 4.45 1.35.8.5 1.44 1.3 1.44 1.82 0 .33-.58 1.19-.9 1.33-.14.06-.49.25-.79.41-.6.34-2.05.95-3.6 1.52-.9.33-1.17.37-2.31.38-.71 0-1.29.03-1.29.08 0 .1.91 1.25 1.07 1.35.06.04.35.41.62.82.45.66 1.2 1.6 2.4 2.99.58.67.67.91.4 1.11-.29.2-.37.2-.96-.08zm-1.28-7.248c.57-.1 1.36-.34 1.756-.53.396-.19.935-.44 1.198-.55.77-.33 1.6-.91 1.877-1.3.256-.36.256-.37.03-.79-.226-.42-.366-.5-2.16-1.3-1.616-.71-4.964-.96-6.037-.44-.298.14-.662.4-.808.57-.146.17-.32.3-.387.3-.245 0-.115.98.23 1.74.194.43.403.77.464.77.06 0 .24-.1.39-.22.26-.21.97-.5 1.2-.5.19 0 .1.26-.27.71-.4.49-.45 1.04-.11 1.21.98.5 1.24.53 2.61.29zm58.354 5.77c-1.473-.64-2.107-1.08-2.412-1.69-.42-.86-.47-1.15-.26-1.6.11-.22.16-.44.12-.48-.04-.04.09-.28.288-.53.27-.34.48-.48.836-.54.26-.05.506-.13.544-.19.037-.06.47-.41.963-.78.65-.48 1.06-.7 1.5-.78.33-.07.66-.09.72-.05.06.04.19 0 .28-.08.46-.38 2.14.3 2.94 1.2.78.87 1.44 3.33 1.03 3.83-.2.25-1.01.84-1.14.84-.06 0-.25.1-.41.23-.53.42-1.65.71-3.04.79-1.21.07-1.37.05-1.98-.21zm3.06-.94c1.148-.43 1.88-1.25 2.03-2.27.063-.43.04-.58-.11-.71-.103-.09-.19-.23-.19-.31 0-.36-1.626-.94-2.29-.82-.156.03-.538-.03-.85-.12-.643-.2-.472.01-1.066.27-1.544.66-.477.26-1.324.89-.25 0-.32.38-.362.81-.03.38.02.58.23.87.15.2.39.54.527.75.512.79 2.165 1.09 3.413.62zm87.676.5c-.33-.19-1.42-.96-2.43-1.71-1.007-.75-2.328-1.71-2.937-2.14-.61-.43-1.6-1.18-2.19-1.68-.6-.5-1.34-1.08-1.66-1.29-.99-.67-2.31-1.76-2.58-2.13-.26-.36-.26-.36-.02-.4.13-.02.45.08.71.23l.47.26.99-.5c.55-.27 1.45-.66 2.01-.87 2.36-.87 3.21-1.18 3.77-1.41 2.98-1.2 3.16-1.25 3.62-1.14.35.08.46.17.49.4.04.33 1.17 1.53 2.18 2.33.82.64 1.17.93 1.89 1.56.3.26.85.7 1.21.97s.97.75 1.35 1.07c.38.32 1.08.78 1.56 1.02 3.21 1.59 3.78 1.91 3.86 2.12.09.24-.03.34-.6.48l-.96.24c-.27.06-.97.34-1.56.6-.59.26-1.14.48-1.21.48-.07 0-.36.11-.65.25-1.14.55-3.74 1.29-4.94 1.42-1.67.17-1.76.16-2.43-.23zm2.84-1.11c.64-.32 1.3-.61 1.47-.65.16-.04.3-.12.3-.17 0-.11 1.522-.49 1.94-.49.374 0 1.46-.32 2.07-.6.262-.13.71-.27.993-.31.74-.12.61-.38-.46-.93-1.89-.97-3.19-1.77-3.66-2.25-.27-.28-1.07-.96-1.8-1.53-.73-.57-1.95-1.59-2.73-2.26-1.33-1.17-1.69-1.37-1.96-1.13-.23.19-1.39.63-2.01.74-.38.07-1.27.46-2.24.97-2.47 1.3-2.51 1.32-3.23 1.39-.68.06-1.3.36-.99.47.22.08 3.02 2.18 3.84 2.87.37.32 1.19.92 1.82 1.35.62.42 1.32.91 1.55 1.1.23.18.53.34.68.34.3 0 1 .54 1 .77 0 .23.91.81 1.41.9.53.09.5.1 1.97-.62zM34.22 41.84c-.21-.096-.626-.21-.92-.254-1.19-.177-1.69-.815-1.59-2.01.037-.408.068-.745.07-.75.003-.006.408-.42.9-.926 1.1-1.125 1.78-1.5 2.95-1.624.492-.053.895-.156.922-.236.09-.273.405-.496.7-.496.33 0 1.003.31 1.003.463 0 .056.247.228.55.38.678.35 1.126.97 1.126 1.567 0 .242.08.504.18.586.1.083.18.24.18.35 0 .233.74.945 1.26 1.224.73.386 2.15.86 2.8.93.75.082.85.207.5.587-.41.44-1.28.33-3.52-.44-.59-.2-1.18-.48-1.32-.61-.34-.32-.41-.31-.97.23-.27.26-.78.62-1.13.8-.56.29-.8.34-1.96.37-.97.03-1.42 0-1.7-.13zm3.11-1.142c.4-.226.77-.54.87-.74.1-.19.23-.345.296-.345.254 0 .09-.286-.53-.917-.36-.364-.736-.838-.84-1.054-.306-.646-.433-.7-1.26-.54-.466.093-.727.204-.727.31 0 .09-.06.163-.12.163-.07 0-.23.106-.36.234-.13.13-.4.32-.6.42-1.07.55-.92 2.09.26 2.69.42.21.66.25 1.4.21.74-.04 1.02-.11 1.59-.44zm84.32.115c-2.5-.9-5.99-3.92-5.15-4.45.39-.25.68-.09 1.474.823.442.51 1.03 1.075 1.3 1.256.27.18.79.544 1.15.807.753.54 1.9 1.02 2.06.86.06-.06.14-.43.178-.82.037-.39.116-.77.174-.84.063-.08.034-.19-.077-.29-.1-.09-.19-.24-.19-.35 0-.11-.14-.43-.3-.72-.17-.29-.32-.69-.33-.9-.03-.35 0-.38.41-.41.38-.03.51.03.92.44.47.47 1.94 1.49 2.53 1.76 1.01.46 1.8.75 2.27.82.75.12 1.08.26 1.08.46 0 .41-1.14.41-2.34.01-1.02-.34-2.74-1.16-2.87-1.37-.2-.33-.24-.06-.09.56.15.57.15.81.03 1.37-.12.57-.21.72-.54.93-.49.3-.9.3-1.72 0zm11.27-2.58c-.548-.29-1.19-.56-1.44-.608-.25-.045-.53-.15-.63-.238-.22-.19-.43-.274-2.55-1.01-.908-.318-1.784-.664-1.947-.77-.362-.238-.392-.483-.048-.393.173.047.23.02.186-.093-.07-.2.28-.3 1.08-.3.52 0 1.3-.17 1.48-.32.03-.02-.4-.49-.95-1.04-.56-.55-1.47-1.5-2.03-2.11-.56-.6-1.1-1.13-1.2-1.18-.24-.09-2.39-2.46-2.39-2.63 0-.18.44-.29.66-.17.2.11 3.58 3.33 4.11 3.92.18.19.92.96 1.65 1.7l1.33 1.35 1.44-.19 1.44-.2-.06-.72c-.05-.72-.05-.73.5-1.4.74-.89 1.25-1.03 2.28-.58.54.23.67.41.86 1.15.13.52-.26.5-.81-.05-.74-.74-1.19-.63-1.55.36-.2.57-.03 1.18.37 1.39.89.45 2.13-.09 2.51-1.09.11-.27.1-.38-.05-.54-.33-.37-.23-.6.28-.6.36 0 .54.09.84.4.21.22.38.48.38.59 0 .24.98 1.12 1.6 1.44.31.16.75.25 1.27.27.66.02.8.06.84.24.15.79-2.2.46-3.62-.51-.67-.45-.75-.46-.92-.13-.08.14-.44.39-.82.56-.89.41-1.99.43-2.78.06-.47-.22-.65-.24-1.26-.16-.71.1-1.7.34-1.89.45-.11.07.51.69 2.26 2.25.66.59 1.22 1.11 1.24 1.17.03.07-.51.36-.61.32-.01 0-.47-.24-1.01-.53zm-1.47-1.366c0-.06-.287-.34-.63-.62-.348-.28-.696-.59-.77-.685-.19-.226-1.9-.094-2 .152-.09.24.032.3.61.3.29 0 .644.067.79.147.314.18 1.78.8 1.91.81.05.01.09-.04.09-.1zm-4.01-1.448c-.047-.07-.25-.12-.46-.12-.29 0-.34.03-.2.11.232.15.75.15.66 0zm16.203-2.08c-.44-.28-.925-.61-1.078-.75-.46-.41-2.15-1.51-3.125-2.03-1.396-.75.055-.78 1.52-.04.795.4 2.127 1.31 2.887 1.96.4.34.924.7 1.17.8.63.26.595.56-.06.55-.38-.01-.71-.14-1.31-.51zm9.963-1.45c-.56-.15-1.31-.42-1.675-.6-1.04-.53-2.56-1.47-2.8-1.74-.39-.44-.56-.32-.36.25.1.27.18.81.18 1.2 0 .64-.02.72-.3.85-.43.19-1.75-.05-2.75-.5-.63-.29-2.54-1.6-2.8-1.92-.03-.04-.24-.2-.45-.35-.23-.16-.38-.36-.36-.48.02-.11-.09-.32-.26-.46-.16-.14-.26-.3-.2-.35.15-.15 1.24.5 2.03 1.19 1.23 1.09 2.72 2 3.54 2.15.35.06.39.04.42-.26.05-.41-.24-1.83-.51-2.52-.39-.99 1.12-.5 2.89.95.3.24.84.6 1.2.8.36.19.9.49 1.2.66.3.16.98.44 1.52.61.87.27 1.24.47 1.1.59-.18.16-.67.13-1.54-.1zm6.357-.79c-.412-.1-.725-.39-.725-.67 0-.27.242-.31.56-.1.56.36 1.23.27 3.62-.5.314-.1-.206-.49-.92-.69-.923-.26-3.12-.62-5.636-.92-1.422-.17-2.327-.35-2.87-.55-.437-.17-.823-.34-.858-.39-.038-.05-.22-.17-.41-.27-.19-.1-.427-.35-.524-.55-.166-.35-.16-.4.105-.81.34-.52.797-.72 1.116-.49.16.11.29.13.45.04.17-.09.36-.06.73.12.46.21 1.29.87 1.29 1.03 0 .16-.45.02-1.14-.36-.41-.23-.86-.42-.98-.42s-.31.17-.43.37c-.21.35-.21.37.01.61.54.59 1.39.8 5.79 1.41 1.03.15 2.1.34 2.4.42l1.44.43c.94.27 1.92.76 1.92.96 0 .06-.04.11-.1.11-.06 0-.1.09-.09.2.02.25-1.16.67-2.66.93-1.09.19-1.42.2-2.04.06zM90.19 28.39c-.522-.13-2.463-1.756-2.463-2.06 0-.05-.176-.276-.39-.506-.88-.942-1.168-1.28-1.17-1.376-.01-.19-.778-.964-1.795-1.808-1.052-.875-1.557-1.414-1.557-1.664 0-.08.2-.208.444-.286.24-.08.5-.217.57-.3.28-.354 2.62-1.236 3.83-1.445.26-.046.72-.18 1.02-.3.29-.118 1.02-.357 1.61-.53.59-.176 1.28-.396 1.53-.49.25-.094.72-.172 1.04-.172.54 0 .67.062 1.52.718.51.4 1.01.72 1.12.72.25 0 .83.45.83.64 0 .34 1.94 1.99 2.34 2 .07 0 .34.21.6.45.26.25.65.59.87.75.21.17.53.43.7.59.29.27.3.3.1.44-.25.19-.04.36.24.2.25-.14 1.74.79 1.69 1.06-.02.12-.28.23-.69.32-1.14.24-4.35 1.1-4.84 1.3-.26.11-.54.17-.64.13-.24-.09-1.25.13-2.38.52-3.61 1.26-3.63 1.26-4.19 1.12zm1.55-1.246c.418-.194.788-.43.824-.527.037-.095.177-.173.312-.173.193 0 .23-.055.17-.28-.072-.29-.09-.27 2.53-2.59.26-.23.66-.563.89-.742.23-.18.554-.437.72-.574l.3-.248-.28-.235c-.278-.235-.28-.235-.777.018-.51.26-1.21.898-3.32 3.007-1.12 1.113-1.73 1.526-2.27 1.526-.29 0-.1-.365-.06-.54.09-.342 1.23-1.028 1.63-1.792.49-.495.95-.9 1.02-.9.07 0 .19-.107.26-.236.07-.13.58-.62 1.14-1.09.55-.472 1.01-.93 1.01-1.017 0-.08-.12-.24-.26-.34-.23-.16-.3-.16-.6 0-.19.1-.34.23-.34.28 0 .06-.5.49-1.11.96-1.74 1.34-2.1 1.65-2.64 2.19-.5.51-1.46 1.36-1.94 1.71-.24.18-.24.18.06.45.16.15.43.46.59.69.42.61.87.96 1.13.88.12-.03.56-.22.97-.42zm3.174-.94c.363-.083.713-.19.78-.24.065-.05.533-.146 1.04-.213.68-.09 1.025-.2 1.328-.43.225-.17.466-.31.537-.31.07 0 .14-.04.17-.1.02-.05.29-.27.61-.48.31-.21.56-.43.56-.49 0-.13-1.42-1.32-1.58-1.32-.07 0-.63.44-1.24.99-.62.55-1.34 1.18-1.62 1.41-.28.23-.68.57-.88.76-.21.19-.5.42-.64.52-.15.1-.24.24-.2.3.04.07.15.05.27-.05.11-.09.49-.24.85-.32zM89.61 23.72c1.943-1.705 2.475-2.157 3.077-2.617.296-.22.582-.48.634-.56.06-.086.35-.337.67-.56.31-.222.57-.46.56-.533 0-.07-.3-.313-.66-.537-.36-.224-.71-.492-.76-.595-.09-.17-.19-.165-.98.04-1.5.39-1.96.602-1.96.915 0 .18-.09.293-.26.34-.14.034-.5.29-.79.56-.29.27-.58.513-.64.54-.24.09-1.94 2.403-1.87 2.54.14.243.57.68.67.68.06 0 .1-.13.1-.29 0-.197.21-.48.66-.89.36-.33.66-.66.66-.726 0-.068.23-.283.51-.477.28-.196.72-.576.98-.846s.54-.49.61-.49c.08 0 .25-.132.4-.3.31-.35.98-.406 1.28-.104.24.234.13.378-.49.702-.25.13-1.25 1.032-2.23 2.005-.97.974-1.85 1.77-1.94 1.77-.09 0-.17.037-.17.08 0 .14.39.52.53.52.08 0 .74-.526 1.47-1.168zm-3.44-1.886c.203-.295.472-.592.596-.66.125-.065.258-.215.294-.33.038-.118.338-.427.668-.688.33-.26.6-.51.6-.554 0-.13-1.68.434-2.66.898-.51.24-.987.435-1.06.435-.158 0-.027.516.146.582.06.023.28.226.482.45.202.223.41.405.463.405.05 0 .26-.246.46-.54zm49.902 5.706c-.035-.058-.388-.138-.784-.18-.76-.08-1.204-.274-1.204-.527 0-.21.72-.186 1.01.033.13.097.37.177.54.178.37.002.867.24.936.447.055.17-.398.21-.5.05zm36.242-1.43c-.175-.18-.668-.513-1.097-.737-.43-.224-1.21-.72-1.74-1.103-.528-.388-1.51-1.1-2.186-1.59-.67-.49-1.69-1.325-2.26-1.86-.57-.533-1.13-.97-1.25-.97-.12 0-.24-.05-.28-.11-.09-.147.26-.49.51-.49.11 0 .36-.05.56-.11l1.75-.544c.76-.237 1.68-.506 2.04-.598.37-.093 1.04-.278 1.5-.41 3.39-.983 3.65-1.02 4.21-.59.19.143 1.44 1.357 2.79 2.697 1.34 1.34 2.66 2.556 2.92 2.703.27.148.6.337.74.42.14.087.58.33.97.55.73.396.92.7.48.773-.13.03-.95.28-1.81.57-.86.3-2.13.66-2.81.83-1.56.37-4.22.91-4.48.91-.11 0-.34-.15-.51-.33zm1.658-.675c1.884-.303 6.35-1.544 6.35-1.764 0-.08-1.687-1.33-2.165-1.61-.13-.07-.38-.31-.56-.54-.186-.22-1.198-1.26-2.25-2.3l-1.92-1.89-.486.06c-.26.03-.78.2-1.13.38-.66.34-2.07.88-3.16 1.23l-1.83.58c-.68.21-1.21.43-1.19.49.02.06.08.1.13.08.05-.02.09.03.09.1 0 .2 1.07 1.29 1.55 1.58.24.14.46.3.49.35.11.15 1.37 1.07 1.47 1.07.05 0 .43.26.84.58.41.32 1.17.81 1.68 1.1.51.29.93.57.93.63 0 .13-.02.13 1.2-.07zm18.487-1.562c-.45-.84-1.6-2.427-2.41-3.3-.81-.883-3.09-2.635-3.43-2.635-.1 0-.19-.05-.21-.114-.06-.172-3.46-1.877-4.83-2.424-.66-.267-1.52-.637-1.92-.827-.4-.19-1.21-.484-1.8-.655-.59-.17-1.21-.37-1.38-.44-.63-.27-.79-.324-1.2-.4-.7-.133-1.73-.507-1.78-.645-.05-.158.46-.17.84-.02.15.06.68.227 1.17.37 3.53 1.03 4.09 1.218 5.34 1.814.53.254 1.03.462 1.09.462.13 0 2.87 1.29 3.38 1.6.16.1.75.4 1.31.67 1.05.51 1.72.89 2.04 1.17.1.08.64.53 1.2.99.56.46 1.14.98 1.29 1.16.15.18.48.58.74.9.26.31.69.95.96 1.4.27.45.53.86.6.9.24.14-.04.42-.42.42-.33 0-.44-.07-.62-.42zm-82.17-2.68c-.39-.316-.86-.68-1.06-.807-.2-.126-.73-.513-1.18-.86-.45-.346-.92-.63-1.05-.63s-.23-.06-.23-.135c0-.07-.34-.46-.75-.87-.5-.48-.83-.92-.97-1.3-.12-.31-.2-.59-.18-.61.09-.08 1.38.25 1.63.43.14.11.37.43.5.72.32.74.85 1.12 1.42 1.01.44-.08.62-.13 2.65-.76 1.51-.46 2.8-.82 3.53-.98 1.45-.3 3.94-.99 6.65-1.84.95-.3 2.05-.6 2.45-.68.97-.19.69-.29-1.19-.46-.86-.07-1.86-.18-2.24-.23-.79-.11-1.4-.44-1.19-.65.1-.09.47-.08 1.42.07 1.14.18 3.77.41 4.01.35.13-.03 2.26.44 2.57.58l.27.12-.32.51c-.5.8-.88 1.74-.88 2.19 0 .61-.61.88-1.02.46-.25-.24-.19-.63.26-1.69.19-.45.27-.79.21-.86-.07-.06-.41-.01-.83.11-.4.12-1.29.36-1.98.53-.7.17-1.99.52-2.88.78-3.55 1.06-4.11 1.22-4.3 1.22-.11 0-.76.19-1.45.42-1.16.39-1.77.58-3.59 1.08-.88.25-1.56.54-1.56.68 0 .19.52.56.79.57.26.01.56.28.68.63.04.12.28.34.53.5.58.37.8.63.71.86-.14.37-.75.21-1.48-.4zm52.43-1.335c-.14-.09-.15-.144-.04-.258.11-.117.21-.118.45-.01.16.073.3.19.3.26 0 .15-.48.154-.72.003zm-20.37-6.59c-.72-.118-1.9-.55-2.3-.842-.18-.13-.36-.237-.41-.237-.05 0-.58-.45-1.18-1s-1.55-1.35-2.11-1.77c-.56-.42-1.3-.99-1.64-1.27-.34-.27-.73-.54-.87-.58-.32-.1-.33-.3-.01-.3.13 0 .39-.07.57-.16.46-.24 1.3-.42 2.5-.56 1.15-.14 1.76-.25 2.85-.52.94-.24 2.67-.56 3.68-.69 1.07-.14 1.48-.34 1.43-.71-.04-.26-.01-.28.3-.2.18.04.71.12 1.17.16.66.06.84.12.87.28.02.13-.04.21-.15.21-.23 0-.27.66-.04.76.08.03.9.69 1.82 1.46 1.88 1.57 3.07 2.39 3.95 2.73.81.31 1.86.95 1.86 1.13 0 .26-.56.17-1.3-.21-.39-.19-.77-.36-.85-.36-.13 0-.85.2-3.78 1.04-.33.1-.71.22-.84.28-.57.24-1.23.46-1.68.53-.46.08-1.28.34-2.28.71-.52.19-.78.2-1.62.07zm1.33-.673c.29-.105.87-.29 1.3-.407.43-.12 1.26-.38 1.85-.582.59-.202 1.82-.583 2.74-.847s1.69-.51 1.73-.55c.09-.09-.9-.96-1.42-1.25-.23-.13-.58-.39-.78-.57-.2-.19-.69-.61-1.08-.94-.39-.33-.86-.74-1.04-.9-.48-.45-1.07-.89-1.32-.99-.13-.05-.47-.04-.76.03-.3.06-.78.17-1.08.23-.3.06-.71.12-.92.12-.21 0-.65.07-.99.17-.52.14-1.7.43-2.5.6-.12.02-.26.07-.32.11-.06.03-.43.07-.81.08-.39.01-.78.05-.88.1-.1.05-.42.12-.72.16-.68.09-1.41.3-1.49.43-.06.09 1.19 1.1 2.02 1.62.46.29 1.24.93 1.85 1.5.91.86 1.53 1.32 1.72 1.25.1-.04.42.1.76.35.67.49 1.23.55 2.09.24zm29.41-.247c-.14-.137-.09-.28.1-.28.1 0 .18.082.18.18 0 .188-.15.238-.28.1zm-11.86-2.803c-.19-.052-.57-.28-.84-.503-.28-.22-.72-.54-.98-.71-.27-.17-.89-.673-1.39-1.125-.5-.452-1.18-1.055-1.52-1.34-.58-.487-.82-.674-1.65-1.278-.77-.56-.91-.69-.91-.84 0-.09-.13-.27-.3-.4-.38-.3-.37-.38.03-.38.17 0 .7-.11 1.16-.24.46-.13 1.17-.29 1.56-.35.39-.06 1.12-.19 1.61-.3.49-.1 1.26-.24 1.7-.3.44-.07.97-.21 1.18-.31.21-.11.47-.19.57-.19.1-.01.41-.11.68-.23.58-.27.97-.15 1.53.46.19.2.51.46.72.56.2.11.4.23.43.28.03.05.23.17.43.27.43.22 1.55 1.11 2.32 1.85.29.28.57.51.62.51.04 0 .34.22.66.49l.91.78c.19.16.39.29.45.29.05 0 .46.24.89.53.79.53.86.79.14.56-.58-.19-2.92.02-4.33.4-.65.17-1.3.31-1.45.31-.14 0-.31.04-.37.1-.06.05-.44.17-.83.26-.4.09-.98.26-1.3.38-.32.12-.69.22-.83.22s-.34.07-.45.16c-.13.11-.3.13-.53.07zm.89-.82c.83-.25 2.41-.667 3.45-.907.36-.084.97-.242 1.37-.35.39-.11 1.14-.23 1.67-.267.53-.03.98-.08 1-.1.06-.05-.4-.78-.5-.78-.11 0-.6-.42-1.15-.97-.17-.17-.53-.45-.79-.61-.27-.16-.76-.56-1.1-.88-.75-.7-1.27-1.12-1.7-1.36-.18-.1-.51-.32-.74-.5-.66-.5-.99-.59-1.52-.4-.9.33-2 .59-4.29 1.03-1.81.35-2.37.51-2.67.77l-.32.28.72.74c.4.41 1.03.9 1.41 1.09.38.2.69.41.69.47 0 .28 2.23 2.28 2.54 2.28.05 0 .09-.15.09-.33 0-.77.51-.51.77.4.1.36.21.66.23.66.02 0 .38-.1.8-.23z"/></svg>