<?xml version="1.0" encoding="UTF-8" standalone="no"?>
<svg
   xmlns:dc="http://purl.org/dc/elements/1.1/"
   xmlns:cc="http://creativecommons.org/ns#"
   xmlns:rdf="http://www.w3.org/1999/02/22-rdf-syntax-ns#"
   xmlns:svg="http://www.w3.org/2000/svg"
   xmlns="http://www.w3.org/2000/svg"
   xmlns:sodipodi="http://sodipodi.sourceforge.net/DTD/sodipodi-0.dtd"
   xmlns:inkscape="http://www.inkscape.org/namespaces/inkscape"
   width="45.784008mm"
   height="35.501846mm"
   viewBox="0 0 45.784008 35.501846"
   version="1.1"
   id="svg8"
   sodipodi:docname="factorization.svg"
   inkscape:version="1.0.1 (3bc2e813f5, 2020-09-07, custom)">
  <defs
     id="defs2">
    <inkscape:path-effect
       effect="rough_hatches"
       id="path-effect1138"
       is_visible="true"
       lpeversion="1"
       direction="154.50384,171.69839 , 25.982466,0"
       dist_rdm="75;1"
       growth="0"
       do_bend="true"
       bender="154.50384,176.69839 , 5,0"
       bottom_edge_variation="9.9238105;1"
       top_edge_variation="9.9238105;1"
       bottom_tgt_variation="0;1"
       top_tgt_variation="0;1"
       scale_bf="1"
       scale_bb="1"
       scale_tf="1"
       scale_tb="1"
       top_smth_variation="0;1"
       bottom_smth_variation="0;1"
       fat_output="true"
       stroke_width_top="1"
       stroke_width_bottom="1"
       front_thickness="1"
       back_thickness="0.25" />
    <inkscape:path-effect
       effect="roughen"
       id="path-effect1136"
       is_visible="true"
       lpeversion="1"
       method="size"
       max_segment_size="1"
       segments="3"
       displace_x="1;2147483646"
       displace_y="1;420710150"
       global_randomize="1.1;2147483646"
       handles="along"
       shift_nodes="true"
       fixed_displacement="true"
       spray_tool_friendly="true" />
  </defs>
  <sodipodi:namedview
     id="base"
     pagecolor="#ffffff"
     bordercolor="#666666"
     borderopacity="1.0"
     inkscape:pageopacity="0.0"
     inkscape:pageshadow="2"
     inkscape:zoom="32"
     inkscape:cx="85.123536"
     inkscape:cy="88.120623"
     inkscape:document-units="mm"
     inkscape:current-layer="layer1"
     inkscape:document-rotation="0"
     showgrid="false"
     inkscape:window-width="1920"
     inkscape:window-height="1175"
     inkscape:window-x="1920"
     inkscape:window-y="0"
     inkscape:window-maximized="1"
     units="px"
     fit-margin-top="0"
     fit-margin-left="0"
     fit-margin-right="0"
     fit-margin-bottom="0" />
  <metadata
     id="metadata5">
    <rdf:RDF>
      <cc:Work
         rdf:about="">
        <dc:format>image/svg+xml</dc:format>
        <dc:type
           rdf:resource="http://purl.org/dc/dcmitype/StillImage" />
        <dc:title></dc:title>
      </cc:Work>
    </rdf:RDF>
  </metadata>
  <g
     inkscape:label="Ebene 1"
     inkscape:groupmode="layer"
     id="layer1"
     transform="translate(-105.01414,-187.58317)">
    <g
       id="g58"
       transform="matrix(0.14568292,0.30614473,-0.41194608,0.17675274,180.25796,121.82452)"
       style="fill:none;stroke:#000000;stroke-width:0.7441649;stroke-miterlimit:4;stroke-dasharray:none;stroke-opacity:1">
      <path
         id="path28"
         style="fill:none;stroke:#000000;stroke-width:0.744165;stroke-miterlimit:4;stroke-dasharray:none;stroke-opacity:1"
         d="m 125.9273,226.37622 c 0.19099,-0.0764 0.4192,-0.067 0.50712,0.0209 0.0879,0.0879 -0.0684,0.15045 -0.34727,0.13896 -0.30822,-0.0127 -0.37092,-0.0754 -0.15985,-0.15985 z m 56.90899,-0.42402 c 0,-0.16602 0.41921,-0.067 0.50712,0.0209 0.0879,0.0879 -0.0683,0.15045 -0.34727,0.13896 -0.30822,-0.0127 -0.15985,0.0236 -0.15985,-0.15985 z m 6.4205,-5.52985 c 0.40822,0 0.0754,-0.37092 0.15985,-0.15985 0.0764,0.19099 0.067,0.4192 -0.0209,0.50712 -0.0879,0.0879 -0.50829,-0.34727 -0.13896,-0.34727 z m 0,-1.32292 c 0.40821,0 0.0754,-0.37092 0.15985,-0.15985 0.0764,0.191 0.067,0.4192 -0.0209,0.50712 -0.0879,0.0879 -0.50843,-0.34727 -0.13896,-0.34727 z m -80.0919,-0.92884 c 0.1819,-0.0734 0.47955,-0.0734 0.66145,0 0.18191,0.0734 0.0331,0.13345 -0.33072,0.13345 -0.36381,0 -0.51263,-0.0601 -0.33073,-0.13345 z m 90.56462,0.53823 c 0.1819,-0.0734 0.47956,-0.0734 0.66146,0 0.1819,0.0734 0.0331,0.13345 -0.33073,0.13345 -0.36381,0 -0.51263,-0.0601 -0.33073,-0.13345 z m -82.65534,-2.41831 c -2.54735,-1.15549 -2.22081,-1.78823 -1.99536,-2.3812 0.39178,-1.03046 0.25894,-3.29693 -0.25947,-4.42704 -0.82349,-1.79515 -3.08581,-3.57187 -4.54812,-3.57187 -0.4547,0 -0.54027,-0.11907 -0.4278,-0.59532 0.0773,-0.32742 -0.23332,-1.00958 -0.13781,-2.17375 0.24312,-2.96348 0.23563,-2.94876 1.59448,-3.13501 3.19829,-0.43837 6.20206,-2.88289 6.20931,-5.78201 l -0.66067,-1.73924 3.42565,-0.18453 c 1.51885,-0.29208 2.84284,-0.65193 2.94221,-0.79967 0.10052,-0.14945 0.18689,0.0102 0.19472,0.3607 0.0219,1.00055 1.39863,2.84245 2.67463,3.57944 1.47727,0.85325 3.43293,1.08309 4.94171,0.58078 0.61456,-0.20461 1.13997,-0.349 1.16758,-0.32086 0.0276,0.0281 0.70207,1.17634 1.5681,2.52922 l 1.61952,2.52994 -1.04023,0.92604 c -0.57212,0.50932 -1.25711,1.40229 -1.52218,1.98437 -0.92608,2.03357 -0.45035,5.12199 1.01888,6.61459 0.51912,0.52737 0.51375,0.53698 -1.58875,2.84158 -1.89192,2.07376 -2.07193,2.36047 -1.74428,2.77812 0.20094,0.25614 -0.13391,0.0256 -0.74413,-0.51224 -2.59216,-2.28485 -6.34668,-1.86484 -8.721,0.97561 -0.54846,0.65613 -1.06128,1.18112 -1.1396,1.16664 -0.0783,-0.0145 -1.35068,-0.57442 -2.82744,-1.24429 z m 71.63256,0.59122 c 0,-0.47751 -1.68951,-1.73111 -2.65057,-2.22141 -2.32105,-1.18411 -4.83026,-1.33192 -6.69098,0.30821 -0.61022,0.53787 -0.94508,0.76838 -0.74413,0.51224 0.32772,-0.41773 0.121,-0.28325 -1.80138,-2.3866 l -1.49241,-2.80693 0.52774,-0.46532 c 1.39366,-1.22885 1.85792,-4.25075 0.95161,-6.1938 -0.25619,-0.54927 -0.91312,-1.39307 -1.45984,-1.87512 l -0.99403,-0.87645 0.95893,-2.83344 c 1.18723,-2.03295 1.55392,-2.57929 1.85492,-2.45022 1.07807,0.46228 2.69353,0.68499 3.78332,0.52157 2.2465,-0.33689 4.40182,-2.3377 4.92852,-4.57522 0.12994,-0.55201 0.24821,-0.81785 0.26283,-0.59078 0.0199,0.30921 0.83084,0.42211 3.01926,1.02081 l 2.44554,0.66905 -0.11092,0.75571 c -0.061,0.41564 0.0371,1.37269 0.218,2.12678 0.56934,2.37327 2.79473,4.2825 5.40937,4.64087 1.36989,0.18777 2.0418,0.0134 2.27627,3.11195 0.0936,1.23692 0.22921,2.45731 0.30136,2.71198 0.0984,0.34729 -0.025,0.46302 -0.49367,0.46302 -0.34367,0 -1.26926,0.38695 -2.05686,0.85989 -1.89974,1.14076 -2.91021,2.97167 -2.91021,5.27313 0,0.86608 0.10974,1.77972 0.24386,2.03033 0.20934,0.39115 -0.15581,0.63213 -2.57969,1.70254 -2.99806,1.32396 -3.19684,0.96838 -3.19684,0.56721 z m -75.50695,-0.22331 c 0,-0.0549 0.20836,-0.2633 0.46302,-0.46302 0.41965,-0.32911 0.42901,-0.31975 0.0999,0.0999 -0.34564,0.44073 -0.56291,0.58089 -0.56291,0.36313 z m 24.63377,-4.30512 c 0.19099,-0.0764 0.4192,-0.067 0.50712,0.0209 0.0879,0.0879 -0.0683,0.15045 -0.34727,0.13896 -0.30822,-0.0127 -0.37092,-0.0754 -0.15985,-0.15985 z m 33.91859,-0.57158 c -0.001,-0.15634 0.3983,-0.0613 0.48253,0.0218 0.0842,0.0831 -0.0639,0.14139 -0.32937,0.12938 -0.29328,-0.0133 -0.15189,0.0211 -0.15316,-0.15121 z m 34.679,0.0688 c 0.0127,-0.30823 0.0754,-0.37092 0.15985,-0.15986 0.0764,0.191 0.067,0.4192 -0.0209,0.50712 -0.0879,0.0879 -0.15044,-0.0683 -0.13896,-0.34726 z M 138.0816,199.9234 c 0.1819,-0.0734 0.47955,-0.0734 0.66145,0 0.1819,0.0734 0.0331,0.13345 -0.33073,0.13345 -0.3638,0 -0.51263,-0.06 -0.33072,-0.13345 z m 33.06513,0.15095 c 0.17252,-0.0684 0.45567,-0.0671 0.62921,0.003 0.17354,0.0699 0.0324,0.12581 -0.31368,0.12426 -0.34608,-0.002 -0.48806,-0.0587 -0.31553,-0.12707 z m -46.80555,-13.23677 c -8.2e-4,-0.0511 0.19438,-0.24325 0.4338,-0.42687 0.39451,-0.30257 0.40356,-0.29378 0.0966,0.094 -0.3224,0.4072 -0.52711,0.5357 -0.5304,0.33292 z m 30.1725,-24.78095 -2.92111,-0.33876 -0.20666,-0.91127 c -0.45341,-1.99927 -1.55855,-3.32456 -3.60377,-4.33137 -0.93153,-0.45857 -1.47577,-0.55327 -2.79223,-0.50041 l -1.63482,0.0694 -1.1167,-2.84505 c -1.087,-2.76938 -0.95618,-3.37132 -0.29886,-3.37132 0.58829,0 2.3019,-1.62479 2.85308,-2.70519 0.98167,-1.92425 0.9473,-3.69167 -0.12235,-6.29065 -0.11609,-0.28207 0.54239,-0.9054 2.27637,-2.15486 l 1.9217,-1.36395 0.90989,0.79889 c 1.2732,1.11787 2.56067,1.60278 4.25567,1.60278 1.69457,0 2.98245,-0.48488 4.25454,-1.60179 l 0.90877,-0.79791 1.77899,1.22363 c 1.09033,0.79521 2.54852,1.67868 2.8055,1.86514 0.44469,0.32266 0.44178,0.3951 -0.0603,1.50178 -0.72128,1.58972 -0.68801,3.47788 0.0907,5.15027 0.59918,1.28677 2.31493,3.02396 2.98663,3.02396 0.65772,0 0.97213,0.31848 0.062,3.13367 l -0.93312,2.88642 -1.32417,-0.12724 c -3.37242,-0.32404 -6.20098,1.82615 -6.82845,5.19079 l -0.18041,0.96738 z M 143.40566,139.5752 c -0.32911,-0.41964 -0.31975,-0.429 0.0999,-0.0999 0.25466,0.19972 0.46302,0.40808 0.46302,0.46302 0,0.21777 -0.21727,0.0776 -0.56292,-0.36312 z m 4.33961,-6.02211 c 0,-0.50933 0.0544,-0.71769 0.121,-0.46302 0.0666,0.25466 0.0666,0.67138 0,0.92604 -0.0666,0.25466 -0.121,0.0463 -0.121,-0.46302 z m 12.41581,0.26458 c 0,-0.3638 0.06,-0.51263 0.13345,-0.33073 0.0734,0.1819 0.0734,0.47956 0,0.66146 -0.0734,0.1819 -0.13345,0.0331 -0.13345,-0.33073 z m -1.7867,-4.56406 -0.50403,-0.59531 0.59531,0.50402 c 0.55946,0.47366 0.71576,0.6866 0.50403,0.6866 -0.0502,0 -0.31809,-0.26789 -0.59531,-0.59531 z m -4.80351,-1.96832 c 0.25466,-0.0665 0.67138,-0.0665 0.92604,0 0.25466,0.0666 0.0463,0.121 -0.46302,0.121 -0.50932,0 -0.71768,-0.0544 -0.46302,-0.121 z m 23.2505,92.6079 c 0.40821,0 0.0754,-0.37092 0.15986,-0.15985 0.0764,0.191 0.067,0.4192 -0.0209,0.50712 -0.0879,0.0879 -0.5083,-0.34727 -0.13897,-0.34727 z M 143.90411,203.2727 c -1.41457,-2.56489 -4.33188,-3.84514 -6.95137,-3.05058 -0.7252,0.21997 -1.39525,0.40123 -1.489,0.40281 -0.18839,0.003 -3.16861,-4.6992 -3.17345,-4.99807 -0.002,-0.10296 0.27776,-0.3663 0.62096,-0.58521 0.3432,-0.2189 0.92726,-0.86337 1.2979,-1.43215 0.59304,-0.91003 0.67017,-1.27284 0.64273,-3.02309 -0.0278,-1.77711 -0.11116,-2.10515 -0.76932,-3.06147 l -0.73812,-1.07252 0.45616,-0.78802 c 0.2509,-0.43341 2.79212,-5.39709 5.25715,-9.67324 l 5.02173,-8.59202 1.70012,0.0252 c 1.39915,0.0207 1.92126,-0.0967 2.91645,-0.64669 1.44155,-0.79667 2.57302,-2.42196 2.76733,-3.97512 l 0.13571,-1.08479 2.88909,0.33862 3.04876,0.0743 0.31509,1.24269 c 0.76429,3.01429 2.9492,4.7911 5.93156,4.82364 l 1.74853,0.0191 4.97959,8.59896 c 4.45193,7.68777 4.80986,8.74929 4.50893,9.22239 -1.98512,3.12079 -1.70033,6.45932 0.73327,8.59605 0.50996,0.44776 0.88883,0.90335 0.84192,1.01244 -0.3471,0.80718 -2.18211,5.10554 -2.31707,5.10279 -0.0934,-0.002 -0.73554,-0.17547 -1.42692,-0.38569 -2.50981,-0.76316 -5.37027,0.48911 -6.65216,2.91223 l -0.62055,1.173 -11.02722,0.1435 -9.92188,-0.003 -0.72592,-1.31623 z m -39.56165,-9.52407 c 0,-0.50933 0.0545,-0.71769 0.121,-0.46302 0.0666,0.25466 0.0666,0.67138 0,0.92604 -0.0665,0.25466 -0.121,0.0463 -0.121,-0.46302 z m 99.55537,0.2656 c 0.40822,0 0.0754,-0.37092 0.15986,-0.15985 0.0764,0.19099 0.067,0.4192 -0.0209,0.50712 -0.0879,0.0879 -0.5083,-0.34727 -0.13897,-0.34727 z m -98.02926,-4.33425 c 0,-0.0549 0.20836,-0.2633 0.46303,-0.46302 0.41964,-0.32911 0.429,-0.31975 0.0999,0.0999 -0.34565,0.44073 -0.56292,0.58088 -0.56292,0.36312 z m 67.86318,-49.5881 c 0,0.47953 -0.31974,-0.42901 0.0999,-0.0999 0.44073,0.34564 0.58088,0.56291 0.36312,0.56291 -0.0549,0 -0.46302,-0.75402 -0.46302,-0.46302 z m -50.60465,85.51969 c -3.53818,-1.76315 -4.5273,-6.40162 -1.99576,-9.35915 1.63688,-1.91233 4.15714,-2.74301 6.45188,-2.12655 1.53533,0.41244 3.77142,2.60188 4.18403,4.09672 1.49601,5.4199 -3.6906,9.85544 -8.64015,7.38898 z m 57.50984,-0.23684 c -1.36096,-0.61983 -2.92958,-2.36334 -3.28821,-3.65483 -0.69756,-2.51206 -0.17624,-4.49928 1.66358,-6.34146 1.56836,-1.57038 2.7593,-1.56395 4.67165,-1.27717 3.69465,0.55404 6.20919,3.21417 5.52401,6.88171 -0.6988,3.74055 -5.07611,5.98346 -8.57103,4.39175 z m -74.28861,-7.9907 c -3.73584,-1.86165 -4.50803,-6.74539 -1.53579,-9.71327 3.85201,-3.84637 10.47556,-1.15395 10.4981,4.26741 0.0195,4.69057 -4.71042,7.56466 -8.96231,5.44586 z m 90.87105,0.43579 c -2.87482,-1.64871 -3.83409,-5.17271 -2.24088,-8.23213 2.24407,-4.30924 8.78553,-4.20499 10.90528,0.17381 0.78429,1.62015 0.77958,3.82734 -0.0118,5.51092 -1.45966,3.10528 -5.56986,4.31536 -8.6526,2.5474 z m -59.77903,-5.5858 c -3.0572,-0.53889 -5.10182,-2.9635 -5.10182,-6.04998 0,-3.47162 2.65662,-6.08541 6.18514,-6.08541 3.53258,0 6.02216,2.5567 6.05662,6.21991 0.0133,1.41782 -0.10703,1.88037 -0.76723,2.94821 -1.41146,2.28299 -3.83991,3.41373 -6.37271,2.96727 z m 32.84793,-0.58463 c -1.49926,-0.26679 -2.97093,-1.32446 -3.90464,-2.8062 -0.6472,-1.02705 -0.76061,-1.45322 -0.77126,-2.89825 -0.0107,-1.44501 0.0965,-1.8702 0.72857,-2.89153 1.10758,-1.78963 2.50351,-2.65386 4.473,-2.76925 1.99502,-0.1169 3.19172,0.26453 4.50691,1.43649 2.48362,2.21313 2.66939,5.88166 0.41602,8.21487 -1.43671,1.48762 -3.3457,2.0881 -5.4486,1.71387 z m -61.49825,-11.97373 c -2.68294,-0.97327 -4.2368,-3.13812 -4.24179,-5.90963 -0.006,-3.33335 2.76913,-6.10281 6.11528,-6.10281 5.3934,0 8.17989,6.44352 4.50141,10.40913 -1.58267,1.70621 -4.24528,2.37587 -6.3749,1.60331 z m 87.39855,0.32745 c -2.74987,-0.83442 -4.74705,-3.40082 -4.74705,-6.1 0,-1.96517 1.59709,-4.47028 3.46614,-5.4368 2.28318,-1.18069 5.25751,-0.68346 7.12362,1.19086 2.5157,2.52677 2.47094,6.29041 -0.10455,8.79169 -1.45897,1.41693 -3.95904,2.09411 -5.73816,1.55425 z m -68.95816,-4.02368 c -1.41732,-0.50632 -2.44562,-1.33455 -3.21171,-2.58684 -0.91795,-1.50051 -1.0123,-3.8515 -0.21646,-5.39384 0.98686,-1.91255 3.22911,-3.25905 5.39217,-3.23807 1.26725,0.0123 3.40266,1.02042 4.29126,2.02591 3.9526,4.47248 -0.6274,11.20333 -6.25526,9.19284 z m 46.502,-5.91091 c 0,-1.80328 0.41291,-2.91687 1.57036,-4.23513 0.86842,-0.98907 3.14366,-2.04432 4.40782,-2.04432 3.44719,0 6.28025,2.8029 6.28462,6.21771 0.003,2.42784 -1.23769,4.50687 -3.33795,5.59295 -4.52533,1.72196 -8.70808,-1.59375 -8.92485,-5.53121 z m -30.0925,-22.93276 c -1.48397,-0.54339 -2.46956,-1.30897 -3.23611,-2.51377 -1.88973,-2.9701 -0.81882,-6.79268 2.27927,-8.13583 3.84946,-1.66889 8.12175,0.64111 8.75648,4.73457 0.64302,4.14691 -3.67834,7.42411 -7.79964,5.91503 z m 18.41021,0.84731 c -3.51042,-1.14277 -5.24089,-4.94378 -3.78815,-8.32076 2.79274,-6.49191 12.63949,-3.83904 11.81074,3.182 -0.45065,3.81766 -4.36964,6.32792 -8.02259,5.13876 z m -25.22531,-18.1775 c -2.11645,-0.9595 -3.29407,-2.54648 -3.61226,-4.86792 -0.34426,-2.51167 1.32346,-5.39766 3.67408,-6.35802 1.43411,-0.58591 3.81886,-0.58566 5.05415,5.3e-4 1.36788,0.6491 2.99837,2.53122 3.36258,3.88149 1.37299,5.09038 -3.71957,9.50145 -8.47855,7.34393 z m 30.38931,0.46427 c -3.2111,-1.21648 -4.93036,-5.24016 -3.52927,-8.25972 1.05486,-2.27338 3.10545,-3.61906 5.54948,-3.64177 4.93856,-0.0459 7.95422,5.16163 5.39046,9.30841 -1.06659,1.72516 -2.85296,2.75921 -4.92219,2.84923 -0.8941,0.0389 -2.01393,-0.0764 -2.48848,-0.25615 z M 152.39891,139.534 c -2.72202,-0.73295 -4.45044,-3.05643 -4.45044,-5.98266 0,-3.47585 2.5663,-6.06347 6.02777,-6.07786 4.62491,-0.0192 7.49219,4.62606 5.4985,8.90811 -0.77453,1.66353 -2.27703,2.83739 -4.14436,3.23786 -1.54846,0.33209 -2.93147,-1.33124 -2.93147,-0.0855 z"
         sodipodi:nodetypes="ccsccsssssssssssssssccsccssccccsccscccsccssscscscscscccssssscsssccscssscsssssssssssccsccccsccsssssssssscssccssccscscsssscssssscssscssccsscssccsssssssssscsscssscsccscssscssssscscscccsscccsccscsscsscccccsscsscssscssccssssssscssscscsscsscssssssscccsscsssssscssscsssssssssscsssccssccssssscssccscssccsssccscssccsc" />
    </g>
  </g>
</svg>
