<svg xmlns="http://www.w3.org/2000/svg" width="217.298" height="156.602" viewBox="0 0 217.29787 156.60209"><path d="M89.954 155.043c-2.354-1.39-2.685-4.365-4.786-5.832-1.038-.796-1.585-1.98-2.295-3.02-.344-.5-.906-1.396-1.25-1.987-.343-.59-1.03-1.508-1.524-2.036-2.247-2.4-3.367-3.5-5.004-4.91-.968-.834-2.04-1.932-2.383-2.44-.658-.974-3.515-3.894-5.484-5.604-1.003-.872-1.262-1.244-1.812-2.607-.352-.875-.78-1.634-.954-1.687-.374-.116-.887-.36-1.68-.8-.67-.373-2.05-.38-3.462-.018-.71.182-1.27.184-2.443.01-1.98-.296-3.702-.126-3.834.378-.053.2-.2.365-.33.365s-.187-.126-.128-.28c.083-.215-.172-.308-1.13-.41-1.463-.157-2.643-.056-4.505.387-.752.18-1.984.404-2.736.5-.753.095-2.09.308-2.973.47-1.936.36-7.977.917-12.955 1.195-2.008.112-4.69.468-6.84.907-.593.12-1.78.238-2.64.26-3.66.094-6.785.533-10.553 1.48-4.605.838-7.583.358-7.75-3.024-.072-1.515-.237-3.987-.368-5.492-.18-2.077-.185-3.23-.018-4.788.12-1.128.222-2.71.225-3.518.002-.806.086-1.817.185-2.247.1-.43.197-1.88.216-3.225.02-1.343.166-3.146.325-4.006.282-1.52.345-3.024.264-6.262-.022-.864.05-1.81.162-2.1.13-.346.135-.702.013-1.022-.17-.447-.07-.605 1.098-1.71.708-.67 1.432-1.294 1.61-1.387.178-.092 1.147-.97 2.153-1.954 1.006-.983 2.192-2.14 2.635-2.57.443-.43 1.205-1.277 1.694-1.883.49-.607 1.23-1.398 1.648-1.76.418-.36 1.697-1.6 2.843-2.756 1.146-1.155 2.172-2.1 2.278-2.1.185 0 1.043-.774 3.657-3.294.63-.607 1.265-1.34 1.414-1.627.15-.29.436-.577.636-.64.2-.064.456-.312.57-.552.314-.66 1.5-2.006 3.488-3.953.988-.968 2.03-2.173 2.318-2.678.5-.88.525-1.057.59-4.317.038-1.87.157-3.742.265-4.162.108-.42.34-1.94.52-3.374.276-2.24.487-2.012.775-6.347.29-4.336-1.064-7.61 2.71-9.32.556-.246 1.717-.783 2.58-1.192.88-.417 1.74-.702 1.955-.648.21.053 1.79-.35 3.51-.9 1.72-.547 3.7-1.155 4.398-1.35.7-.197 2.414-.686 3.81-1.087 1.4-.4 3.114-.892 3.812-1.09 2.182-.62 9.96-2.548 12.292-3.047 3.018-1.165 3.162.108 4.395-2.8.068-.16.277-.53.464-.82.186-.29.813-1.29 1.393-2.22.757-1.216 1.227-1.766 1.665-1.95.336-.14.766-.425.955-.634.426-.472 1.005-.713 4.827-2.006 1.45-.49 4.742-.86 6.418-.72.752.064 1.924.33 2.605.595.68.263 1.52.57 1.864.683 1.14.37 2.488 1.418 3.362 2.61.852 1.165.87 1.176 1.637 1.053.426-.068 2.853-.165 5.392-.216 2.538-.05 5.846-.172 7.35-.27 1.506-.096 3.91-.188 5.346-.202 2.863-.028 5.677-.545 6.38-1.17.216-.192.568-.398.783-.457.214-.06 1.313-.467 2.442-.906 1.128-.44 2.14-.798 2.247-.798.183 0 2.86-.984 3.713-1.364.215-.095.83-.37 1.368-.608.538-.24 1.55-.635 2.248-.88 3.195-1.118 3.914-1.387 4.037-1.51.073-.073.283-.133.467-.133.184 0 .432-.116.55-.26.12-.143.593-.38 1.05-.523.46-.145.922-.327 1.03-.406.107-.077.537-.206.956-.284.418-.078 1.21-.31 1.76-.514 1.687-.63 10.44-3.642 13.31-4.582.86-.282 2.166-.766 2.903-1.075.737-.31 1.464-.562 1.615-.562.15 0 .648-.166 1.103-.37 1.18-.525 5.887-2.02 8.646-2.746 1.29-.34 3.446-.928 4.79-1.308 1.345-.382 2.706-.663 3.024-.627.505.058.612.184.837.985.158.562.482 1.106.836 1.404.32.267.58.604.58.75 0 .143.505.803 1.123 1.465s1.87 2.02 2.785 3.017c2.822 3.08 7.048 7.243 8.892 8.76.968.797 2.77 2.425 4.007 3.62 1.236 1.193 2.886 2.73 3.668 3.413.78.684 1.61 1.56 1.844 1.944.232.387 1.303 1.538 2.38 2.56 3.16 2.997 3.776 3.65 4.623 4.898 1.102 1.622 3.667 4.394 5.817 6.287l1.038.914-.223 1.522c-.53 3.63-.587 4.45-.364 5.405.15.64.158.99.024 1.075-.11.07-.192.52-.184 1.004.017.998-.35 2.983-.685 3.713-.127.276-.247 1.718-.276 3.322-.03 1.558-.19 4.592-.36 6.742-.17 2.15-.35 4.656-.402 5.57-.053.914-.18 2.453-.283 3.42-.102.968-.242 3.958-.31 6.645-.1 3.917-.06 5.504.208 8.012.385 3.607.443 6.292.208 9.5-.194 2.657-.073 3.605.48 3.75.4.104.467.698.48 4.24.003.593.09 1.208.193 1.37.103.16.194.79.202 1.4.015 1.067-.01 1.118-.635 1.417-.357.17-.782.308-.945.308-.446 0-4.84 1.773-5.065 2.044-.254.306-1.268.53-2.737.602-.644.032-1.557.198-2.027.368-.47.17-1.07.31-1.33.31s-.87.18-1.352.398c-.483.22-1.6.58-2.48.8-.883.22-1.693.467-1.8.552-.108.085-.46.202-.782.26-1.1.202-3.126.852-3.91 1.256-.43.22-1.88.682-3.224 1.023-1.343.343-3.107.79-3.918.995-1.318.334-4.775 1.504-6.342 2.147-.323.132-.894.308-1.27.39-.908.2-4.253 1.332-4.95 1.677-.305.15-.667.273-.805.273-.137 0-.9.272-1.694.606-.795.333-1.84.72-2.324.86-1.214.352-3.44 1.162-4.485 1.632-.643.29-1.108.362-1.79.282-.705-.084-1.126-.01-1.782.306-.473.23-.92.417-.995.417-.074 0-.59.22-1.147.488-.557.27-1.16.49-1.34.49-.368 0-2.33.756-2.62 1.01-.102.088-.414.16-.693.16-.28 0-.592.08-.694.177-.37.35-4.893 2.23-5.503 2.288-.345.033-1.026.24-1.515.46l-1.817.816c-.51.23-1.138.58-1.394.78-.255.202-.668.366-.916.366s-.498.077-.556.172c-.06.094-.526.276-1.038.404-.835.208-3.504 1.29-4.408 1.786-.193.106-.81.278-1.37.383-.56.105-1.255.366-1.546.58-.292.214-.667.39-.835.39-.51 0-2.76 1.096-3.052 1.488-.313.42-1.75 1.247-2.17 1.247-.155 0-.962.35-1.793.78-.83.43-1.65.783-1.824.783-.457 0-6.575 2.824-7.188 3.32-.108.086-1.178.65-2.378 1.252-1.2.602-2.216 1.196-2.258 1.32-.04.125-.39.238-.774.25-.385.014-.82.112-.968.217-.147.106-.575.356-.95.557-.378.202-1.01.62-1.407.927-.397.31-.796.562-.887.562-.09 0-.47.26-.842.577-.372.318-.738.582-.813.587-.2.01-1.885 1.168-2.02 1.386-.062.102-.274.185-.47.185-.195 0-.463.13-.596.29-.15.18-.416.25-.685.182-.317-.08-.636.06-1.127.49-.377.33-.746.6-.82.6-.358 0-2.37 1.058-3.553 1.87-3.09 2.582-4.063.84-5.44-.214zm3.712-1.898c.105-.237.41-.542.68-.678.27-.136 1.93-.95 3.69-1.808 1.76-.86 3.494-1.787 3.853-2.06.358-.275 2.17-1.243 4.03-2.154 1.857-.91 4.3-2.183 5.43-2.828 1.127-.646 3.106-1.69 4.396-2.322 1.29-.632 3.137-1.58 4.104-2.105 2.095-1.138 4.48-2.218 4.896-2.218.165 0 .406-.09.536-.198.61-.514 1.764-1.178 2.244-1.294.293-.07 1.224-.474 2.07-.895 1.454-.726 3.71-1.695 5.89-2.53.537-.206 1.24-.5 1.563-.652.32-.153 1.332-.56 2.246-.905.914-.345 1.75-.69 1.857-.768.447-.322 4.103-1.668 6.938-2.555 1.022-.32 2.21-.75 2.64-.957.758-.365 1.33-.594 5.862-2.347 1.182-.456 2.414-.942 2.736-1.078.323-.136 1.378-.57 2.345-.966.968-.395 2.267-.937 2.888-1.203.62-.267 1.437-.535 1.813-.596.376-.06.73-.187.79-.28.144-.235 1.398-.213 1.547.027.164.266.768.117 4.787-1.18.59-.19 1.867-.586 2.834-.878.968-.293 2.2-.69 2.737-.883.538-.192 1.285-.448 1.66-.568 2.507-.798 6.257-2.06 7.916-2.663 1.075-.39 2.395-.837 2.932-.992.537-.155 1.13-.365 1.316-.468.528-.29 10.646-3.885 12.072-4.29l3.03-.86c.967-.276 2.75-.832 3.962-1.235l2.204-.734-.11-2.25c-.062-1.238-.194-3.26-.295-4.498-.1-1.236-.232-3.258-.292-4.495-.142-2.983-.45-7.576-.694-10.382-.134-1.546-.132-3.73.007-6.84.215-4.796.666-11.283.888-12.777.05-.32.134-1.465.19-2.54.177-3.44.345-5.27.5-5.472.082-.107.255-1.206.384-2.443.13-1.236.34-2.555.466-2.93.155-.458.177-.977.065-1.565-.092-.483-.118-2.44-.058-4.345l.11-3.465-.475-.12c-.262-.065-.57-.06-.685.01-.324.2-.987-.084-.987-.424 0-.248.183-.287.984-.21 1.588.153 1.53-.3-.205-1.6-.64-.48-1.45-1.273-1.798-1.76-.348-.488-.777-1.02-.954-1.18-.176-.16-.995-1.186-1.82-2.277-.823-1.092-2.576-3.027-3.896-4.3-1.32-1.274-2.67-2.712-3-3.196-.63-.918-2.478-2.738-3.972-3.908-.48-.376-1.4-1.227-2.047-1.89-.646-.664-1.623-1.587-2.17-2.053-2.914-2.475-3.695-3.192-5.845-5.36-2.253-2.27-3.065-3.143-4.267-4.59-.303-.367-1.232-1.37-2.063-2.23-1.993-2.063-3.734-4.158-3.734-4.495 0-.578-.22-.544-4.397.683-1.183.348-2.414.7-2.736.782-.802.204-6.505 2.128-7.23 2.44-.324.137-1.07.404-1.663.592-1.298.413-3.24 1.182-3.908 1.55-.868.474-4.75 1.68-5.077 1.577-.174-.054-1.192.202-2.262.57-2.197.756-2.57.9-7.32 2.832-1.88.766-3.86 1.557-4.396 1.758-.538.202-1.9.725-3.03 1.163-2.65 1.03-5.42 2.013-8.11 2.882-2.62.846-3.42 1.183-3.42 1.442 0 .11-.154.2-.342.2-.188 0-.63.176-.982.39-.352.215-.794.39-.983.39-.188 0-.55.146-.802.323-.253.177-.725.315-1.05.305l-.59-.016.86.91c.473.5.945.974 1.05 1.05.104.08.13.2.06.272-.208.208-2.74-1.15-2.84-1.525-.108-.39-.907-.452-2.003-.154-.376.103-2.223.237-4.104.3-5.958.193-14.728.504-15.48.546-.4.02-.87.182-1.042.355-.29.29-.267.394.294 1.305.345.56.685 1.46.785 2.075.098.597.336 1.417.53 1.822 2.125 10.472-1.75 22.57-5.487 29.928-.256.498-.575 1.3-.71 1.785-1.075 3.95-2.584 7.34-4.767 10.126-1.154 1.473-2.414 2.997-3.817 3.06-2.743.122-11.697-10.3-14.253-15.493-2.887-5.377-2.473-10.834-2.468-16.064 0-4.305.068-6.014.27-6.743.388-1.403 1.79-4.804 2.21-5.352.426-.562.48-1.285.08-1.132-.353.135-1.4.418-3.342.902-.86.215-2.09.572-2.736.795-.645.222-2.844.805-4.886 1.295-2.042.49-5.42 1.462-7.508 2.16-2.997 1-3.884 1.226-4.218 1.074-.31-.142-.706-.096-1.482.173-.582.202-1.63.514-2.33.693-.698.18-1.665.5-2.15.712-.482.212-1.274.498-1.758.637-1.066.304-3.203 1.093-4.006 1.48-.322.153-.73.587-.906.962-.428.91-.606 3.88-.324 5.42.176.968.17 1.318-.033 1.697-.14.262-.203.675-.14.92.064.242.044.534-.044.647-.198.254.04 3.247.467 5.874.378 2.332.39 2.973.06 3.37-.22.266-.427 1.428-.633 3.568-.036.376-.086.772-.11.88-.024.107-.03.34-.012.52.017.178-.06.38-.173.45-.114.07-.206.37-.206.665 0 .763-.635 1.976-1.4 2.673-.36.328-.802.877-.985 1.222-.275.515-.45.626-.995.626-.562 0-.833.187-1.817 1.254-.636.69-1.244 1.37-1.35 1.515-.11.143-.455.612-.77 1.042-.317.43-.91 1.13-1.32 1.56-.41.43-.745.842-.745.918 0 .075-.374.49-.83.92-.457.432-1.975 1.898-3.372 3.258-1.396 1.36-2.835 2.7-3.195 2.98-.36.278-.713.652-.782.83-.07.18-.786.92-1.592 1.65-.805.73-2.872 2.667-4.592 4.305-1.72 1.638-3.585 3.34-4.146 3.783l-1.02.804.115 1.613c.508 2.994-.06 7.768-.54 10.664-.24 1.415-.355 2.69-.28 3.093.083.44.04.793-.117.983-.186.224.12 1.913-.256 6.938-.607 8.142.195 10.552 8.35 10.038 1.637-.084 3.767-.182 4.735-.218.966-.036 2.065-.15 2.442-.256.376-.105 3.058-.372 5.96-.595 2.903-.222 5.585-.487 5.96-.59.377-.102 1.697-.325 2.933-.496 1.236-.17 3.04-.434 4.006-.584.97-.15 2.727-.327 3.91-.392 4.796-.263 9.444-.734 11.89-1.205.844-.164 1.747-.243 2.008-.177.26.065.655.022.875-.096.43-.23 3.667-.426 7.585-.46l2.423-.02.554-.878c.305-.485.555-.95.557-1.037.007-.233 1.043-1.1 1.324-1.108.417-.01.27.75-.368 1.91-.336.612-.698 1.222-.804 1.355-.698.882 1.466 4.26 4.915 7.673 1.357 1.344 3.16 3.3 4.004 4.35.845 1.047 1.606 1.904 1.692 1.904.086 0 .336.293.557.65.22.358.626.907.9 1.222.275.313.563.658.64.766.078.107.515.647.972 1.2.457.552.83 1.057.83 1.123 0 .13.124.284 1.51 1.878.514.59 1.145 1.382 1.402 1.758.257.377.676.904.93 1.173.256.268 1.088 1.218 1.85 2.11.76.892 1.715 1.83 2.12 2.087.636.402 2.35 2.61 2.35 3.026 0 .08.264.507.585.95.614.85.958.898 1.276.182zm71.297-36.132c-.728-.55-1.662-1.216-2.076-1.477-.793-.5-1.325-1.434-1.165-2.044.052-.2.13-.363.172-.363.157 0 3.908 3.12 4.54 3.777.636.66.686 1.107.124 1.107-.15 0-.867-.45-1.595-1zm-94.75-1.536c-.223-.358.138-1.575.55-1.865.46-.32 1.108-.385 1.108-.11 0 .1-.224.628-.498 1.174-.472.94-.894 1.23-1.16.8zm89.782-4.226c-.143-.17-.767-.657-1.387-1.078-1.063-.72-1.527-1.245-1.527-1.72 0-.38.593-.217 1.622.446 1.26.812 1.62 1.22 1.793 2.032.146.69-.076.832-.5.32zm-86.95-.722c0-.884.447-1.476.904-1.196.494.303.506.497.073 1.207-.515.844-.98.838-.98-.013zm81.518-3.93c-.792-.584-1.18-1.085-1.19-1.53-.01-.564.49-.394 1.58.536.566.484 1.1.88 1.188.88.088 0 .16.132.16.293 0 .46-1.012.357-1.737-.178zm-77.114-2.9c.485-1.61 1.26-2.295 1.26-1.114 0 .394-.175.76-.516 1.075-.645.597-.917.61-.745.04zm71.524-2.096c-.32-.21-.816-.435-1.1-.498-.783-.17-2.078-1.373-2.23-2.068-.248-1.125.19-1.098 1.47.09.657.607 1.273 1.104 1.37 1.104.255 0 1.364 1.23 1.365 1.515 0 .337-.197.305-.876-.143zm-69.677-2.16c0-.74.416-1.76.872-2.138.318-.264 1.57-.778 1.912-.784.297-.006.13.335-.52 1.067-.367.412-.78.978-.92 1.257-.637 1.28-1.345 1.593-1.345.598zm63.395-4.057c-.864-.473-2.34-1.638-2.602-2.052-.25-.396-.122-.725.283-.725.664 0 3.614 2.345 3.614 2.873 0 .348-.56.306-1.295-.095zm-59.67-.713c-.288-.346-.018-.927.744-1.598.562-.495 1.395-.62 1.395-.208 0 .142-.197.442-.44.666-.24.225-.597.636-.79.915-.4.578-.58.622-.91.225zm54.064-2.94c-1.827-.282-2.17-.548-1.984-1.54.16-.847.35-.886.946-.192.245.285.966.703 1.6.928.733.26 1.178.534 1.22.752.036.188-.006.33-.095.314-.09-.015-.848-.133-1.687-.262zM84.38 89.446c-.85-.243-.89-.283-.62-.61.26-.313 1.903-.298 2.22.018.322.322.028.824-.47.805-.247-.01-.755-.107-1.13-.214zm-5.64-.956c-.755-.302-1.592-.97-1.592-1.27 0-.48 1.037-.317 2.048.324.7.444 1.123.584 1.6.528.724-.085.852.115.273.425-.463.247-1.706.243-2.33-.006zm52.896.077c-.438-.116-.868-1.385-.57-1.683.156-.156.36-.078.753.29.296.277.824.648 1.173.824.35.176.635.406.635.51 0 .19-1.35.228-1.992.06zm-44.39-.39c-.303-.302-.085-.653.602-.967.403-.185.8-.37.88-.412.353-.184.1.596-.334 1.03-.474.475-.896.603-1.15.35zm-14.642-2.1c-.51-.137-1.107-.41-1.326-.608-.355-.323-.366-.39-.098-.66.268-.266.41-.242 1.378.233.595.29 1.293.53 1.553.53.68 0 .804.357.203.586-.608.23-.537.233-1.71-.082zm55.357-.993c-.133-.162-.352-.293-.485-.293-.134 0-.475-.182-.758-.405-.633-.497-.736-1.55-.153-1.55.375 0 2.374 1.967 2.374 2.335 0 .31-.7.25-.977-.086zm-37.715-.733c.005-.905.237-1.262 1.09-1.677.87-.423 1.538-.553 1.415-.277-.036.08-.46.652-.945 1.27-.922 1.178-1.565 1.46-1.56.685zm-23.048-1.244c-.676-.86.024-1.198.96-.465.27.21.6.385.734.387.135.002.245.137.245.298 0 .21-.216.293-.768.293-.595 0-.858-.115-1.17-.512zm92.653-3.143c-3.552-3.375-5.746-6.577-8.552-10.253-.44-.574-1.29-1.79-1.89-2.704-.6-.914-1.21-1.796-1.35-1.96-3.244-4.62-3.226-12.567-1.848-17.696.6-2.124 1.5-4.32 1.88-4.578.077-.054.278-.362.445-.684.687-1.326 4.39-4.527 6.982-6.036 1.67-.972 2.322-1.237 4.31-1.753 4.683-1.215 10.908-.674 13.017 1.13.794.68 1.673 2.24 2.003 3.553.815 3.248.834 3.388.62 4.385-.116.543-.214 1.532-.218 2.2-.005.665-.132 1.694-.284 2.285-.592 2.31-.734 2.874-1 3.974-.15.628-.543 1.754-.872 2.504-.33.75-.573 1.565-.54 1.81.032.244-.095.597-.28.783-.188.187-.34.428-.34.537 0 .203-.896 2.393-1.547 3.78-1.413 3.012-2.518 5.67-2.844 6.84-.347 1.25-1.153 3.395-1.578 4.203-.558 1.06-2.2 4.63-2.425 5.276-.443 1.266-1.436 3.037-1.897 3.386-.456.343-.465.34-1.793-.983zm3.953-7.812c.15-.625.41-1.533.575-2.017.165-.484.404-1.275.53-1.76.61-2.326 2.67-5.602 3.706-7.717.695-1.42.836-2.042 1.31-3.04.38-.8 1.228-1.742 1.228-2.358 0-.127.304-.862.675-1.634.8-1.66 1.658-5.006 1.885-7.334.454-4.674.454-4.686-.078-6.352-.94-2.945-1.307-3.524-2.677-4.212-1.776-.892-5.968-1.248-8.964-.762-2.035.33-4.728 1.29-6.085 2.168-3.034 1.964-5.674 4.395-6.405 5.9-.166.34-.465.855-.665 1.143-.494.712-1.64 4.564-2.03 6.817-1.28 5.98.372 8.477 2.277 12.117 0 .185 2.075 2.357 3.42 3.664 5.727 8.1 8.42 12.795 11.298 5.377zm-6.287-8.996c-.6-.115-.958-.736-1.115-1.934-.13-.997-.13-1 .61-1.436.58-.34.91-.41 1.52-.312.883.14 1.287.408 1.287.85 0 .165.15.468.335.672.303.335.308.42.043.892-.283.506-1.644 1.424-2.04 1.377-.107-.013-.395-.062-.64-.11zm1.096-8.84c-2.433-.474-2.662-2.844-.48-4.97.54-.527 1.4-1.214 1.91-1.528.51-.314.982-.742 1.05-.95.065-.21.204-.38.308-.38.284 0 .957-1.703.957-2.42 0-.553-.107-.682-.884-1.06-1.525-.816-1.79-.417-2.846-.408-3.488.125-3.57 2.435-5.538 3.105-1.487 0-.257-1.965 2.036-3.256 1.464-.825 2.18-1.026 4.007-1.13 1.517-.086 1.61-.065 3.156.71 1.022.51 1.67.966 1.807 1.27.358.784.247 1.896-.29 2.915-.615 1.165-1.166 1.766-2.818 3.074-2.003 1.584-2.538 2.22-2.54 3.01-.002.586.625.724 2.596.572 1.464-.113 1.61-.165 2.078-.74.92-1.128 1.454-1.557 1.86-1.498.505.072.65.96.217 1.32-.47.77-1.003 1.43-1.475 1.765-1.252.626-3.575.898-5.113.6zm-97.65 25.682c-.865-.392-1.03-.548-.978-.915.035-.243.195-.466.356-.496.403-.076 2.736 1.33 2.736 1.65 0 .397-.952.29-2.115-.238zm61.69.304c-1.336-.403-2.132-1.616-.964-1.468.548.07 2.327 1.214 2.352 1.512.015.185-.706.162-1.39-.044zm-28.306-.496c0-.38.24-.643 1.065-1.172.588-.375 1.115-.682 1.174-.682.34 0 0 .71-.7 1.47-.917.996-1.538 1.15-1.538.384zM53.94 77.366c-.71-.432-.774-.62-.338-.983.242-.2.435-.188 1.026.066.4.172 1.102.408 1.56.523.502.127.83.323.83.496 0 .46-2.276.385-3.078-.104zm63.418-.995c-.188-.108-.342-.38-.342-.6 0-.34.083-.382.527-.27.92.23 1.82.664 1.82.877 0 .262-1.552.258-2.005-.006zm-18.712-.637c0-.537.373-.907 1.51-1.495 1.322-.683 1.412-.374.247.843-1.14 1.193-1.757 1.422-1.757.653zm-50.57-1.73c-.808-.415-1.035-.79-.63-1.04.313-.192 1.54.29 1.756.69.47.88.122.988-1.125.35zm66.595-.57c-.59-.22-1.336-.43-1.656-.465-.96-.11-2.242-1.858-1.36-1.858.167 0 .697.22 1.18.49.48.267.952.487 1.047.487.36 0 2.347 1.28 2.35 1.515.006.333-.3.3-1.56-.168zM40.456 70.2c-.832-.47-1.222-.808-1.222-1.062 0-.742 1.617-.248 2.81.86 1.185 1.096.22 1.22-1.588.2zm63.467.305c0-.705.62-1.5 1.576-2.02 1.737-.946 2.05-.58.574.67-.537.457-.977.948-.977 1.093 0 .265-.58.667-.964.667-.114 0-.208-.185-.208-.41zm5.123-1.664c.06-.638.15-.768.553-.812.283-.03.722.144 1.067.425.734.6.51.9-.78 1.045l-.913.103zm-72.84-1.28c-.323-.108-.93-.184-1.35-.17-.754.026-.76.02-.467-.423.407-.616.973-.654 2.012-.135 1.32.658 1.177 1.184-.196.727zm72.735-1.678c-.204-.347.3-1.038 1.023-1.408 1.574-.803 1.88-.31.518.83-.83.695-1.355.892-1.54.578zm5.145-4.443c0-.376.164-.556.714-.786.8-.334 1.052-.242.69.254-.134.183-.295.486-.36.675-.065.198-.31.342-.58.342-.365 0-.465-.105-.465-.486zm4.044-2.797c-.63-.132-.3-.866.645-1.433 1.96-1.176 2.402-.795.733.63-.61.522-1.17.847-1.38.803zm5.147-4.39c.01-.606.716-1.39 1.696-1.882.77-.386 1.424-.533 1.424-.32 0 .05-.56.667-1.244 1.368-1.303 1.336-1.888 1.596-1.876.836zm3.976-3.557c-.176-.46.08-.67 1.22-1.002 1.635-.475 1.706-.09.145.782-1.04.582-1.215.61-1.365.22zm4.734-3.547c-.16-.416.182-.768.913-.938.634-.15.955.33.51.764-.473.464-1.275.56-1.423.173zm4.33-3.145c-.19-.05-.343-.216-.343-.372 0-.21.14-.25.537-.153.667.16.707.192.547.452-.134.216-.177.22-.74.073zm7.772-.835c-.228-.367.64-.942 1.625-1.078 1.06-.146 1.398-.05 1.398.398 0 .166-.19.282-.464.282-.256 0-.838.132-1.295.293-.977.345-1.11.356-1.266.105zm-3.296-.137c-.317-.318-.083-.583.505-.572.35.008.964-.055 1.367-.14.56-.116.733-.09.733.11 0 .484-2.213.995-2.606.603zm-2.76-.72c-.26-.19-.324-.4-.232-.768.108-.43-.003-.612-.753-1.226-.96-.787-1.028-.947-.588-1.387.16-.16.294-.22.295-.133 0 .09.31.37.686.627.522.356.713.647.806 1.228.073.464.3.903.583 1.125.255.2.463.46.463.58 0 .3-.828.27-1.262-.046zm38.813-.052c-.248-.173-.377-.39-.287-.48.205-.204 3.906-.313 4.1-.12.267.268-.23.504-1.495.708-1.667.27-1.788.264-2.318-.107zm6.252-.337c-.396-.476-.07-.773.71-.646.378.06.828.036 1-.057.492-.262 2.172-.47 2.172-.268 0 .3-1.765 1.057-2.725 1.17-.68.082-.966.032-1.158-.2zm5.783-1.034c-.136-.712-.064-.775.562-.49.433.198.7.157 1.774-.273.694-.278 1.454-.478 1.688-.443.62.09-2.077 1.53-3.114 1.663-.76.096-.81.072-.91-.458zm10.12-.68c-.43-.09-1.215-.146-1.743-.12-1.114.05-1.447-.328-.466-.53.846-.176 1.305-.197 3.234-.15 1.663.04 2.01.23 1.074.59-.903.345-1.287.384-2.1.21zm4.97-.2c-.273-.507.095-.83.624-.547.187.1 1.05.182 1.916.182 1.2 0 1.576.063 1.576.267 0 .3-1.195.515-2.855.515-.86 0-1.08-.072-1.263-.416zm5.224.286c-.377-.377-.083-.65.7-.654.457 0 .955-.08 1.106-.177.305-.193.8-.07.8.198 0 .44-2.253.986-2.606.633zm-74.627-2.94c-.564-.35-.833-.957-.513-1.154.293-.182 1.223.586 1.295 1.07.075.5-.083.517-.782.083zm-2.438-2.772c-.218-.203-.675-.513-1.014-.69-.44-.226-.617-.456-.617-.8 0-.267.083-.485.183-.485.376 0 1.534.9 1.843 1.432.545.94.338 1.224-.394.542zm-3.73-3.457c-.35-.153-.637-.365-.637-.473 0-.465 1.64-.006 1.84.516.13.34-.368.323-1.204-.043zm-2.317-2.8c-.78-.353-1.17-.85-.947-1.207.21-.342.615-.173 1.423.596.448.425.815.82.815.88 0 .197-.488.096-1.29-.268zm-2.96-2.69c-.44-.307-.604-.845-.257-.845.302 0 1.575.806 1.575.996 0 .28-.838.185-1.32-.15zm-33.018 33.16c3.354-8.62 7.56-16.933 6.16-25.015-.087-.484-.198-1.627-.247-2.54-.048-.914-.313-2.54-.588-3.616-.275-1.074-.507-2.174-.515-2.443-.033-1.1-.773-2.347-2.253-3.798-.227-.222-.563-.698-.747-1.056-.232-.453-.616-.773-1.25-1.043-.502-.215-1.178-.507-1.5-.65-4.157-1.02-15.322.493-15.703 5.948.017.275-.423 1.413-.977 2.53-3.432 5.243-3.76 11.6-3.833 18.49-.004 3.982.614 8.703 3.115 12.02.137.16.316.513.396.782.08.27.618 1.045 1.196 1.725.577.68 1.05 1.315 1.05 1.41 8.76 11.88 10.29 11.145 15.695-2.744zm-9.27-9.626c-1.59-1.336-4.764-3.635-6.81-4.932-1.415-.898-1.595-1.09-1.53-1.643.773-2.05 6.198 2.843 6.627 3.144.73.51 1.633 1.14 1.995 1.416.36.276.745.502.85.502.224 0 1.138-1.792 1.53-2.998.454-1.393 1.838-4.647 2.715-6.383.462-.914.954-2.008 1.093-2.43.14-.425.614-1.48 1.056-2.35.44-.866 1.153-2.323 1.58-3.235.908-1.937 1.734-3.23 2.17-3.397 2.733-.19.23 2.383-.33 3.49-.432.862-.897 1.7-1.034 1.862-.136.162-.367.602-.512.98-.145.375-.586 1.386-.98 2.246-1.358 3.852-4.607 8.764-4.94 12.703-.085 1.134-.815 2.444-1.36 2.442-.254-.002-1.138-.592-2.12-1.417z"/></svg>