<?xml version="1.0" encoding="UTF-8" standalone="no"?>
<!-- Created with Inkscape (http://www.inkscape.org/) -->

<svg
   xmlns:dc="http://purl.org/dc/elements/1.1/"
   xmlns:cc="http://creativecommons.org/ns#"
   xmlns:rdf="http://www.w3.org/1999/02/22-rdf-syntax-ns#"
   xmlns:svg="http://www.w3.org/2000/svg"
   xmlns="http://www.w3.org/2000/svg"
   xmlns:sodipodi="http://sodipodi.sourceforge.net/DTD/sodipodi-0.dtd"
   xmlns:inkscape="http://www.inkscape.org/namespaces/inkscape"
   id="svg4190"
   version="1.1"
   inkscape:version="0.91 r13725"
   width="217.29787"
   height="156.6021"
   viewBox="0 0 217.29787 156.60209"
   sodipodi:docname="quizzity.svg">
  <metadata
     id="metadata4196">
    <rdf:RDF>
      <cc:Work
         rdf:about="">
        <dc:format>image/svg+xml</dc:format>
        <dc:type
           rdf:resource="http://purl.org/dc/dcmitype/StillImage" />
        <dc:title></dc:title>
      </cc:Work>
    </rdf:RDF>
  </metadata>
  <defs
     id="defs4194" />
  <sodipodi:namedview
     pagecolor="#ffffff"
     bordercolor="#666666"
     borderopacity="1"
     objecttolerance="10"
     gridtolerance="10"
     guidetolerance="10"
     inkscape:pageopacity="0"
     inkscape:pageshadow="2"
     inkscape:window-width="1920"
     inkscape:window-height="1176"
     id="namedview4192"
     showgrid="false"
     inkscape:zoom="2.0960665"
     inkscape:cx="191.72291"
     inkscape:cy="82.478265"
     inkscape:window-x="1920"
     inkscape:window-y="0"
     inkscape:window-maximized="0"
     inkscape:current-layer="svg4190"
     fit-margin-top="0"
     fit-margin-left="0"
     fit-margin-right="0"
     fit-margin-bottom="0" />
  <path
     style="fill:#000000"
     d="m 89.953999,155.04289 c -2.353551,-1.39111 -2.684576,-4.36483 -4.785719,-5.83235 -1.037954,-0.7964 -1.584853,-1.98007 -2.294866,-3.01968 -0.344247,-0.50223 -0.906835,-1.39686 -1.25014,-1.98806 -0.343355,-0.59118 -1.029088,-1.50737 -1.523895,-2.03598 -2.24624,-2.39968 -3.366728,-3.49924 -5.003766,-4.91039 -0.967405,-0.8339 -2.039583,-1.93154 -2.382607,-2.43919 -0.658073,-0.97389 -3.515036,-3.89385 -5.48374,-5.60464 -1.002676,-0.87134 -1.261433,-1.24382 -1.81084,-2.60676 -0.352549,-0.87457 -0.781881,-1.6335 -0.954083,-1.68653 -0.374391,-0.11526 -0.887714,-0.35955 -1.68115,-0.80013 -0.669623,-0.3718 -2.049787,-0.37848 -3.461313,-0.0168 -0.710055,0.18197 -1.268906,0.18396 -2.44294,0.009 -1.979868,-0.29542 -3.701371,-0.12553 -3.833125,0.3783 -0.05253,0.20084 -0.201095,0.36518 -0.330145,0.36518 -0.12905,0 -0.186492,-0.12547 -0.127643,-0.27885 0.08283,-0.21584 -0.172311,-0.30873 -1.129318,-0.41122 -1.463388,-0.15672 -2.6438,-0.0553 -4.505766,0.38727 -0.752425,0.17882 -1.983668,0.40355 -2.736093,0.49939 -0.752425,0.0958 -2.090203,0.30814 -2.972835,0.47175 -1.936294,0.35893 -7.977196,0.91559 -12.955133,1.19379 -2.006916,0.11216 -4.690007,0.46793 -6.840232,0.907 -0.591184,0.1207 -1.77846,0.23763 -2.638375,0.2598 -3.660189,0.0944 -6.785182,0.53287 -10.5535008,1.48073 -4.6051726,0.83754 -7.58243248,0.35771 -7.75072564,-3.02403 -0.0708101,-1.51576 -0.23580429,-3.98715 -0.36665205,-5.49201 -0.1806603,-2.07796 -0.1848817,-3.22968 -0.0175266,-4.78816 0.12120108,-1.12863 0.22232707,-2.71165 0.22473483,-3.51783 0.002345,-0.80616 0.0860384,-1.81755 0.18583541,-2.2475 0.099797,-0.42996 0.19701434,-1.88106 0.21602621,-3.22468 0.0190429,-1.34361 0.16505679,-3.14651 0.32450064,-4.00643 0.2817862,-1.51967 0.3451542,-3.02369 0.2638218,-6.261767 -0.021701,-0.86423 0.051157,-1.80965 0.1618986,-2.10093 0.1313168,-0.34541 0.1362731,-0.70073 0.014228,-1.02168 -0.1699035,-0.44686 -0.068933,-0.60407 1.098299,-1.71007 0.7069751,-0.66987 1.4309452,-1.29358 1.6088381,-1.38604 0.177893,-0.0924 1.1466105,-0.97189 2.1527109,-1.95435 1.0061004,-0.98244 2.1917668,-2.13806 2.6348104,-2.56801 0.4430436,-0.42996 1.2057252,-1.27798 1.6948602,-1.88449 0.48912,-0.60652 1.23071,-1.39803 1.647973,-1.75892 0.417262,-0.36089 1.696518,-1.60158 2.842784,-2.75708 1.146283,-1.15552 2.171488,-2.10093 2.278259,-2.10093 0.183881,0 1.041935,-0.77328 3.655185,-3.29402 0.629067,-0.6068 1.265701,-1.3389 1.414764,-1.62688 0.149046,-0.28798 0.434507,-0.57549 0.634351,-0.63892 0.199844,-0.0634 0.456348,-0.31151 0.570014,-0.5513 0.313759,-0.66188 1.50016,-2.00646 3.488722,-3.953791 0.98787,-0.967404 2.030837,-2.172368 2.317673,-2.677666 0.500299,-0.881324 0.524345,-1.057215 0.590261,-4.316818 0.03779,-1.86894 0.156865,-3.742086 0.26462,-4.16257 0.107739,-0.420483 0.34112,-1.938719 0.518591,-3.373882 0.276877,-2.238848 0.488306,-2.011864 0.776721,-6.347168 0.2884,-4.335297 -1.064433,-7.609194 2.709389,-9.318686 0.555771,-0.246699 1.717063,-0.783633 2.580621,-1.193188 0.879583,-0.417132 1.739091,-0.701939 1.954351,-0.647574 0.211336,0.05335 1.791375,-0.351178 3.511204,-0.898991 1.71983,-0.547827 3.698619,-1.156381 4.397292,-1.352332 0.698689,-0.195966 2.413625,-0.684525 3.810987,-1.085681 1.397362,-0.401171 3.112313,-0.891794 3.810986,-1.090276 2.181761,-0.619828 9.959659,-2.54813 12.291482,-3.047323 3.019834,-1.164398 3.16358,0.108067 4.396823,-2.799567 0.06789,-0.161244 0.276377,-0.530347 0.463291,-0.820252 0.18693,-0.289882 0.814434,-1.289138 1.394487,-2.220549 0.756972,-1.215577 1.226894,-1.765468 1.665166,-1.948585 0.335791,-0.140307 0.765262,-0.426077 0.954369,-0.635035 0.42589,-0.470591 1.005094,-0.71115 4.827263,-2.004825 1.450053,-0.490788 4.741817,-0.859632 6.417919,-0.719102 0.751788,0.06298 1.923865,0.33055 2.604637,0.594512 0.680786,0.263962 1.519955,0.571655 1.864842,0.68377 1.138139,0.369987 2.487093,1.417877 3.361737,2.611503 0.85278,1.163808 0.86995,1.174831 1.637556,1.052081 0.426631,-0.06823 2.853076,-0.165637 5.392086,-0.216479 2.539,-0.05083 5.84763,-0.17195 7.35248,-0.269153 1.50485,-0.09719 3.91013,-0.188388 5.34502,-0.202645 2.86265,-0.02847 5.67659,-0.545045 6.38109,-1.171409 0.21498,-0.191119 0.56676,-0.396339 0.78174,-0.456031 0.21498,-0.05968 1.31406,-0.467578 2.44243,-0.906432 1.12836,-0.438854 2.13974,-0.798315 2.2475,-0.798811 0.18426,0 2.8599,-0.983043 3.71378,-1.363262 0.21498,-0.09574 0.83061,-0.369498 1.36805,-0.608353 0.53745,-0.238854 1.54882,-0.634431 2.24751,-0.879038 3.19482,-1.118547 3.91331,-1.387477 4.03686,-1.51106 0.0728,-0.07281 0.28288,-0.132391 0.46677,-0.132391 0.18392,0 0.43184,-0.117436 0.55094,-0.260965 0.11913,-0.143506 0.59161,-0.379219 1.04998,-0.523783 0.45838,-0.144556 0.92134,-0.327077 1.02883,-0.405578 0.10749,-0.07852 0.53762,-0.206708 0.95585,-0.284871 0.41823,-0.07817 1.20974,-0.309454 1.75892,-0.513962 1.68872,-0.628844 10.44233,-3.6425179 13.31092,-4.5826279 0.85991,-0.281816 2.16631,-0.76532 2.90313,-1.07445 0.73681,-0.309117 1.46331,-0.562042 1.61447,-0.562042 0.15116,0 0.64763,-0.166278 1.10329,-0.369499 1.17914,-0.525875 5.88676,-2.021333 8.64588,-2.746489 1.28987,-0.339013 3.44542,-0.927773 4.79011,-1.30837203 1.34469,-0.380579 2.70539,-0.662114 3.02379,-0.62561 0.50474,0.05788 0.61197,0.183973 0.83711,0.984431 0.15817,0.56232203 0.48213,1.10647403 0.83605,1.40428803 0.31783,0.26742 0.57785,0.604441 0.57785,0.74894 0,0.144499 0.50569,0.804441 1.12375,1.466547 0.61806,0.662099 1.8713,2.019472 2.78495,3.016363 2.82235,3.0794769 7.04843,7.2430169 8.89231,8.7606849 0.9674,0.79628 2.77028,2.424525 4.00642,3.618352 1.23613,1.193813 2.88675,2.730089 3.66807,3.413924 0.7813,0.683849 1.61116,1.558882 1.84412,1.944536 0.23298,0.385648 1.30426,1.536665 2.38065,2.557822 3.16033,2.998114 3.77613,3.650557 4.62392,4.899014 1.10158,1.622126 3.66619,4.394198 5.81688,6.287397 l 1.03761,0.913407 -0.22298,1.523205 c -0.53135,3.629309 -0.58654,4.449993 -0.36348,5.405066 0.14944,0.639802 0.15696,0.991024 0.023,1.074889 -0.10943,0.06852 -0.19228,0.52031 -0.1841,1.004023 0.0168,0.997955 -0.34933,2.983338 -0.68482,3.713268 -0.12709,0.276473 -0.24717,1.718797 -0.27661,3.322401 -0.0286,1.558587 -0.19008,4.592724 -0.35879,6.742508 -0.1687,2.149792 -0.34972,4.656241 -0.40224,5.569906 -0.0525,0.913651 -0.17961,2.452706 -0.28244,3.420116 -0.10283,0.9674 -0.24278,3.95756 -0.31102,6.6448 -0.0995,3.91799 -0.0581,5.50531 0.20907,8.01282 0.38427,3.60664 0.44295,6.2921 0.20757,9.49945 -0.19506,2.65814 -0.0741,3.60576 0.47865,3.75032 0.39975,0.10453 0.46709,0.698437 0.48111,4.241677 0.002,0.5912 0.0888,1.20682 0.19212,1.36805 0.10332,0.16124 0.19447,0.79134 0.20256,1.40023 0.0141,1.06722 -0.009,1.11824 -0.63501,1.41691 -0.35735,0.1704 -0.78279,0.30982 -0.94544,0.30982 -0.4464,0 -4.84128,1.77297 -5.06548,2.0435 -0.25334,0.30571 -1.26776,0.52905 -2.73609,0.60236 -0.64494,0.0322 -1.55745,0.19759 -2.02777,0.36755 -0.47036,0.16995 -1.06883,0.30899 -1.32993,0.30899 -0.2611,0 -0.86957,0.17988 -1.35218,0.39972 -0.48258,0.21984 -1.59906,0.57924 -2.48105,0.79866 -0.88201,0.21941 -1.6916,0.46822 -1.79908,0.55291 -0.1075,0.0847 -0.45928,0.20212 -0.78175,0.26097 -1.10063,0.20091 -3.12569,0.85096 -3.9087,1.25471 -0.42996,0.2217 -1.88107,0.68234 -3.22468,1.02361 -1.34362,0.34129 -3.10697,0.78859 -3.91857,0.99402 -1.31799,0.3336 -4.77431,1.50362 -6.34178,2.1468 -0.32247,0.13233 -0.89412,0.30806 -1.27033,0.39056 -0.90793,0.19906 -4.25241,1.33168 -4.95057,1.67651 -0.30431,0.15032 -0.66598,0.27329 -0.80373,0.27329 -0.13774,0 -0.90013,0.27297 -1.69421,0.60662 -0.79408,0.33362 -1.83955,0.72121 -2.32325,0.86128 -1.21377,0.35147 -3.44083,1.16139 -4.4852,1.63112 -0.6438,0.28956 -1.10907,0.36279 -1.79153,0.28198 -0.70383,-0.0834 -1.12522,-0.0108 -1.78158,0.30698 -0.47283,0.22889 -0.92029,0.41616 -0.99437,0.41616 -0.0741,0 -0.59045,0.21987 -1.14749,0.48859 -0.55704,0.26873 -1.16049,0.48858 -1.34103,0.48858 -0.36666,0 -2.32938,0.75718 -2.61808,1.01001 -0.10211,0.0894 -0.41432,0.1626 -0.69379,0.1626 -0.27947,0 -0.59169,0.079 -0.6938,0.17546 -0.37041,0.35 -4.89231,2.23038 -5.50234,2.28807 -0.34444,0.0326 -1.02602,0.23915 -1.51463,0.45906 -0.4886,0.2199 -1.30613,0.58735 -1.8167,0.81661 -0.51057,0.22922 -1.13806,0.581 -1.39441,0.78173 -0.25633,0.20071 -0.6689,0.36496 -0.91678,0.36496 -0.24789,0 -0.49837,0.0771 -0.55663,0.1714 -0.0582,0.0943 -0.52517,0.27611 -1.03757,0.4041 -0.83527,0.20864 -3.50356,1.28984 -4.40842,1.78629 -0.19244,0.10558 -0.80806,0.27797 -1.36805,0.38312 -0.56002,0.10512 -1.25651,0.36602 -1.54775,0.57975 -0.29123,0.21373 -0.66694,0.38861 -0.8349,0.38861 -0.51129,0 -2.76191,1.09791 -3.05289,1.48929 -0.3126,0.42045 -1.7514,1.2468 -2.17085,1.2468 -0.15455,0 -0.96078,0.35178 -1.79167,0.78173 -0.83086,0.42996 -1.65177,0.78175 -1.82424,0.78175 -0.45857,0 -6.5766,2.82417 -7.18965,3.31886 -0.10749,0.0867 -1.1774,0.65041 -2.37759,1.2526 -1.20019,0.60222 -2.21608,1.19669 -2.25756,1.3211 -0.0414,0.12439 -0.39013,0.2371 -0.77486,0.25043 -0.38472,0.0133 -0.81993,0.11067 -0.96714,0.2162 -0.1472,0.10555 -0.57547,0.3561 -0.95167,0.55679 -0.37622,0.2007 -1.00867,0.61754 -1.40544,0.92632 -0.39679,0.30878 -0.79587,0.56141 -0.88684,0.56141 -0.091,0 -0.46993,0.26027 -0.84208,0.57838 -0.37214,0.31809 -0.73817,0.58192 -0.81342,0.5863 -0.19937,0.0116 -1.88491,1.16872 -2.01942,1.38637 -0.0629,0.10177 -0.27429,0.18504 -0.46978,0.18504 -0.19547,0 -0.46417,0.13108 -0.59713,0.29126 -0.1474,0.17761 -0.41425,0.24798 -0.68387,0.18029 -0.31707,-0.0795 -0.63606,0.0592 -1.127201,0.4905 -0.376768,0.33078 -0.74503,0.60143 -0.818325,0.60143 -0.35921,0 -2.369751,1.05628 -3.554655,1.86749 -3.088105,2.58327 -4.062987,0.84032 -5.440571,-0.21279 z m 3.712082,-1.89786 c 0.10522,-0.23717 0.41118,-0.54229 0.679895,-0.67812 0.268729,-0.13579 1.928869,-0.94951 3.689196,-1.80826 1.760319,-0.85875 3.494378,-1.78546 3.853428,-2.05932 0.35905,-0.27386 2.17277,-1.24272 4.03051,-2.15301 1.8577,-0.91032 4.3011,-2.18326 5.42973,-2.82879 1.12864,-0.64555 3.10742,-1.69029 4.39729,-2.3217 1.28987,-0.6314 3.13674,-1.57839 4.10414,-2.10442 2.09464,-1.13894 4.4784,-2.21971 4.89585,-2.21971 0.16483,0 0.4059,-0.0892 0.53573,-0.19819 0.61109,-0.51308 1.76392,-1.1775 2.24432,-1.29349 0.29282,-0.0707 1.22406,-0.47361 2.06943,-0.89538 1.45395,-0.72536 3.71134,-1.69501 5.88949,-2.52982 0.53744,-0.20599 1.24101,-0.49933 1.56347,-0.65187 0.32247,-0.15256 1.33386,-0.55987 2.24751,-0.90516 0.91367,-0.34526 1.74915,-0.69095 1.85664,-0.76815 0.44732,-0.32136 4.10331,-1.66749 6.93795,-2.55454 1.02115,-0.31953 2.20842,-0.75022 2.63837,-0.95702 0.75908,-0.36516 1.33078,-0.59397 5.86306,-2.34676 1.18238,-0.45727 2.41362,-0.94302 2.73609,-1.07943 0.32247,-0.13639 1.37782,-0.57123 2.34523,-0.96626 0.9674,-0.39503 2.2667,-0.9363 2.88729,-1.20283 0.62063,-0.26653 1.43626,-0.53456 1.81253,-0.59563 0.37627,-0.061 0.73116,-0.1871 0.78863,-0.28011 0.1451,-0.23477 1.39938,-0.21284 1.54766,0.027 0.16417,0.26566 0.76864,0.11671 4.78771,-1.17966 0.5912,-0.19069 1.86641,-0.58613 2.83382,-0.87875 0.9674,-0.29262 2.19864,-0.68959 2.73609,-0.88217 0.53744,-0.19257 1.28499,-0.44821 1.6612,-0.56808 2.50562,-0.79833 6.25605,-2.06044 7.91512,-2.66361 1.0749,-0.39078 2.39408,-0.83711 2.93153,-0.99182 0.53745,-0.1547 1.12979,-0.36508 1.31631,-0.46751 0.52633,-0.28904 10.64457,-3.88549 12.071,-4.29053 0.69869,-0.19841 2.06184,-0.58589 3.02924,-0.86106 0.96741,-0.27519 2.75066,-0.83055 3.96278,-1.23417 l 2.20383,-0.73383 -0.11096,-2.24995 c -0.061,-1.23746 -0.19346,-3.261307 -0.29434,-4.497437 -0.10085,-1.23612 -0.23205,-3.25887 -0.29159,-4.49501 -0.14362,-2.98309 -0.45117,-7.57602 -0.69522,-10.38216 -0.13447,-1.54655 -0.13224,-3.72978 0.007,-6.84022 0.21476,-4.79601 0.66561,-11.283192 0.88795,-12.776925 0.048,-0.322468 0.13277,-1.465763 0.1884,-2.540659 0.17794,-3.439096 0.34534,-5.271496 0.49992,-5.472185 0.0828,-0.107485 0.25596,-1.206806 0.38482,-2.442939 0.12888,-1.236119 0.33872,-2.555306 0.46634,-2.931527 0.15491,-0.456786 0.17632,-0.976176 0.0643,-1.563483 -0.0922,-0.483692 -0.11798,-2.438949 -0.0573,-4.345025 l 0.11029,-3.465563 -0.47623,-0.119528 c -0.26193,-0.06572 -0.56995,-0.06162 -0.68451,0.0092 -0.32403,0.200266 -0.98654,-0.08388 -0.98654,-0.423115 0,-0.248295 0.18238,-0.287315 0.98303,-0.210396 1.58898,0.152689 1.53122,-0.299747 -0.20435,-1.601282 -0.63993,-0.479895 -1.44854,-1.271408 -1.79688,-1.758917 -0.34833,-0.487509 -0.77763,-1.018296 -0.954,-1.179541 -0.1764,-0.161223 -0.99485,-1.185946 -1.81885,-2.277149 -0.82397,-1.091218 -2.57788,-3.026026 -3.8976,-4.29957 -1.31969,-1.273565 -2.67021,-2.71133 -3.00112,-3.195043 -0.6283,-0.918403 -2.47712,-2.738357 -3.97068,-3.908702 -0.4801,-0.376206 -1.40144,-1.226829 -2.0474,-1.890265 -0.64595,-0.663444 -1.62236,-1.586866 -2.16979,-2.052065 -2.91353,-2.475883 -3.69476,-3.192239 -5.84491,-5.35943 -2.2529,-2.270751 -3.06452,-3.1442239 -4.2666,-4.5918179 -0.30433,-0.366486 -1.23332,-1.369898 -2.06439,-2.22981 -1.99321,-2.062375 -3.73392,-4.157716 -3.73392,-4.494601 0,-0.57797403 -0.22149,-0.54356303 -4.39729,0.683195 -1.18238,0.347339 -2.41363,0.698747 -2.7361,0.780865 -0.80131,0.204097 -6.50502,2.128135 -7.2311,2.439293 -0.32247,0.138201 -1.07,0.405053 -1.6612,0.593031 -1.29879,0.412977 -3.23936,1.18174 -3.9087,1.548456 -0.86709,0.475049 -4.74878,1.682257 -5.07562,1.578526 -0.17423,-0.05529 -1.1922,0.20061 -2.26215,0.568663 -2.19757,0.7559439 -2.57175,0.9007599 -7.31988,2.8326849 -1.88105,0.765377 -3.85984,1.556358 -4.39729,1.757731 -0.53744,0.20138 -1.90059,0.724645 -3.02924,1.162823 -2.65079,1.029117 -5.41989,2.012922 -8.11056,2.881498 -2.62081,0.846029 -3.42012,1.183243 -3.42012,1.442841 0,0.109247 -0.15391,0.198943 -0.34201,0.199331 -0.1881,0 -0.62995,0.176301 -0.9819,0.390867 -0.35194,0.214588 -0.79408,0.390156 -0.98255,0.390156 -0.18847,0 -0.54964,0.144966 -0.80261,0.322152 -0.25298,0.177192 -0.72517,0.314638 -1.04934,0.305413 l -0.58935,-0.01675 0.85925,0.910804 c 0.4726,0.50094 0.94466,0.97435 1.04903,1.05201 0.10439,0.07767 0.13169,0.199309 0.0607,0.270311 -0.20819,0.208203 -2.73867,-1.149881 -2.84101,-1.524758 -0.1067,-0.390745 -0.90624,-0.452033 -2.00217,-0.153487 -0.37621,0.102473 -2.22307,0.236662 -4.10414,0.298187 -5.95724,0.194844 -14.727882,0.504924 -15.480828,0.547331 -0.398999,0.02243 -0.867404,0.182578 -1.040872,0.355816 -0.290199,0.289825 -0.266745,0.394031 0.293643,1.304784 0.345246,0.561093 0.685582,1.460155 0.785768,2.075662 0.0972,0.597223 0.335511,1.417187 0.529557,1.822176 2.124882,10.472033 -1.751382,22.570535 -5.486745,29.92745 -0.255816,0.498244 -0.575013,1.301671 -0.709353,1.78537 -1.075909,3.950354 -2.584446,7.340227 -4.767852,10.125596 -1.15508,1.47353 -2.414559,2.9968 -3.817941,3.05941 -2.743132,0.12236 -11.697423,-10.2979 -14.253278,-15.492146 -2.886843,-5.376795 -2.472442,-10.83391 -2.467955,-16.063768 0,-4.304567 0.06845,-6.01293 0.270107,-6.742515 0.387806,-1.402901 1.791343,-4.803674 2.208808,-5.351968 0.42766,-0.561653 0.480099,-1.284968 0.08208,-1.132244 -0.353754,0.135756 -1.400364,0.418449 -3.34274,0.902924 -0.859914,0.21448 -2.091157,0.571971 -2.736093,0.794403 -0.644936,0.22244 -2.843581,0.805412 -4.885879,1.295502 -2.042298,0.490091 -5.420966,1.461557 -7.508136,2.158808 -2.996819,1.001162 -3.883891,1.227197 -4.21818,1.074896 -0.31035,-0.141414 -0.705786,-0.09498 -1.481883,0.174 -0.582209,0.201769 -1.63021,0.513746 -2.3289,0.693247 -0.698672,0.179507 -1.666076,0.499782 -2.149786,0.71171 -0.483695,0.211935 -1.275207,0.498359 -1.758917,0.636509 -1.066139,0.304493 -3.203308,1.093519 -4.006031,1.479008 -0.322265,0.154752 -0.730036,0.588077 -0.906162,0.962953 -0.427847,0.910617 -0.605646,3.879273 -0.324595,5.419821 0.176705,0.968561 0.169982,1.318812 -0.03252,1.697204 -0.140354,0.262244 -0.203112,0.675897 -0.139494,0.919202 0.06363,0.243327 0.04364,0.534935 -0.04442,0.648021 -0.196921,0.252861 0.0414,3.246474 0.467574,5.87322 0.3783,2.331694 0.389573,2.973207 0.05924,3.371236 -0.220107,0.265199 -0.425908,1.426915 -0.631866,3.566713 -0.03621,0.376221 -0.08576,0.771963 -0.1101,0.879455 -0.02435,0.107491 -0.02992,0.341543 -0.01235,0.520138 0.01754,0.17858 -0.06029,0.381649 -0.172922,0.451256 -0.112633,0.0696 -0.204784,0.368701 -0.204784,0.66463 0,0.762559 -0.634915,1.975152 -1.399441,2.672763 -0.358945,0.327515 -0.802442,0.87719 -0.985557,1.221465 -0.274031,0.515227 -0.449798,0.625955 -0.993623,0.625955 -0.561931,0 -0.833555,0.187524 -1.816875,1.254353 -0.635884,0.689879 -1.244094,1.371549 -1.351584,1.514789 -0.107489,0.14325 -0.454035,0.61215 -0.770092,1.04202 -0.316074,0.42986 -0.909697,1.13244 -1.319188,1.5613 -0.409492,0.42886 -0.74453,0.84175 -0.74453,0.91755 0,0.0758 -0.373782,0.49052 -0.830599,0.92161 -0.456834,0.43107 -1.973896,1.89674 -3.371258,3.25705 -1.397361,1.36029 -2.835811,2.70096 -3.196553,2.97926 -0.360742,0.27828 -0.712526,0.65206 -0.781741,0.8306 -0.06921,0.17853 -0.785447,0.92131 -1.591609,1.65061 -0.806178,0.7293 -2.872897,2.66602 -4.592727,4.30382 -1.7198299,1.63782 -3.5859387,3.33986 -4.1469002,3.78231 l -1.0199372,0.80445 0.1149315,1.61262 c 0.5086787,2.99449 -0.058318,7.768157 -0.5408708,10.663897 -0.2391658,1.41469 -0.3537689,2.68939 -0.2780652,3.09292 0.082552,0.44003 0.040463,0.79283 -0.1172298,0.98284 -0.1866171,0.22486 0.118809,1.91362 -0.2559263,6.93856 -0.6071468,8.14139 0.1940749,10.55228 8.350414,10.03764 1.636199,-0.0836 3.766412,-0.18148 4.733816,-0.2175 0.967404,-0.036 2.06672,-0.15129 2.44294,-0.25612 0.376205,-0.10481 3.058561,-0.37247 5.960774,-0.59478 2.902212,-0.22228 5.584553,-0.48782 5.960773,-0.59008 0.376205,-0.10225 1.695392,-0.32579 2.931528,-0.49675 1.23612,-0.17098 3.039017,-0.43407 4.006422,-0.58472 0.967404,-0.15063 2.72632,-0.32689 3.908703,-0.39172 4.795964,-0.26291 9.443741,-0.73403 11.890965,-1.20529 0.843108,-0.16235 1.746346,-0.24161 2.007229,-0.17615 0.260867,0.0655 0.654646,0.0225 0.875065,-0.0954 0.430411,-0.23035 3.667334,-0.42614 7.584481,-0.4588 l 2.423381,-0.0202 0.553315,-0.87945 c 0.304348,-0.48372 0.554989,-0.94965 0.557022,-1.03542 0.0055,-0.23307 1.041701,-1.1011 1.322893,-1.10819 0.416934,-0.0105 0.270717,0.74865 -0.367887,1.90986 -0.336727,0.61226 -0.69847,1.22216 -0.803911,1.35536 -0.698204,0.88194 1.465154,4.25982 4.914176,7.67297 1.357732,1.34361 3.15966,3.3004 4.004251,4.34843 0.84459,1.04802 1.605617,1.90549 1.691172,1.90549 0.08552,0 0.336259,0.29249 0.557224,0.64998 0.220937,0.35748 0.626357,0.90714 0.900925,1.22146 0.274589,0.31433 0.562725,0.65945 0.640277,0.76694 0.07756,0.10749 0.514788,0.64738 0.971625,1.19974 0.456814,0.55234 0.830598,1.05803 0.830598,1.12375 0,0.13055 0.123641,0.2844 1.509666,1.87837 0.514077,0.59118 1.144891,1.38269 1.4018,1.75892 0.256931,0.37619 0.67594,0.90387 0.931138,1.1726 0.255205,0.26872 1.086759,1.21854 1.847923,2.11072 0.761149,0.89219 1.715683,1.83156 2.121147,2.08752 0.635819,0.40137 2.350956,2.60883 2.350956,3.0258 0,0.0791 0.262696,0.50649 0.583777,0.94974 0.614896,0.84886 0.95938,0.89797 1.276973,0.18213 z M 164.9633,117.01272 c -0.72793,-0.55098 -1.66242,-1.21572 -2.07665,-1.47721 -0.79315,-0.50069 -1.3246,-1.43309 -1.16492,-2.04374 0.0523,-0.19975 0.12957,-0.36316 0.17182,-0.36316 0.15709,0 3.90799,3.12118 4.54112,3.77875 0.63517,0.65967 0.68506,1.10713 0.12343,1.10713 -0.14921,0 -0.86686,-0.4508 -1.5948,-1.00177 z m -94.751521,-1.53556 c -0.221577,-0.35854 0.138946,-1.57496 0.552675,-1.86475 0.459054,-0.32153 1.106476,-0.3853 1.106476,-0.10899 0,0.0987 -0.2245,0.62634 -0.49886,1.17261 -0.471765,0.93926 -0.894515,1.23115 -1.160291,0.80113 z m 89.783371,-4.22573 c -0.1432,-0.17255 -0.76749,-0.65809 -1.38729,-1.079 -1.06308,-0.72193 -1.52718,-1.24505 -1.52718,-1.72142 0,-0.37978 0.59247,-0.21643 1.62172,0.44718 1.25924,0.81185 1.61975,1.22056 1.79219,2.03177 0.14654,0.68957 -0.0754,0.83243 -0.49944,0.32147 z m -86.951609,-0.72385 c 0,-0.8833 0.448467,-1.47581 0.905239,-1.196 0.495267,0.3034 0.507131,0.49708 0.07403,1.20751 -0.514975,0.8447 -0.979268,0.83925 -0.979268,-0.0116 z m 81.519619,-3.92898 c -0.79175,-0.58413 -1.18144,-1.0859 -1.18953,-1.53169 -0.0101,-0.56278 0.48845,-0.393 1.57849,0.53744 0.56666,0.48371 1.10152,0.87946 1.18856,0.87946 0.087,0 0.15826,0.13193 0.15826,0.29316 0,0.46049 -1.01062,0.35664 -1.73578,-0.17837 z m -77.113773,-2.89974 c 0.485597,-1.60998 1.261774,-2.29552 1.261774,-1.11442 0,0.39308 -0.175877,0.75862 -0.517118,1.07489 -0.644642,0.59743 -0.917283,0.61191 -0.744641,0.0395 z m 71.524553,-2.09658 c -0.32037,-0.21117 -0.81574,-0.43518 -1.10084,-0.4978 -0.78243,-0.17184 -2.07734,-1.373127 -2.23016,-2.068907 -0.24691,-1.12418 0.18991,-1.09757 1.47232,0.0897 0.65621,0.60754 1.27158,1.104617 1.3675,1.104617 0.25621,0 1.36486,1.22934 1.36591,1.51462 0.002,0.33724 -0.196,0.30516 -0.87473,-0.14223 z M 79.297469,99.441873 c 0,-0.73971 0.415881,-1.75922 0.871891,-2.13743 0.318794,-0.2644 1.570659,-0.77801 1.913058,-0.78488 0.296735,-0.006 0.130126,0.33542 -0.520828,1.06712 -0.367075,0.4126 -0.781023,0.97823 -0.919906,1.25696 -0.637135,1.278907 -1.344215,1.593577 -1.344215,0.59823 z m 63.395001,-4.05719 c -0.8641,-0.47285 -2.3419,-1.63781 -2.60279,-2.05182 -0.24961,-0.39608 -0.12121,-0.72494 0.28302,-0.72494 0.6642,0 3.61381,2.34536 3.61381,2.87347 0,0.34665 -0.56036,0.30477 -1.29404,-0.0967 z m -59.671351,-0.7122 c -0.287495,-0.34639 -0.01682,-0.92735 0.744541,-1.59813 0.562437,-0.4955 1.394862,-0.61995 1.394862,-0.20853 0,0.14186 -0.197871,0.44168 -0.439731,0.66627 -0.241853,0.22458 -0.597734,0.6362 -0.790867,0.9147 -0.400832,0.57804 -0.579571,0.62242 -0.908805,0.22569 z m 54.065221,-2.94041 c -1.82771,-0.28172 -2.17047,-0.54761 -1.98445,-1.5393 0.15901,-0.84753 0.34952,-0.88637 0.94607,-0.19285 0.24552,0.28544 0.96566,0.70319 1.60033,0.92831 0.73266,0.25992 1.17796,0.53422 1.21975,0.75137 0.0362,0.1881 -0.006,0.32978 -0.0951,0.31482 -0.0885,-0.015 -0.84745,-0.13301 -1.68661,-0.26235 z m -52.70756,-2.28631 c -0.848825,-0.24245 -0.889881,-0.28304 -0.617902,-0.61075 0.258757,-0.31178 1.90254,-0.29739 2.219364,0.0194 0.321828,0.32181 0.02732,0.82404 -0.471576,0.80431 -0.245218,-0.01 -0.753665,-0.10555 -1.129886,-0.21299 z m -5.63924,-0.95565 c -0.75424,-0.3021 -1.591863,-0.97034 -1.591863,-1.26997 0,-0.48117 1.037248,-0.31715 2.048009,0.32384 0.700645,0.44434 1.123472,0.58367 1.601756,0.52784 0.722589,-0.0844 0.850343,0.11545 0.271778,0.42508 -0.461761,0.24714 -1.704754,0.24351 -2.32968,-0.006 z m 52.89685,0.0765 c -0.43804,-0.11549 -0.86874,-1.38438 -0.57097,-1.68213 0.15669,-0.15671 0.36177,-0.0781 0.75398,0.28882 0.29629,0.27725 0.82454,0.6483 1.17389,0.82456 0.34934,0.17628 0.63516,0.40619 0.63516,0.51091 0,0.18797 -1.34983,0.22715 -1.99206,0.0579 z m -44.391211,-0.38856 c -0.30266,-0.30265 -0.08377,-0.65439 0.602579,-0.96829 0.403083,-0.18436 0.798847,-0.36956 0.879455,-0.41158 0.353975,-0.18446 0.101819,0.59551 -0.333109,1.03045 -0.474194,0.47418 -0.895928,0.60244 -1.148925,0.34942 z m -14.641491,-2.10022 c -0.510633,-0.13738 -1.107008,-0.4114 -1.325255,-0.60891 -0.355895,-0.32206 -0.366027,-0.38993 -0.09839,-0.65759 0.267653,-0.26765 0.409929,-0.24378 1.378441,0.23123 0.594016,0.29134 1.292755,0.52969 1.552741,0.52969 0.680132,0 0.80319,0.35798 0.201689,0.58666 -0.607454,0.23096 -0.536897,0.23431 -1.709226,-0.0811 z m 55.357142,-0.99417 c -0.13382,-0.16124 -0.35258,-0.29316 -0.48616,-0.29316 -0.13359,0 -0.4746,-0.18226 -0.75781,-0.40504 -0.63258,-0.4976 -0.73606,-1.54931 -0.15244,-1.54931 0.3743,0 2.37359,1.96555 2.37359,2.33353 0,0.31078 -0.69894,0.24924 -0.97718,-0.086 z m -37.716315,-0.73288 c 0.0058,-0.90613 0.237819,-1.2632 1.0919,-1.67814 0.869612,-0.42249 1.536435,-0.55279 1.413499,-0.27621 -0.03581,0.0806 -0.460885,0.65192 -0.944598,1.26957 -0.922293,1.17773 -1.565511,1.45992 -1.560801,0.68478 z m -23.047191,-1.24444 c -0.676018,-0.85943 0.02336,-1.19853 0.960338,-0.46562 0.26873,0.21019 0.598516,0.38413 0.732881,0.38652 0.134366,0.002 0.244294,0.13626 0.244294,0.2975 0,0.21082 -0.215557,0.29316 -0.76756,0.29316 -0.595123,0 -0.857929,-0.11492 -1.169953,-0.51156 z m 92.653076,-3.14369 c -3.55195,-3.37491 -5.74592,-6.57652 -8.55218,-10.25247 -0.43937,-0.573688 -1.29022,-1.79061 -1.89079,-2.704275 -0.60053,-0.913651 -1.20844,-1.796018 -1.3509,-1.960794 -3.24293,-4.618823 -3.22431,-12.565785 -1.84661,-17.695378 0.60031,-2.123612 1.5014,-4.318846 1.8791,-4.577789 0.0784,-0.05371 0.27925,-0.361561 0.44635,-0.684029 0.68703,-1.325801 4.39022,-4.527322 6.98182,-6.036039 1.66998,-0.972186 2.32148,-1.237162 4.30868,-1.752489 4.68391,-1.214607 10.9091,-0.673452 13.01797,1.131647 0.79423,0.679837 1.67301,2.23856 2.00273,3.55234 0.81499,3.247387 0.83491,3.388032 0.62111,4.385038 -0.11635,0.542448 -0.21466,1.531581 -0.21849,2.198109 -0.004,0.666513 -0.13108,1.695551 -0.28275,2.286734 -0.59286,2.310548 -0.73447,2.873632 -0.99952,3.974124 -0.15105,0.627156 -0.54397,1.753928 -0.87314,2.503925 -0.32919,0.750005 -0.5723,1.563685 -0.54027,1.808199 0.0321,0.244498 -0.0943,0.597093 -0.28073,0.783553 -0.18646,0.186461 -0.33903,0.427925 -0.33903,0.536589 0,0.203163 -0.89596,2.392882 -1.54702,3.78092 -1.4126,3.011581 -2.51783,5.670409 -2.84337,6.840236 -0.3475,1.248766 -1.15348,3.394209 -1.57853,4.201859 -0.55781,1.05992 -2.19881,4.63106 -2.4248,5.27675 -0.44324,1.26658 -1.43587,3.03805 -1.89733,3.38614 -0.45579,0.34379 -0.4644,0.33907 -1.7923,-0.9829 z m 3.95256,-7.81206 c 0.15133,-0.62605 0.41021,-1.53401 0.57529,-2.01773 0.16508,-0.48369 0.40387,-1.2752 0.53062,-1.758905 0.60985,-2.326963 2.66943,-5.603283 3.70482,-7.717606 0.69492,-1.419128 0.83627,-2.042595 1.30958,-3.038903 0.38052,-0.800961 1.22874,-1.743358 1.22874,-2.359498 0,-0.126653 0.30391,-0.862113 0.67533,-1.634363 0.79827,-1.659651 1.6581,-5.006082 1.8844,-7.333814 0.45434,-4.673712 0.45419,-4.68531 -0.0773,-6.35164 -0.93954,-2.945476 -1.30732,-3.524011 -2.67784,-4.212268 -1.77551,-0.891671 -5.96776,-1.248083 -8.96326,-0.762026 -2.03566,0.330319 -4.72828,1.28967 -6.08532,2.168141 -3.03416,1.964158 -5.6736,4.395341 -6.40522,5.899844 -0.16571,0.340774 -0.46472,0.855052 -0.66447,1.142842 -0.49458,0.712559 -1.64155,4.563834 -2.0304,6.817659 -1.27935,5.978231 0.37242,8.47644 2.27688,12.116528 0,0.186424 2.07543,2.358009 3.41944,3.66536 5.72762,8.101209 8.42061,12.794469 11.29874,5.376379 z m -6.28735,-8.996507 c -0.59999,-0.115156 -0.95777,-0.735998 -1.11488,-1.934513 -0.13066,-0.99697 -0.12992,-0.998688 0.60982,-1.435155 0.57885,-0.341508 0.91075,-0.40977 1.51945,-0.312424 0.88275,0.141149 1.28677,0.407657 1.28677,0.848811 0,0.166479 0.151,0.469527 0.33553,0.673438 0.30311,0.334943 0.30728,0.421109 0.043,0.891923 -0.28378,0.505592 -1.64449,1.423967 -2.03973,1.376642 -0.10749,-0.0128 -0.39548,-0.06176 -0.63997,-0.108722 z m 1.09651,-8.840445 c -2.43351,-0.473948 -2.66234,-2.843563 -0.47988,-4.96934 0.54098,-0.526939 1.40076,-1.214743 1.91061,-1.528475 0.50987,-0.31371 0.98132,-0.741448 1.04767,-0.9505 0.0664,-0.209052 0.20577,-0.380111 0.30984,-0.380111 0.28408,0 0.95707,-1.701821 0.95707,-2.420196 0,-0.552299 -0.10772,-0.681225 -0.8847,-1.058697 -1.52432,-0.816772 -1.79093,-0.416845 -2.84527,-0.408152 -3.48826,0.12515 -3.57029,2.43513 -5.53843,3.105303 -1.48556,0 -0.25621,-1.965186 2.0374,-3.256921 1.46353,-0.824235 2.17826,-1.025723 4.00632,-1.129368 1.51753,-0.08604 1.61029,-0.06521 3.15631,0.709122 1.02256,0.512128 1.66979,0.966664 1.80777,1.269482 0.35787,0.785415 0.2473,1.897283 -0.29002,2.916031 -0.61461,1.165283 -1.16532,1.766129 -2.81743,3.073855 -2.00188,1.584572 -2.53704,2.21891 -2.53937,3.010013 -0.002,0.585898 0.62481,0.72389 2.59641,0.571863 1.46314,-0.112841 1.6083,-0.164451 2.07721,-0.738572 0.92176,-1.128649 1.45424,-1.55761 1.86116,-1.499399 0.50395,0.0721 0.64953,0.960106 0.21635,1.319625 -0.47126,0.771633 -1.00426,1.429403 -1.47567,1.765827 -1.25273,0.626113 -3.57577,0.898085 -5.11335,0.59861 z M 60.96119,79.995873 c -0.863745,-0.39237 -1.029552,-0.54762 -0.977176,-0.91505 0.03471,-0.2434 0.195013,-0.46717 0.356239,-0.49731 0.402847,-0.0753 2.736093,1.33197 2.736093,1.65021 0,0.39736 -0.952629,0.29023 -2.115156,-0.23785 z m 61.68999,0.304 c -1.33563,-0.4033 -2.13126,-1.6154 -0.9633,-1.46759 0.54787,0.0693 2.32751,1.21336 2.35215,1.51208 0.0152,0.1848 -0.70601,0.16171 -1.38885,-0.0445 z m -28.305204,-0.49539 c 0,-0.381 0.23871,-0.64371 1.065512,-1.17261 0.586014,-0.37487 1.113687,-0.68159 1.17261,-0.68159 0.338681,0 0,0.71063 -0.699545,1.47014 -0.91803,0.99595 -1.538577,1.15086 -1.538577,0.38406 z m -40.406225,-2.43837 c -0.708507,-0.43197 -0.773486,-0.62122 -0.337524,-0.98303 0.241807,-0.20068 0.434303,-0.18822 1.026034,0.0664 0.400626,0.17243 1.102161,0.40812 1.558995,0.52378 0.502346,0.1272 0.830599,0.32318 0.830599,0.49593 0,0.46224 -2.275882,0.386 -3.078104,-0.10312 z m 63.418719,-0.99496 c -0.1881,-0.10956 -0.34201,-0.38026 -0.34201,-0.60155 0,-0.33933 0.0825,-0.38165 0.52663,-0.27017 0.91867,0.23056 1.8186,0.66474 1.8186,0.87739 0,0.26209 -1.55106,0.25768 -2.00322,-0.006 z m -18.712918,-0.63808 c 0,-0.53711 0.373877,-0.90707 1.510598,-1.49481 1.3214,-0.68322 1.41183,-0.37455 0.24702,0.84322 -1.140169,1.19201 -1.757618,1.42092 -1.757618,0.65159 z m -50.568857,-1.73127 c -0.808711,-0.41403 -1.035931,-0.78742 -0.63135,-1.03748 0.313416,-0.1937 1.542078,0.28835 1.756603,0.6892 0.470562,0.87924 0.12239,0.98701 -1.125253,0.34828 z m 66.594535,-0.5681 c -0.59118,-0.21982 -1.33702,-0.42945 -1.65742,-0.46586 -0.96115,-0.1092 -2.24176,-1.85779 -1.36056,-1.85779 0.16742,0 0.6982,0.21986 1.17952,0.48859 0.48135,0.26872 0.95298,0.48858 1.04807,0.48858 0.35899,0 2.34633,1.28088 2.35003,1.51462 0.005,0.33301 -0.3005,0.30005 -1.55964,-0.16814 z m -74.216507,-3.23426 c -0.831929,-0.46857 -1.221471,-0.807024 -1.221471,-1.061287 0,-0.742204 1.616312,-0.248454 2.810906,0.858657 1.183837,1.09713 0.21748,1.22033 -1.589435,0.20263 z m 63.467577,0.3056 c 0,-0.70523 0.62085,-1.501457 1.57614,-2.021393 1.73649,-0.945108 2.04817,-0.579988 0.57365,0.672042 -0.53745,0.456371 -0.97718,0.947771 -0.97718,1.092011 0,0.26518 -0.58091,0.66691 -0.96434,0.66691 -0.11454,0 -0.20827,-0.18431 -0.20827,-0.40957 z m 5.12272,-1.664154 c 0.0613,-0.638796 0.14964,-0.768548 0.55325,-0.813076 0.28229,-0.03113 0.72192,0.144096 1.06655,0.425142 0.73457,0.599049 0.51001,0.899724 -0.78056,1.045188 l -0.91226,0.10283 z M 36.204007,67.559034 c -0.322468,-0.107269 -0.929725,-0.183283 -1.349472,-0.168931 -0.753708,0.02574 -0.759477,0.02049 -0.466184,-0.423345 0.406803,-0.615651 0.973127,-0.653737 2.011279,-0.135253 1.319,0.658741 1.177676,1.184336 -0.195623,0.727529 z m 72.736363,-1.676879 c -0.2042,-0.346828 0.29815,-1.038212 1.02307,-1.408041 1.57349,-0.802737 1.88085,-0.310331 0.51757,0.829211 -0.83201,0.695482 -1.35602,0.892354 -1.54064,0.57883 z m 5.14456,-4.443522 c 0,-0.374546 0.1637,-0.554362 0.71403,-0.784308 0.8011,-0.33472 1.05264,-0.242306 0.69029,0.253615 -0.13368,0.182945 -0.29473,0.486539 -0.35789,0.674639 -0.0664,0.197943 -0.31106,0.342018 -0.58064,0.342018 -0.36588,0 -0.46579,-0.104228 -0.46579,-0.485964 z m 4.04385,-2.795742 c -0.62976,-0.131427 -0.29832,-0.866196 0.6466,-1.433386 1.95874,-1.175722 2.40179,-0.794339 0.73288,0.630901 -0.61115,0.521921 -1.16895,0.846417 -1.37948,0.802485 z m 5.14864,-4.389129 c 0.01,-0.607195 0.7151,-1.390749 1.69524,-1.883061 0.76897,-0.386251 1.42469,-0.53372 1.42469,-0.320419 0,0.05112 -0.55989,0.666715 -1.24416,1.36805 -1.30332,1.335788 -1.88795,1.596156 -1.87577,0.83543 z m 3.97594,-3.557329 c -0.17677,-0.460633 0.0782,-0.66998 1.2205,-1.002046 1.63377,-0.474956 1.70486,-0.09052 0.14454,0.781583 -1.04071,0.581664 -1.21559,0.609914 -1.36504,0.220463 z m 4.7332,-3.54735 c -0.15938,-0.415307 0.18284,-0.766607 0.91331,-0.937558 0.6346,-0.148512 0.95474,0.33047 0.51101,0.764571 -0.47381,0.463545 -1.27546,0.560899 -1.42432,0.172987 z m 4.32913,-3.1438 c -0.18811,-0.04918 -0.34201,-0.216529 -0.34201,-0.371921 0,-0.20921 0.13952,-0.249079 0.53744,-0.153616 0.6658,0.159713 0.70561,0.192716 0.54548,0.451817 -0.13403,0.216853 -0.17687,0.22111 -0.74091,0.07372 z m 7.77294,-0.835336 c -0.22705,-0.367392 0.6404,-0.942232 1.62653,-1.077851 1.06,-0.145794 1.39832,-0.04947 1.39832,0.398237 0,0.166119 -0.19029,0.281614 -0.46403,0.281614 -0.25519,0 -0.8379,0.131923 -1.29489,0.293147 -0.97622,0.344441 -1.11094,0.3556 -1.26593,0.104853 z m -3.29421,-0.137417 c -0.31733,-0.317306 -0.0832,-0.582181 0.50486,-0.571216 0.34935,0.0065 0.96496,-0.0568 1.36805,-0.140775 0.55915,-0.116436 0.73288,-0.09033 0.73288,0.110145 0,0.48354 -2.21298,0.994654 -2.60579,0.601846 z m -2.76014,-0.718764 c -0.26119,-0.190997 -0.32467,-0.400811 -0.23242,-0.768361 0.10817,-0.431017 -0.003,-0.611977 -0.75291,-1.226549 -0.95927,-0.786042 -1.02683,-0.945669 -0.58669,-1.38581 0.16124,-0.161238 0.29376,-0.220915 0.29448,-0.132628 0,0.08831 0.30942,0.370361 0.68596,0.626788 0.52227,0.355672 0.7135,0.646842 0.80639,1.227721 0.0743,0.46448 0.3022,0.903398 0.58436,1.125363 0.25445,0.200144 0.46262,0.461165 0.46262,0.580053 0,0.301143 -0.82805,0.270577 -1.26179,-0.04659 z m 38.81237,-0.05299 c -0.24795,-0.173669 -0.37678,-0.389818 -0.28628,-0.480312 0.20487,-0.204867 3.90532,-0.313452 4.09852,-0.120269 0.26818,0.268183 -0.22847,0.503587 -1.49404,0.708101 -1.66667,0.269341 -1.78818,0.263718 -2.3182,-0.10752 z m 6.25246,-0.337488 c -0.39514,-0.476084 -0.0687,-0.772941 0.71079,-0.646439 0.37766,0.06126 0.8282,0.03566 1.0012,-0.05687 0.4904,-0.26243 2.17116,-0.469922 2.17116,-0.268032 0,0.298813 -1.7657,1.05754 -2.72571,1.171236 -0.67894,0.08041 -0.96598,0.03085 -1.15744,-0.19987 z m 5.78411,-1.034437 c -0.1366,-0.711244 -0.0645,-0.773984 0.56173,-0.48866 0.43335,0.197447 0.69986,0.156391 1.77365,-0.273173 0.69501,-0.278048 1.45527,-0.477522 1.68948,-0.443247 0.62045,0.09076 -2.0766,1.531006 -3.1138,1.662793 -0.76042,0.09662 -0.80933,0.07206 -0.91106,-0.457713 z m 10.1183,-0.678191 c -0.42995,-0.09168 -1.21386,-0.146526 -1.74201,-0.121872 -1.11398,0.05198 -1.44662,-0.327062 -0.4651,-0.530002 0.84514,-0.17477 1.30482,-0.195908 3.23315,-0.148691 1.66328,0.0407 2.00975,0.230586 1.07489,0.588983 -0.90352,0.346375 -1.28748,0.38505 -2.10093,0.211582 z m 4.9703,-0.199625 c -0.27201,-0.508253 0.0961,-0.830893 0.62509,-0.547813 0.18684,0.09999 1.04904,0.181787 1.91604,0.181787 1.20106,0 1.57632,0.06349 1.57632,0.266594 0,0.299575 -1.19441,0.515148 -2.85422,0.515148 -0.86146,0 -1.07906,-0.07161 -1.26323,-0.415716 z m 5.22492,0.285432 c -0.37703,-0.377034 -0.0832,-0.65163 0.7003,-0.654442 0.45684,-0.0014 0.95455,-0.08146 1.10602,-0.177365 0.30479,-0.192931 0.79947,-0.07003 0.79947,0.198641 0,0.438509 -2.25301,0.985947 -2.60579,0.633166 z m -74.62695,-2.941521 c -0.56348,-0.349546 -0.83278,-0.955548 -0.51262,-1.15344 0.29328,-0.181255 1.2232,0.586459 1.29495,1.069028 0.0745,0.501156 -0.0831,0.518154 -0.78233,0.08441 z m -2.4375,-2.770469 c -0.21849,-0.203551 -0.6748,-0.513623 -1.01403,-0.689047 -0.43996,-0.227516 -0.61677,-0.45757 -0.61677,-0.802514 0,-0.265968 0.0819,-0.483569 0.1819,-0.483569 0.3761,0 1.53402,0.900342 1.84263,1.432739 0.54452,0.939464 0.33795,1.224047 -0.39373,0.542391 z m -3.73173,-3.457394 c -0.34934,-0.152783 -0.63516,-0.365465 -0.63516,-0.472655 0,-0.465867 1.63943,-0.0065 1.83975,0.515623 0.13067,0.340522 -0.36838,0.322734 -1.20459,-0.043 z m -2.31555,-2.798755 c -0.78071,-0.354564 -1.16886,-0.849968 -0.94708,-1.208804 0.21104,-0.3415 0.61552,-0.172066 1.42304,0.596123 0.44746,0.425638 0.81355,0.821402 0.81355,0.879455 0,0.198209 -0.48791,0.09727 -1.28951,-0.266774 z m -2.9612,-2.691018 c -0.43992,-0.306866 -0.60264,-0.845374 -0.25547,-0.845374 0.30145,0 1.57466,0.805728 1.57466,0.996488 0,0.280514 -0.83803,0.184519 -1.31919,-0.151114 z M 90.106832,58.797658 c 3.354181,-8.619767 7.560747,-16.933768 6.160507,-25.015703 -0.08745,-0.483698 -0.198605,-1.626993 -0.247059,-2.540659 -0.04846,-0.913651 -0.313056,-2.540451 -0.588091,-3.615095 -0.275014,-1.074644 -0.506693,-2.173958 -0.514882,-2.442946 -0.03343,-1.100794 -0.773006,-2.347454 -2.253466,-3.798722 -0.226437,-0.221973 -0.562458,-0.697115 -0.746762,-1.055871 -0.232024,-0.451703 -0.616262,-0.772158 -1.249493,-1.042059 -0.502939,-0.214365 -1.178282,-0.506958 -1.50075,-0.650206 -4.156594,-1.020885 -15.321586,0.493462 -15.70261,5.948392 0.01682,0.275171 -0.422871,1.413462 -0.976895,2.529557 -3.432778,5.243246 -3.759578,11.602149 -3.833577,18.491436 -0.0042,3.980919 0.613885,8.701949 3.115112,12.019267 0.138275,0.161237 0.316963,0.513027 0.397061,0.781742 0.08013,0.268729 0.618203,1.04528 1.195732,1.725692 0.577537,0.680412 1.050054,1.314383 1.050054,1.408853 8.761721,11.882087 10.290541,11.145307 15.695119,-2.743678 z m -9.26896,-9.626717 c -1.591137,-1.337089 -4.765149,-3.636262 -6.810274,-4.933202 -1.415361,-0.897567 -1.595739,-1.091045 -1.531402,-1.642798 0.77402,-2.049928 6.199189,2.843477 6.627963,3.144037 0.730908,0.509554 1.633055,1.140822 1.995018,1.416907 0.361956,0.276077 0.745482,0.501968 0.852248,0.501968 0.222332,0 1.13617,-1.792157 1.528683,-2.997992 0.453565,-1.393344 1.837728,-4.647217 2.71522,-6.382896 0.461913,-0.913651 0.953521,-2.007636 1.092498,-2.431075 0.138962,-0.423438 0.614105,-1.479805 1.055878,-2.34749 0.44178,-0.867685 1.153088,-2.32413 1.580682,-3.236544 0.907755,-1.937016 1.733199,-3.229297 2.169723,-3.396804 2.73262,-0.189315 0.230363,2.38298 -0.33088,3.490066 -0.431161,0.861444 -0.895906,1.69906 -1.032762,1.861383 -0.136849,0.162324 -0.367507,0.602939 -0.512582,0.979146 -0.145059,0.376221 -0.585538,1.387593 -0.978836,2.247505 -1.359134,3.851527 -4.608254,8.764094 -4.940666,12.703289 -0.08521,1.133775 -0.81496,2.443334 -1.360479,2.441407 -0.254047,-0.0014 -1.138118,-0.591744 -2.120032,-1.416907 z"
     id="path4200"
     inkscape:connector-curvature="0"
     sodipodi:nodetypes="ccccssssscccccscscsssccccsscscssccscssccssscscscscczcccscssccccccssssscscscssccsccscsccssssssccccssscsccscsccscccsscsssscscccssccscsscssscccsscsccscscsccsccscccccssssscccccccssccscccsccccsscsscscccscccccscsccccsssccscscscscccssccccsscccscsccccssssssssscscscssssssccsscccccccssccccccsscccccssssccscsccscccscssccsscsssccscscsssscccssscccccccsscssccccccssscccsssccssssccsscssssccsccscsccscscccsccssscsccccscssccsscscsccsscccscccscscccsccscccsssccccccssccccccccccsscsscsssccccccccsscccccccssssscccscccsccscccccccascsssssssccccccccsccccsscssscccsscssscsccccsccsscsscsscscssccssscsssccssssscssscssscssssssssssscccscccsssccsccssccssssssccsscsssscssccscccccsscccccsccscsccccscsccsscscsscccccsccccsccccssscsccsscccccssscccscccccscsssssccccccsccccccscscsccsscscssccsccccc" />
</svg>
