<svg xmlns="http://www.w3.org/2000/svg" viewBox="0 0 250 75.920685" height="75.921" width="250"><path d="M4.18 75.786c-1.69-.21-2.993-1.145-3.44-2.466-.14-.418-.256-.88-.256-1.028 0-.147-.11-.408-.246-.58-.293-.374-.32-.776-.058-.922.138-.077.203-.38.243-1.12.03-.56.133-1.166.23-1.35.097-.182.245-.567.33-.855.087-.288.203-.523.26-.523.057 0 .105-.18.107-.4.003-.22.086-.51.186-.64.1-.132.15-.34.11-.462-.038-.122-.01-.222.062-.222s.13-.125.13-.277c-.002-.184-.035-.225-.1-.122-.078.122-.217.114-.664-.038-.946-.323-.836-.73.37-1.374.293-.155.608-.282.7-.282.095 0 .207-.112.25-.25.044-.137.145-.24.224-.23.37.044.48-.023.417-.26-.08-.31.096-.422.682-.438.254-.01.5-.05.544-.095.046-.044.177-.08.292-.08.115 0 .406-.134.647-.298.24-.164.474-.26.52-.216.043.045.145-.008.224-.114.08-.108.366-.265.637-.35.272-.084.728-.26 1.015-.388.287-.13.555-.236.594-.236.038 0 .152-.08.25-.18.1-.1.384-.218.633-.264.248-.047.56-.186.692-.31.132-.122.28-.198.327-.168.05.03.33-.064.628-.208.297-.144.707-.308.91-.363.203-.055 1.03-.323 1.835-.595.806-.272 1.693-.516 1.97-.543.278-.026.668-.113.866-.192.355-.14 1.057-.075 1.057.1 0 .137-1.205.538-1.35.448-.07-.043-.128-.02-.128.05 0 .073-.113.13-.25.13-.138 0-.55.107-.916.235-.366.13-.7.2-.745.155-.044-.043-.132.014-.195.126s-.286.242-.496.288c-.21.046-.64.2-.955.342-.314.142-.627.264-.695.27-.068.01-.28.08-.47.16-.19.082-.37.15-.4.15-.03 0-.473.193-.986.43s-.988.43-1.054.43c-.067 0-.082.065-.034.143.048.078.035.11-.03.07-.117-.073-.238-.023-1.936.794-.534.257-1.02.437-1.078.4-.06-.036-.108-.02-.108.036 0 .11-.592.446-1.14.646-.188.067-.405.262-.483.433-.076.17-.217.31-.31.31-.223 0-.646.936-.65 1.432-.002.212-.074.445-.16.517-.087.072-.172.305-.188.518-.016.213-.217.98-.446 1.7-.505 1.594-.618 2.19-.436 2.302.074.045.23 0 .348-.11.118-.107.433-.272.7-.368.268-.095.802-.318 1.188-.496.385-.177.79-.322.9-.322.11 0 .165-.056.123-.123-.042-.068.024-.125.146-.127.123 0 .33-.086.462-.185.132-.098.39-.18.576-.18.186 0 .42-.083.522-.185.102-.1.247-.184.324-.184.077 0 .112-.043.08-.097-.034-.053.032-.105.146-.114.337-.027.884-.267.884-.388 0-.062.194-.15.43-.194.238-.044.433-.12.433-.167 0-.094.594-.394.78-.394.187 0 1.19-.528 1.19-.626 0-.05.104-.063.232-.03.128.034.27 0 .32-.078.063-.104.13-.103.26.008.303.252.19.47-.412.79-.322.17-.668.362-.77.424-.558.342-4.057 1.98-4.23 1.98-.112 0-.203.048-.203.11 0 .06-.153.145-.34.19-.31.074-1.642.653-2.153.935-.117.064-.297.118-.4.118-.103 0-.186.05-.186.113s-.166.15-.37.195c-.202.045-.368.133-.368.195 0 .063-.082.113-.183.113-.1 0-.218.14-.26.308-.043.17-.132.31-.198.31-.277 0 .24 1.702.672 2.216.526.627 1.75 1.296 2.114 1.156.093-.035.205-.008.25.067.112.18.752.165.95-.023.09-.085.458-.165.82-.177.36-.013.733-.09.83-.17.097-.08.176-.11.176-.068 0 .044.19 0 .42-.097.233-.097.452-.147.488-.11.036.035.248 0 .47-.082.225-.08.546-.174.715-.207.17-.033.394-.14.5-.236.107-.096.37-.195.587-.218.216-.024.43-.08.474-.125.045-.045.166-.082.27-.082.102 0 .41-.1.687-.225 1.165-.525 1.43-.632 1.495-.604.038.016.12-.062.182-.173.062-.11.308-.238.546-.282.238-.044.433-.133.433-.198s.073-.118.162-.118c.09 0 .296-.124.46-.277.163-.152.344-.262.4-.243.057.018.265-.083.464-.224.198-.14.416-.222.484-.18.068.043.124.01.124-.07 0-.107.047-.105.185.01.1.084.184.23.184.327 0 .223-.41.667-.647.702-.1.014-.276.12-.392.236-.116.116-.286.21-.378.21-.092 0-.24.075-.33.165-.193.193-3.155 1.685-3.344 1.685-.07 0-.353.108-.628.24-.726.35-2.98.952-5.017 1.34-.587.114-1.11.247-1.16.298-.05.05-.124.085-.163.076-.04-.01-.488-.068-.996-.13zm119.923-.987c-.254-.07-.46-.174-.46-.235 0-.06-.085-.11-.186-.11-.102 0-.185-.045-.185-.098 0-.15-.845-1.01-.992-1.01-.072 0-.248-.264-.39-.586-.388-.866-.31-1.37.15-.954.136.123.247.185.247.138 0-.046.11-.025.246.047.136.074.246.202.246.286 0 .195 1.642 1.932 1.827 1.932.197 0 .307-.54.236-1.166-.084-.748.024-.885.542-.684.227.088.497.25.602.358.56.583 1.1.645 1.475.168.368-.468.258-1.05-.306-1.627-.5-.512-.553-.807-.164-.91.364-.094.985.387 1.27.986.363.767.38 1.43.05 1.974-.337.555-.414.617-.96.772-.335.094-.51.07-.898-.13-.517-.262-.72-.228-.72.125 0 .123-.114.37-.254.547-.276.35-.576.39-1.377.177zm-9.862-.78c-1.984-.29-3.497-.956-4.952-2.175-1.49-1.248-2.293-2.518-2.833-4.472-1.09-3.944-1.284-4.92-1.34-6.696-.086-2.662-.206-4.632-.313-5.127-.06-.27-.17-.825-.25-1.232-.784-4.026-1.98-6.08-4.747-8.16-1.008-.757-2.097-1.164-3.004-1.123-1.075.05-1.175-.388-.126-.556.91-.146 2.814.448 3.654 1.14.217.178.707.573 1.09.878 2.677 2.137 4.285 6.23 4.55 11.577l.13 2.586c.053 1.07.406 3.22.676 4.127.818 2.744 1.328 4.124 1.796 4.864.366.58 1.083 1.356 1.25 1.356.076 0 .21.098.298.218.383.517 2.34 1.653 3.117 1.808.323.064 1.625.244 2.694.372.417.05.8.38.625.543-.218.202-1.218.234-2.314.073zm18.62-1.087c-.25-.078-.662-.31-.92-.52-.46-.372-.466-.39-.462-1.237.002-.65.074-1 .293-1.44.16-.317.343-.577.408-.577.064 0 .207-.103.316-.228.11-.125.33-.297.492-.382.253-.134.326-.12.546.1.244.243.245.264.038.493-.12.132-.373.304-.564.383-.258.107-.385.28-.496.676-.173.617-.073 1.14.178.932.088-.073.682-.317 1.32-.542.818-.288 1.243-.38 1.433-.31.15.055.27.15.27.208 0 .115-.402.516-.517.516-.037 0-.282.094-.545.208-.262.115-.722.297-1.022.406-.644.232-.74.402-.335.587.54.245 2.02-.305 2.668-.99.312-.33.392-.365.492-.21.326.504-.05 1.032-1.174 1.65-.87.48-1.528.554-2.417.276zm-99.185-2.445c-.35-.2-.527-.44-.866-1.17-.353-.763-.95-3.224-1.157-4.775-.16-1.185-.425-1.912-.7-1.912-.204 0-.2-.032-.058.46.137.48-.048.495-.413.034-.134-.17-.624-.743-1.09-1.276-.877-1.005-1.13-1.45-1.012-1.788.246-.713 3.157-1.704 4.926-1.676 1.844.028 2.978.467 3.765 1.455.66.826.667 1.358.03 2.063-.25.277-.68.605-.955.728-.488.22-1.38.437-1.59.387-.058-.013-.174.033-.26.103-.084.07-.472.135-.862.144l-.71.017.09.63c.048.347.135.99.193 1.43.234 1.772.807 3.963.94 3.6.105-.278.49.37.58.974.068.463.046.584-.117.646-.28.108-.45.09-.735-.07zm-.5-7.8c.132-.1.38-.182.555-.185.4-.01 1.275-.26 1.943-.56.55-.25.852-.718.722-1.126-.143-.45-1.03-1.232-1.632-1.44-1.19-.406-2.796-.365-3.797.1-.203.094-.59.24-.862.325-.823.258-.865.517-.25 1.54.32.53.448.66.506.507.044-.115.213-.204.386-.204.195 0 .286-.056.25-.154-.15-.387-.37-1.58-.305-1.644.04-.04.253-.08.472-.092.474-.022.753.358.977 1.336.29 1.264.502 1.793.72 1.782.04 0 .184-.086.315-.185zm115.098 7.375c-.867-.347-1.46-.68-1.693-.952-.152-.176-.32-.32-.374-.32-.09 0-1.15-1.575-1.46-2.168-.502-.967-.71-2.41-.493-3.394.118-.533.198-.666.42-.698.15-.02.363.05.47.155.177.177.175.245-.02.757-.206.536-.206.606.004 1.494.246 1.044 1.016 2.616 1.554 3.176.56.58.71.73.895.882.302.25 1.3.533 1.813.513.563-.023.87.178.636.413-.158.16-1.45.264-1.75.143zm-6.106-.26c-.072-.05-.234-.266-.36-.48-.123-.214-.34-.45-.482-.526-.23-.122-.913-.583-1.242-.838-.923-.716-2.736-1.41-3.64-1.393-.173 0-.423-.074-.554-.172-.192-.142-.213-.223-.105-.4.075-.123.254-.24.4-.262.385-.058 2.325.455 2.84.75.243.14.664.363.935.496.27.132.73.403 1.017.6.288.2.572.33.63.295.162-.1.035-1.38-.25-2.512-.283-1.118-.226-1.342.304-1.21.206.053.367.234.498.562.212.528.463 2.294.466 3.274.002.337.052.836.112 1.107.09.402.073.52-.094.647-.235.177-.292.184-.475.06zm-114.862-1.21c-1.155-.272-1.928-.745-2.968-1.816-1.02-1.05-1.57-2.005-1.817-3.15-.176-.82-.076-2.62.192-3.46.12-.37.244-.857.277-1.078.032-.22.11-.433.17-.47.06-.037.108-.175.108-.307 0-.13.047-.24.105-.24.057 0 .204-.22.326-.49.122-.272.257-.494.3-.494.045 0 .154-.21.244-.463.18-.512.587-1.016.82-1.016.083 0 .205-.153.27-.34.13-.374 1.584-1.425 2.122-1.535.17-.035.39-.097.492-.14.25-.105.958.344 1.127.713.078.172.1.49.05.75l-.083.45-.33-.432c-.512-.667-.722-.716-1.47-.34-.354.176-.676.418-.716.537-.04.118-.138.217-.218.22-.22.008-1.275 1.553-1.678 2.458-.422.95-.74 1.953-.77 2.43-.01.188-.072.41-.135.495-.133.176-.145 1.54-.02 2.29.322 1.936 2.54 4.367 4.282 4.693.148.028.297.06.33.074.035.012.184.013.333 0 .3-.025.776.192.776.353 0 .124-.535.337-1.047.416-.204.032-.687-.017-1.075-.108zm93.134-.05c-.7-.126-.99-.352-1.303-1.026-.458-.985-.352-2.202.312-3.577.657-1.36.866-2.066.866-2.923 0-.677-.055-.895-.325-1.293-.502-.743-.805-.9-2.487-1.3-.68-.162-1.58-.03-1.835.268-.192.224-.208.222-.555-.07-.197-.165-.46-.3-.584-.3-.357 0-.618-.135-.618-.317 0-.23.396-.423.863-.423.212 0 .456-.07.54-.154.085-.085 1.065-.45 2.178-.812 1.112-.362 2.217-.744 2.454-.848.746-.328 3.488-1.282 4.002-1.392.27-.058.77-.19 1.108-.296.34-.104.85-.19 1.14-.19.436 0 .523.037.523.237 0 .306-.483.66-.68.498-.237-.198-3.635.816-5.416 1.615-.135.06-1.012.376-1.948.7-.937.325-1.7.644-1.698.71.002.064.298.153.656.197 1.115.136 2.233.557 2.71 1.02.507.492.834 1.345.834 2.173 0 .58-.373 1.994-.68 2.577-.7 1.328-.878 2.197-.66 3.217.162.752.55 1.034 1.384 1.002.33-.012.662-.072.74-.133.077-.06.306-.142.51-.18.203-.038 1.13-.434 2.06-.88.93-.445 1.736-.81 1.79-.81.052 0 .288-.13.524-.288 1.382-.933 5.983-1.94 6.206-1.36.04.105.073.21.073.232 0 .04-.608.155-1.293.244-.204.026-.62.11-.924.188-.305.078-.693.17-.862.206-.287.06-3.16 1.286-3.572 1.523-.1.058-.6.306-1.108.55-.508.245-1.013.493-1.122.55-.11.06-.693.28-1.297.488-1.17.405-1.81.5-2.508.377zm-76.32-.893c-.39-.425-.51-.998-.58-2.74-.035-.88-.102-2.134-.148-2.784-.084-1.18-.083-1.184.21-1.237.62-.113.693-.024.9 1.102.15.816.184 1.626.146 3.41-.027 1.287-.055 2.382-.062 2.433-.022.17-.213.095-.467-.185zm107.747-.38c-.063-.08-.157-.282-.207-.45-.05-.17-.28-.573-.508-.894-.23-.322-.416-.647-.416-.722 0-.075-.078-.106-.173-.07-.095.037-.27-.04-.39-.17-.117-.132-.284-.24-.37-.24-.086 0-.313-.128-.504-.286-.523-.43-1.48-.85-1.745-.767-.14.045-.35-.02-.523-.16-.233-.19-.26-.27-.143-.412.263-.318 1.28-.156 2.26.362 1.355.714 1.367.72 2.122 1.382.39.342.725.622.743.622.018 0 .01-.164-.02-.364-.072-.492.33-1.343.68-1.436.192-.05.398.025.677.253 1.362 1.11 1.924 1.547 1.99 1.547.117 0 .085-.633-.058-1.148-.134-.482-1.208-2.052-2.08-3.04l-.49-.554-.285.352c-.256.312-.305.33-.448.158-.228-.275-.016-.84.39-1.038.28-.137.39-.126.793.08.257.13.688.502.96.826.27.324.546.65.614.725.37.408 1.396 2.04 1.515 2.408.195.605.215 1.367.045 1.684-.08.148-.145.383-.145.523s-.05.255-.113.255c-.062 0-.187.028-.277.063-.09.034-.314-.077-.497-.246-.184-.17-.38-.31-.437-.31-.055 0-.295-.18-.532-.4-.59-.55-1.074-.893-1.255-.893-.104 0-.164.303-.19.966-.023.532-.082 1.08-.134 1.22-.106.285-.672.402-.853.175zm14.567-1.18c-.137-.06-.324-.194-.413-.302-.14-.17-.118-.214.16-.32.176-.066.32-.156.32-.2 0-.043-.168-.39-.373-.772-.43-.797-1.142-1.605-2.028-2.3-.34-.267-.81-.66-1.048-.877-1.205-1.1-3.89-2.918-4.192-2.84-.16.042-.244-.03-.3-.253-.12-.48.082-.58.74-.355.82.28 3.5 2.068 4.76 3.176.18.16.59.512.91.783 1.745 1.478 2.558 2.694 2.492 3.726-.036.553-.058.587-.407.61-.204.015-.483-.02-.62-.077zm-5.563-.974c-.256-.26-.556-.605-.665-.768l-.2-.296-.355.422c-.195.233-.354.51-.354.614 0 .118-.133.206-.35.23-.275.033-.45-.065-.83-.466-.767-.805-.57-1.546.215-.817l.32.295.44-.48c.61-.664 1.107-.665 1.73 0 .595.635.728.81.902 1.19.12.262.113.343-.032.434-.27.172-.317.152-.82-.355zm-94.316-4.832c-.147-.237.068-.738.377-.88.17-.075.306-.208.306-.294 0-.085.07-.23.158-.32.29-.296.58-1.47.58-2.34 0-1.643-.783-3.865-1.966-5.58-.28-.407-.708-1.032-.95-1.39-.564-.837-2.743-2.778-3.572-3.184-.352-.172-.863-.342-1.136-.38-.35-.046-.52-.137-.574-.31-.133-.415.1-.482.94-.27 1.07.27 2.28.876 2.87 1.438.27.255.508.444.53.42.09-.09 1.3 1.202 1.956 2.09 1.51 2.04 2.054 3.063 2.586 4.86.28.94.34 1.367.32 2.26-.028 1.22-.21 1.89-.778 2.84-.533.89-1.4 1.438-1.646 1.04zm-16.556-.337c-.502-.247-.938-.85-1.125-1.553-.074-.277-.195-.615-.27-.75-.074-.136-.285-.69-.468-1.232-.347-1.027-.323-1.17.196-1.164.394 0 .694.31.737.753.022.227.18.698.355 1.047.173.35.352.793.398.985.08.343.588 1.124.844 1.303.072.05.222-.034.334-.185.11-.15.347-.43.523-.62.177-.19.32-.483.32-.65 0-.375.555-1.5.91-1.845.343-.334 1.02-.64 1.623-.735.41-.065.575-.016 1.064.31.474.316.66.56 1.026 1.333.246.52.617 1.125.826 1.342.31.323.35.428.227.577-.13.157-.215.158-.634.01-.664-.234-.88-.47-1.38-1.508-.488-1.01-.934-1.446-1.37-1.336-.405.102-.9.64-1.074 1.164-.284.86-.82 1.946-1.11 2.25-.712.738-1.213.868-1.952.505zm115.517-5.905c-.662-.192-.985-.428-.985-.72 0-.416.32-.51.66-.19.3.28.514.332.627.15.195-.316-.665-1.48-1.63-2.205-1.64-1.234-3.845-3.216-3.845-3.456 0-.215.41-.16.743.1 1.373 1.07 1.98 1.393 2.142 1.134.036-.06.243-.143.46-.186.43-.086 1.212-.627 1.212-.84 0-.073.085-.196.19-.273.63-.46-.816-1.057-2.56-1.057-1.494 0-2.307.286-3.296 1.16-1.028.908-1.055 1.285-.11 1.568.264.078.48.197.48.263 0 .175-.9.026-1.443-.24-.42-.205-.464-.272-.452-.686.016-.53.58-1.262 1.27-1.646.233-.13.482-.295.555-.367.312-.31 1.424-.57 2.73-.634 1.192-.058 1.47-.032 2.18.204.953.317 1.607.726 1.668 1.044.025.124-.052.44-.17.705-.25.55-1.09 1.13-1.963 1.35-.305.076-.556.208-.556.292 0 .084.292.346.648.582 1.06.703 1.977 1.624 2.34 2.344.378.75.422 1.103.166 1.316-.23.192-.83.355-1.06.288zm5.865-1.342c-.97-.297-2.17-1.17-2.17-1.578 0-.265.364-.238.67.05.535.5 2.09 1.205 2.217 1.002.077-.124-.434-.85-.9-1.28-.4-.365-.4-.697-.003-.667.132.01.502.235.82.5.857.707 1.67.93 1.836.5.115-.3-.3-1.046-.834-1.505-.555-.474-.602-.638-.183-.638.437 0 1.038.382 1.212.77.083.186.22.338.302.338.226 0 .405.42.403.947-.003.714-.126.82-1.036.877-.79.05-.81.06-.81.392 0 .518-.482.61-1.523.29zm-98.397-2.713c-.152-.152-.084-.507.113-.582.107-.04.366-.075.575-.075.21 0 .47-.073.576-.163.245-.206 3.023-1.313 3.308-1.32.116 0 .313-.08.437-.174.125-.094.513-.234.863-.312.35-.076.83-.214 1.068-.305.635-.243 2.55-.6 2.768-.515.403.155.14.302-1.135.635-.73.19-1.474.42-1.657.51-.183.093-.423.167-.533.167-.11 0-.57.144-1.022.32-.45.174-1.098.422-1.437.55-.338.128-1.05.4-1.58.605-.532.206-1.013.345-1.07.31-.058-.037-.304.047-.548.183-.475.268-.594.295-.722.167zm2.504-.08c0-.298.33-.412 1.418-.492.542-.04 1.318-.163 1.724-.274l1.106-.3c.203-.053.868-.248 1.478-.43 1.154-.35 1.217-.363 1.57-.33.57.05.074.3-2.186 1.097-1.582.558-2.576.778-3.85.853-1.107.066-1.26.05-1.26-.124zm41.374-1.54c-.3-.19-.688-.538-.862-.77-.48-.64-1.387-2.184-1.742-2.964-.27-.59-.388-.717-.79-.85-.58-.19-1.648-.835-1.648-.993 0-.064-.138-.18-.307-.256-.274-.125-.307-.214-.307-.82 0-.638.03-.707.527-1.18 1.468-1.396 3.482-1.58 5.294-.48 1.494.905 1.828 1.466 1.353 2.28-.373.636-2 1.447-2.982 1.487-.274.01-.498.082-.498.157 0 .212 1.064 2.347 1.49 2.99.21.318.605.78.878 1.025.28.252.46.51.412.585-.122.198-.207.176-.816-.21zm-.997-5.2c.43-.087.81-.23.845-.322.035-.09.123-.165.197-.165.27 0 .825-.663.825-.986 0-.66-1.637-1.667-2.93-1.802-.617-.064-.802-.03-1.36.252-.646.328-.673.395-.318.812.086.1.232.323.323.492.575 1.07 1.25 1.974 1.435 1.926.11-.03.554-.123.983-.208zm-2.618-.543c-.318-.542-.588-.697-.752-.433-.088.145.89 1.182 1.006 1.067.04-.04-.075-.326-.255-.633zm-.83-.792c.25-.158.118-.563-.198-.608-.283-.04-.35.133-.2.522.084.22.16.237.4.086zm67.72 6.336c-.833-.298-1.322-.73-2.048-1.807-.83-1.23-1.25-2.333-1.156-3.03.047-.345.01-.52-.133-.64-.11-.09-.198-.227-.198-.305 0-.41 3.31-1.694 4.784-1.853 1.11-.12.954.154-.3.527-.536.16-1.14.363-1.344.452l-1.087.477c-.394.173-.688.362-.652.42.037.06.008.483-.063.942-.12.77-.11.863.128 1.185.142.192.26.476.262.632.004.33.265.712.485.712.228 0 1.36-.538 1.36-.646 0-.052.083-.093.186-.093.2 0 1.044-.806 1.044-.996 0-.195.34-.122.42.09.204.528-.34 1.134-1.59 1.768-.435.22-.815.426-.844.455-.03.03.026.21.123.406.26.516 1.14.91 1.87.833 1.145-.12 1.957-.448 2.536-1.026.3-.3.576-.546.613-.546.036 0 .127.115.203.256.11.208.085.33-.14.66-.678.99-3.115 1.603-4.457 1.124zm8.04-.036c-.4-.073-.738-.38-.738-.676 0-.13.143-.548.318-.93.305-.667.31-.702.092-.864-.27-.202-1.098-.123-1.637.156-.23.118-.388.14-.437.062-.113-.184.055-.614.242-.614.09 0 .32-.083.515-.184.46-.24.952-.234 1.478.015.803.38.977.97.538 1.83-.285.56-.172.802.274.59.493-.235 1.68-.55 1.907-.505.268.052.29.35.035.47-.1.046-.304.146-.45.22-.255.132-1.695.537-1.784.503-.024-.01-.183-.042-.352-.073zm11.938-.496c-.593-.4-1.74-1.592-2.314-2.4-1.074-1.512-1.68-2.318-2.265-3.01-.322-.382-.585-.77-.585-.862 0-.092-.23-.418-.513-.724-.376-.408-.476-.593-.376-.693.102-.1.22-.082.448.067.397.26.417.257.464-.074.057-.403.863-.76 1.67-.743.708.017 1.75.436 2.23.898.4.384.3 1.044-.23 1.49-.377.32-1.416.725-1.86.725-.127 0-.23.042-.227.093.002.05.333.508.734 1.016.4.507.934 1.223 1.185 1.59.25.366.918 1.12 1.483 1.675.564.554 1.026 1.044 1.026 1.088 0 .16-.563.072-.87-.137zm-2.64-6.094c.368-.185.925-.734.925-.91 0-.34-.836-.806-1.566-.87-.64-.06-.747-.033-1.05.25-.437.406-.428.652.046 1.297.373.506.403.52.893.44.28-.046.62-.14.754-.208zm29.826 5.48c-.385-.39-.986-1.125-1.335-1.633-.35-.51-1.177-1.49-1.84-2.18-.662-.692-1.264-1.37-1.338-1.51-.118-.22-.1-.252.146-.252.388 0 2.724 2.33 3.557 3.55.355.52.914 1.29 1.24 1.712.328.422.595.824.595.893 0 .292-.37.08-1.026-.582zm-33.15-1.2c-1.03-.282-2.05-.79-2.965-1.476-1.186-.89-3.116-2.75-3.323-3.205-.093-.203-.365-.73-.604-1.17-.49-.902-.57-1.753-.248-2.648.097-.27.178-.59.18-.708 0-.26.122-.272.433-.046.25.184.268.475.12 1.924-.08.773-.066.833.422 1.737 1.125 2.082 4.555 4.764 6.578 5.142.676.127.757.18.657.442-.088.23-.428.23-1.25.01zm10.636-.25c-.682-.354-1.158-.93-1.734-2.092-.35-.705-.417-.963-.37-1.416.068-.694.207-.88.56-.75.23.087.268.198.276.825.007.577.098.9.45 1.586.512 1 .934 1.438 1.666 1.728.287.115.523.257.523.318 0 .212-.807.095-1.37-.2zM95.504 45.27c-.236-.26-.195-.402.13-.45.238-.035.353.245.208.505-.098.175-.136.168-.338-.055zm34.224-.616c-.364-.147-.895-.815-1.225-1.54-.514-1.127-1.044-2.662-1.044-3.02 0-.68.52-.608.748.102.08.25.195.514.256.59.06.077.266.604.458 1.17.437 1.293.802 2.014 1.19 2.352.167.145.303.31.303.364 0 .127-.35.118-.687-.018zm-34.868-.14c-.097-.096-.037-.348.218-.912.4-.88.463-1.17.49-2.216.027-1.08-.383-2.5-1.014-3.51-.19-.304-1.025-1.19-1.855-1.97-.83-.78-2.12-2.027-2.865-2.773-1.213-1.214-1.423-1.492-2.002-2.648-.356-.71-.647-1.413-.647-1.563 0-.15-.135-.47-.3-.716-.467-.688-.723-1.714-.735-2.953-.01-1.088 0-1.122.463-1.815.26-.388.675-.866.923-1.06.54-.425 1.412-.882 1.684-.882.108 0 .365-.087.57-.194.523-.27 1.828-.317 2.108-.076.248.213.274.71.057 1.08-.2.342-.662.914-.74.914-.192 0-.173-.44.038-.834.272-.506.303-.716.125-.826-.152-.094-2.037.388-2.528.647-.52.273-1.417 1.017-1.417 1.174 0 .074-.12.26-.264.414-.232.245-.267.43-.273 1.425-.007 1.11.01 1.18.635 2.62 1.315 3.03 1.79 3.783 3.233 5.13 2.42 2.26 4.268 4.114 4.59 4.604.18.274.523 1.073.76 1.776.402 1.195.425 1.347.353 2.335-.09 1.234-.53 2.48-.974 2.773-.347.227-.454.237-.634.057zm121.52-2.072c0-.08.084-.31.19-.51.252-.49.14-1.077-.4-2.085-.604-1.133-1.797-2.293-3.806-3.702-1.983-1.392-3.296-2.064-4.3-2.2-.385-.052-.745-.17-.802-.262-.28-.45.32-.475 1.604-.065 1.234.395 1.893.772 4.75 2.72 2.063 1.405 3.487 3.088 3.82 4.51.1.438.148 1.353.064 1.27-.028-.028-.11.032-.185.13-.176.237-.936.394-.936.195zm-10.717-2.352c-.935-.25-1.97-1.24-2.186-2.085-.138-.543-.02-.677.402-.463.313.16.425.33.428.656.002.278.643 1.03 1.077 1.262.37.198.89.175.974-.044.038-.102.153-.185.256-.185.118 0 .163-.077.125-.215-.033-.118-.08-.295-.106-.393-.092-.357.37-.256.785.17.32.33.583.468 1.075.562 1.328.252 1.314.108-.135-1.33-1.024-1.014-1.3-1.49-.752-1.292.436.158 2.21 1.884 2.5 2.433.26.49.274.582.113.692-.24.166-2.028.057-2.564-.156-.37-.145-.428-.138-.58.07-.194.266-.963.44-1.413.32zm27.482-3.928c-.624-.215-1.376-.785-1.23-.932.038-.037.434.104.88.313.7.327.885.366 1.33.278.285-.056.58-.2.654-.32.198-.32.082-.377-2.042-1.005-.608-.18-1.188-.48-2.286-1.18-.15-.096-.395-.402-.542-.68-.336-.63-.247-1.084.264-1.348.203-.105.368-.245.368-.31 0-.16.41-.153.77.01.383.175.615.564.52.87-.1.308-.47.254-.533-.078-.106-.555-.758-.488-.758.076 0 .195-.057.355-.126.355-.073 0-.046.157.06.365.26.5 1.41 1.145 2.863 1.608 1.63.52 1.958.674 2.202 1.046.172.263.182.366.057.6-.083.154-.216.287-.295.294-.08.01-.366.07-.637.14-.656.17-.753.164-1.523-.1zm2.783-1.773c-.895-.344-1.473-.803-1.876-1.49-.306-.522-.31-.553-.115-.96.334-.703.76-.777 1.992-.348 1.977.69 2.858 1.57 2.504 2.503-.083.218-.265.337-.67.44-.76.19-1.01.17-1.836-.146zm1.49-.47c.023-.06.12-.108.216-.108.217 0 .23-.496.02-.77-.084-.11-.425-.34-.757-.515-.48-.25-.78-.316-1.457-.316h-.853l.085.4c.114.53.11.526.733.955.782.538 1.87.73 2.013.354zm1.962-1.142c-.573-.208-.79-.35-1.977-1.293-.885-.704-1.177-1.12-.782-1.12.14 0 1.235.748 1.435.98.168.196 1.088.833 1.39.964.332.142.354.13.534-.3.177-.427.17-.477-.13-1.06-.39-.75-.393-.832-.02-.832.21 0 .605.31 1.34 1.052.918.927 1.082 1.043 1.366.972.19-.047.322-.03.322.046 0 .07.037.223.082.34.15.392-.873.14-1.537-.376l-.577-.45-.074.445c-.04.246-.124.495-.185.555-.213.208-.73.24-1.187.075zm5.14-.57c-.338-.13-.754-.396-.923-.59-.17-.196-.583-.447-.92-.56-.773-.26-1.467-.737-1.65-1.136-.286-.63.437-1.406 1.315-1.406.653 0 1.2.667.872 1.063-.214.257-.318.204-.4-.2-.064-.323-.126-.37-.483-.37-.358 0-.428.054-.57.45-.15.41-.143.47.066.63.584.448 1.227.638 2.165.64 2.047.01 3.71 1.106 2.39 1.583-.563.204-1.145.17-1.86-.104zm1.39-.494c.024-.13-.136-.234-.525-.338-.635-.17-1.542-.2-1.542-.05 0 .053.236.217.524.364.612.31 1.485.325 1.542.025zm1.43-.96c-.877-.303-1.99-1.273-2.093-1.827-.06-.325-.2-.502-.588-.744-1.007-.63-3.157-2.307-3.157-2.463 0-.088.05-.16.11-.16.134 0 1.878 1.174 2.957 1.99.433.33.837.597.896.597.06 0 .315-.09.567-.2.252-.112.54-.215.643-.23.38-.058 1.788-.458 1.992-.567.27-.145 1.333-.255 1.332-.138-.002.13-.54.37-1.846.823-1.344.465-1.848.685-1.848.807 0 .047.44.41.978.808 1 .74 1.17.97.97 1.327-.137.247-.134.247-.913-.023zm.26-.387c-.13-.213-1.553-1.263-1.62-1.196-.11.11.607.776 1.127 1.048.576.302.592.307.494.15zm-145.757-.21c-1.393-.234-1.89-.57-2.675-1.803-.287-.45-.326-.637-.32-1.5.012-1.37.224-1.88.96-2.314.326-.19.668-.318.762-.282.265.102.334.424.17.786-.147.32-.155.323-.328.087-.135-.184-.225-.21-.377-.115-.253.16-.538 1.105-.48 1.592.024.204.05.502.057.664.013.28.045.29.593.215.63-.086 1.032-.205 2.253-.665 1.324-.5 1.97-.94 1.97-1.34 0-.205.15-.213.346-.018.213.213.184.363-.14.74-.487.566-2.472 1.45-3.81 1.697-.457.083-.86.2-.897.258-.114.185.932 1.202 1.394 1.354.58.192 2.458.065 3.848-.26 2.38-.554 2.868-.6 2.498-.228-.414.413-4.9 1.285-5.823 1.13zm18.694-.207c-.116-.088-.266-.304-.332-.48-.225-.59-2.455-3.72-2.898-4.07-.342-.266-.44-.43-.44-.74 0-.22-.09-.527-.198-.683-.135-.19-.16-.325-.076-.41.21-.207.548.07 1.067.873.268.413.524.75.57.75.045 0 .055-.385.02-.858-.06-.842-.052-.866.337-1.23.834-.778 2.18-.81 2.923-.067.534.533.536.95.008 1.448-.434.408-1.55.954-1.947.954-.408 0-.413.343-.016 1.1.206.395.393.82.415.948.02.127.153.397.295.6.4.575 1.03 1.876.947 1.958-.122.123-.45.077-.675-.093zm-.405-5.257c1.11-.56 1.25-.823.734-1.38-.778-.84-2.145.076-1.946 1.303.09.56.236.568 1.212.077zm-5.264 3.074c-1.406-.33-3.402-1.76-3.928-2.81-.4-.803-.682-2.778-.524-3.676.056-.32.106-.667.11-.77.022-.483.392-.636.728-.3.172.173.173.238.007.637-.315.756-.077 2.925.43 3.91.552 1.077 2.57 2.533 3.793 2.74.354.06.58.28.287.28-.062 0-.187.022-.277.05-.09.026-.37 0-.624-.06zm11.44-.29c-.18-.168-.326-.407-.326-.534 0-.127-.14-.697-.31-1.268-.278-.924-.32-1.715-.095-1.715.265 0 .7.96 1.03 2.27.138.546.336 1.06.44 1.14.105.08.154.204.11.276-.137.22-.507.147-.85-.17zM149.79 25.5c-.413-.29-1.452-1.658-1.823-2.402-.185-.373-.56-.97-.835-1.33-.548-.717-.51-.99.096-.695.367.178 1.077 1.136 1.718 2.32.18.33.536.913.79 1.293.256.38.505.76.555.844.126.214-.178.196-.5-.03zm-52.45-.732c-.212-.158-.218-.198-.054-.357.52-.505 5.108-1.376 7.236-1.373 1.747 0 .4.368-2.21.6-.316.028-.62.08-.676.113-.056.035-.378.1-.717.146-.92.125-2.306.565-2.595.822-.306.272-.66.29-.985.05zm44.067-.52c-.085-.034-.154-.2-.154-.366 0-.942-.645-2.585-1.51-3.848-.887-1.292-3.57-3.55-5.034-4.24-.463-.216-.824-.45-.803-.517.083-.272.833-.2 1.41.136 1.66.967 4.472 3.42 5.28 4.606.742 1.087 1.31 2.67 1.325 3.69.008.554-.13.698-.515.54zm-11.025-.98c-.416-.127-.836-.414-1.44-.984-1.05-.99-1.306-1.608-1.2-2.894.105-1.235.376-1.66.927-1.45.414.158 1.178.916 1.08 1.073-.047.077-.198.01-.378-.172-.472-.47-.764-.397-.88.224-.214 1.134.023 1.877.897 2.81.825.884 1.37 1.14 2.308 1.08.548-.036.858-.13 1.154-.348.483-.358.468-.587-.06-.895-.438-.255-1.944-.326-2.168-.102-.122.122-.07.156.507.33.09.027.127.107.084.177-.166.27-1.538-.18-1.538-.503 0-.215 1.104-.608 1.704-.607.763 0 1.765.278 2.24.617.317.225.372.333.31.598-.233 1.007-1.992 1.528-3.548 1.05zm86.03-1.37c-.702-.466-2.752-2.208-3.036-2.578-.307-.4-.128-.58.396-.4.217.077.382.203.365.28-.016.078.108.286.275.463.406.43 1.857 1.587 1.99 1.587.056 0-.044-.233-.224-.52-.415-.655-.522-1.448-.236-1.734.18-.182.253-.186.607-.04.658.277 1.327.74 2.41 1.672.562.485 1.094.855 1.182.82.088-.032.247.073.353.236.242.37.243.428.004.428-.336 0-1.082-.45-1.967-1.19-2.215-1.847-2.55-1.857-1.675-.05.497 1.027.568 1.363.287 1.363-.123 0-.454-.153-.734-.34zm17.94-.873c-.63-.403-1.363-1.18-1.665-1.77-.115-.223-.312-.54-.438-.7-.295-.378-.293-.63.006-.63.28 0 .763.548 1.268 1.442.365.647 1.236 1.514 1.52 1.514.082 0 .212.077.29.17.11.133.096.19-.057.247-.297.114-.332.104-.923-.272zm-12.924-.552c0-.36.35-.562 1.306-.75.55-.108 1.12-.197 1.273-.197.54 0 .166.287-.737.568-.505.157-1.014.342-1.132.413-.3.178-.71.16-.71-.034zm-.845-.587c-.24-.096-.265-.148-.14-.3.085-.1.207-.183.273-.183.066 0 .267-.104.447-.232.49-.346 1.67-.58 2.05-.405.41.186.393.4-.03.375-.496-.03-1.26.214-1.78.568-.25.17-.47.307-.49.303-.022-.007-.17-.06-.33-.124zm6.072-.228c-1.2-.29-2.35-1.18-2.826-2.184-.187-.39-.187-.45-.006-.726.108-.166.292-.307.41-.314.116-.01.406-.044.643-.08 1.02-.154 1.68-.08 2.25.255 1.292.756 1.64 1.354 1.28 2.2-.312.74-.94 1.045-1.752.848zm.815-.775c.503-.55.482-1-.072-1.524-.56-.528-1.905-.91-1.905-.543 0 .067-.1.123-.222.123-.12 0-.285.065-.364.143-.11.11-.163.095-.223-.06-.043-.114-.157-.207-.253-.207-.26 0-.078.58.375 1.185.48.64 1.465 1.224 2.142 1.27.088.007.324-.17.523-.387zm9.92.062c-.36-.092-1.387-.743-2.472-1.567-.54-.41-1.395-.996-1.9-1.3-.504-.307-.94-.625-.968-.71-.068-.204.326-.186.71.032.514.295.607.223.355-.272-.274-.538-.298-1.008-.067-1.324.13-.177.266-.212.61-.156 1.13.184 2.966 1.758 2.677 2.298-.125.234-.726.5-1.127.5-.312 0-.174.296.236.507.723.373 2.364 1.718 2.364 1.938 0 .15-.033.154-.418.055zm-2.12-3.007c.17-.076.336-.213.37-.303.074-.192-.768-.95-1.438-1.297-.8-.412-.917-.08-.33.946.468.82.748.95 1.4.654zm5.427.7c-.166-.166-.303-.43-.304-.585 0-.156-.05-.357-.107-.448-.064-.102-.015-.35.128-.647.23-.475.452-.576.894-.406.24.092.26.418.024.418-.095 0-.206.137-.248.305-.085.336.033 1.29.157 1.276.044-.007.16 0 .263.01.145.014.133.058-.054.2-.323.243-.4.23-.753-.122zm3.266-1.312c-.833-.82-1.672-1.546-1.864-1.613-.193-.067-.35-.176-.35-.242 0-.164-.322-.47-.495-.47-.078 0-.117-.07-.088-.155.03-.085.146-.146.257-.137.153.013.203-.09.204-.43.002-.52.06-.624.52-.915.417-.266 1.158-.176 1.733.21.77.515.483 1.418-.576 1.82l-.355.134.97.985 1.5 1.52c.503.507.58.785.218.785-.088 0-.842-.67-1.675-1.49zm-.724-2.485c.487-.328.583-.632.298-.946-.305-.337-.618-.37-1.043-.113-.324.198-.37.284-.3.572.08.342.382.77.54.77.048 0 .274-.126.504-.28zm-4.5 2.798c-.21-.21-.256-.673-.085-.86.06-.063.143-.352.186-.64l.08-.523h-.486c-.268 0-.892-.09-1.387-.198-.496-.11-1.114-.242-1.375-.294-.484-.097-.932-.422-.785-.57.045-.044.683.066 1.42.244.735.18 1.526.327 1.758.328.51 0 1.337.187 1.475.326.054.057.03.47-.055.92-.132.696-.128.83.026.927.155.098.15.143-.03.324-.263.263-.49.268-.74.018zm8.09-1.25c-.496-.046-.582-.127-.53-.504.01-.09-.095-.4-.236-.69-.267-.554-.236-.868.103-1.046.41-.215 1.1.293.944.696-.076.198-.103.193-.31-.06-.205-.253-.494-.375-.494-.21 0 .038.082.226.182.42.174.336.2.345.684.222.38-.096.584-.088.834.035.183.09.362.156.398.15.15-.03.022.618-.167.838-.203.238-.303.25-1.407.15zm.934-.645c.037-.255.007-.275-.308-.196-.475.12-.512.182-.23.387.31.227.486.165.538-.19zM220.874 9c-.456-.195-1.59-1.312-2.007-1.974-.17-.27-.493-.71-.718-.972-.4-.47-.438-.69-.12-.69.17 0 1.182.968 1.182 1.13 0 .3 1.606 2.14 1.966 2.255.254.08.328.246.157.35-.052.033-.26-.012-.462-.1zm-15.764-.335c-.135-.076-.496-.342-.8-.59-.636-.517-1.998-1.357-2.203-1.357-.187 0-.176.054.108.52.38.625.305 1.327-.144 1.327-.344 0-.642-.174-1.855-1.084-.94-.704-1.31-1.13-.98-1.13.126 0 .916.527 1.794 1.2.375.287.713.523.75.523.142 0 .056-.524-.158-.96-.494-1.006.035-1.155 1.42-.4 1.09.594 2.767 1.84 2.675 1.99-.09.145-.306.132-.607-.037zm1.324-1.66c-.334-.134-.122-.38.493-.57 1.993-.62 2.555-.726 2.555-.476 0 .107-.506.32-1.355.574-.372.11-.86.28-1.08.378-.224.096-.418.17-.432.166-.015-.008-.096-.038-.18-.072zm15.55-.726c-.2-.106-.394-.23-.43-.277-.035-.047-.48-.446-.986-.886-1.272-1.105-1.544-1.374-1.712-1.693-.128-.244-.116-.278.1-.278.133 0 .288.07.342.154.054.085.197.232.318.327.206.162.215.14.14-.338-.14-.86.283-1.088 1.257-.685.977.403 1.225.996.536 1.282-.206.084-.404.204-.443.266-.063.102.32.59 1.288 1.646.542.59.315.857-.41.48zm-.74-2.78c.08-.08.02-.2-.185-.357-.526-.404-.832-.256-.685.33.068.27.127.302.412.23.184-.044.39-.136.457-.202zM205.54 6.22c-.158-.105-.15-.143.063-.272.714-.432 2.234-.77 2.686-.595.416.16.314.43-.132.344-.306-.06-1.705.336-1.933.545-.155.14-.455.132-.684-.02zm6.022-.28c-.838-.313-1.777-1.157-2.192-1.972-.28-.548-.21-.92.19-1.02.377-.096 1.143.047 1.347.25.087.088.53.197.984.243.933.097 1.416.303 1.995.853.563.534.543.972-.062 1.372-.577.382-1.63.51-2.26.274zm1.406-.396c.5-.094.828-.562.627-.897-.256-.426-1.187-.765-2.183-.795-.71-.02-.93-.068-.886-.186.08-.21-.544-.453-.72-.278-.178.18.74 1.453 1.35 1.876.463.32.937.47 1.242.395.08-.02.337-.072.57-.116zm17.044-1.36c-.318-.308-.578-.613-.578-.676 0-.064-.042-.116-.093-.116-.05 0-.45-.333-.892-.738-.44-.406-.837-.738-.883-.738-.046 0-.257-.148-.47-.327-.268-.226-.342-.356-.24-.42.112-.068.103-.155-.04-.358-.246-.353-.142-.705.238-.8.337-.085 1.577.303 2.228.697.608.365.727.672.4 1.02-.15.16-.403.32-.566.362-.163.04-.296.117-.296.17 0 .133 2.075 2.116 2.215 2.116.065 0 .085.083.046.185-.125.324-.473.2-1.068-.378zm-1.197-2.467c.57-.228.612-.39.182-.702-.357-.26-1.667-.732-1.763-.636-.122.12.846 1.535 1.05 1.535.02 0 .26-.09.53-.198zm-2.583 1.604c-.44-.087-1.262-.162-1.825-.166-.853-.008-1.347-.106-1.603-.322-.105-.09.806-1.54 1.008-1.606.445-.145.478.145.088.78-.208.337-.378.655-.378.706 0 .05.245.056.544.01.56-.083 2.863.247 3.083.443.263.235-.157.306-.918.155zm5.684-.218c-.497-.18-1.003-.95-1.004-1.524 0-.354.035-.396.318-.373.175.014.376.133.445.264.104.193.092.222-.068.16-.307-.117-.33.077-.06.504.22.347.27.37.43.21.412-.41 1.398-.377 1.398.05 0 .347-.476.877-.78.866-.147-.008-.453-.076-.68-.158zm.695-.35c.234-.232.174-.367-.097-.22-.136.07-.247.184-.247.25 0 .162.167.148.345-.03z"/></svg>